STARTFONT 2.3
FONT -FontForge-Shadows Into Light-Book-R-Normal--36-360-72-72-P-149-ISO10646-1
SIZE 36 72 72  4
FONTBOUNDINGBOX 52 59 -7 -16
COMMENT "Generated by fontforge, http://fontforge.sourceforge.net"
COMMENT "Copyright (c) 2010, Kimberly Geswein (kimberlygeswein.com)"
STARTPROPERTIES 40
FOUNDRY "FontForge"
FAMILY_NAME "Shadows Into Light"
WEIGHT_NAME "Book"
SLANT "R"
SETWIDTH_NAME "Normal"
ADD_STYLE_NAME ""
PIXEL_SIZE 36
POINT_SIZE 360
RESOLUTION_X 72
RESOLUTION_Y 72
SPACING "P"
AVERAGE_WIDTH 149
CHARSET_REGISTRY "ISO10646"
CHARSET_ENCODING "1"
FONTNAME_REGISTRY ""
CHARSET_COLLECTIONS "ISO8859-2 ISO8859-9 ISO8859-4 ISO10646-1"
BITS_PER_PIXEL 4
FONT_NAME "ShadowsIntoLight"
FACE_NAME "Shadows Into Light"
COPYRIGHT "Copyright (c) 2010, Kimberly Geswein (kimberlygeswein.com)"
FONT_VERSION "001.000"
FONT_ASCENT 29
FONT_DESCENT 7
UNDERLINE_POSITION 0
UNDERLINE_THICKNESS 0
X_HEIGHT 21
CAP_HEIGHT 25
RAW_ASCENT 799
RAW_DESCENT 200
NORM_SPACE 16
RELATIVE_WEIGHT 40
RELATIVE_SETWIDTH 50
SUPERSCRIPT_X 0
SUPERSCRIPT_Y 17
SUPERSCRIPT_SIZE 23
SUBSCRIPT_X 0
SUBSCRIPT_Y 5
SUBSCRIPT_SIZE 23
AVG_LOWERCASE_WIDTH 136
AVG_UPPERCASE_WIDTH 173
ENDPROPERTIES
CHARS 352
STARTCHAR space
ENCODING 32
SWIDTH 450 0
DWIDTH 16 0
BBX 1 1 0 0
BITMAP
00
ENDCHAR
STARTCHAR exclam
ENCODING 33
SWIDTH 137 0
DWIDTH 5 0
BBX 5 31 0 0
BITMAP
072000
0E6000
0F6000
1F6000
2F6000
2F6000
3F6000
4F6000
4F6000
5F6000
5F6000
5F6000
6F6000
6F7000
6F9000
7FB000
7FD000
5FD000
1C7000
000000
000000
000000
000000
000000
000000
000000
000000
000000
000300
002F30
002E20
ENDCHAR
STARTCHAR quotedbl
ENCODING 34
SWIDTH 212 0
DWIDTH 8 0
BBX 6 11 1 18
BITMAP
530000
FB01D2
DC01F5
CD01F5
AE01F5
9F01F5
8F11F5
6F21F5
5F21F5
3F3094
0D1000
ENDCHAR
STARTCHAR numbersign
ENCODING 35
SWIDTH 450 0
DWIDTH 16 0
BBX 16 21 1 3
BITMAP
0000000010000000
00000000D6000000
00000000E8000000
000B7000EB000000
000DE000ED000000
000BF300EF200000
0008F400EFEEA000
0006F505FFB30000
0349FEFEEF500000
0BFFFC207F500000
028CF6007F500393
0006F5007F53AFA0
0006F6007FFFB300
0006F800AFF60000
0006FA3CFFD00000
0006FEE74FC00000
028DFF400CD00000
1FFFFA0008E00000
0663C70005F20000
0000790001900000
0000060000000000
ENDCHAR
STARTCHAR dollar
ENCODING 36
SWIDTH 445 0
DWIDTH 16 0
BBX 15 32 0 -4
BITMAP
00000007A0000000
0000001FA0000000
0000004FA0000000
0000004FA0000000
0000004FA0000000
0000003FDBEA0000
000001BFFFB50000
00003DFFB1000000
0005EEBF90000000
008FC23F90000000
07FC103F90000000
3FF3003F90000000
9F90003FA0000000
CF60003FC0000000
CFC4114FF7400000
2BFFFFFFFFFEA300
0014565CF0027D80
00000009F10006E0
00000007F20009C0
00000006F4005F40
00000004F708F600
00000004FDDE5000
00000006FFD30000
000004CFFF200000
00000FEAFE000000
00000310EF000000
00000000BF200000
000000007F500000
000000003F800000
000000000EB00000
000000000BD00000
0000000006900000
ENDCHAR
STARTCHAR percent
ENCODING 37
SWIDTH 450 0
DWIDTH 16 0
BBX 16 29 0 0
BITMAP
0000000000040000
00000000009F4000
0000000000EF1000
0000000004FB0000
008B920008F60000
0AFBBE100DF10000
3FC009603FC00000
5F8008608F700000
6F600D20BF200000
6F508B00FD000000
3F79F304F9000000
0CFF7007F5000000
0153000BF1000000
0000000EC0000000
0000003F80000000
0000006F4001CD30
0000008F1005FFE1
000000BC0009F9F5
000000E9000AD0E6
000002F5000AB1F5
000004F2000AD8F1
000007D0000AFF90
000009A00007FD10
00000B7000003000
00000E4000000000
00001F1000000000
00003D0000000000
00005A0000000000
0000470000000000
ENDCHAR
STARTCHAR ampersand
ENCODING 38
SWIDTH 356 0
DWIDTH 13 0
BBX 12 16 0 4
BITMAP
0000007B0000
000000BC0000
000000BC0000
000000BB0000
000000BB0000
000000BB029C
003771BB5EF5
06FDFECEFF60
1F404EFFF500
5D0007FF6000
6C003EFF5000
6D02DEAF4000
3F7DD28F4000
0CFA109F4000
001000AF4000
000000AC1000
ENDCHAR
STARTCHAR quotesingle
ENCODING 39
SWIDTH 155 0
DWIDTH 6 0
BBX 3 11 1 12
BITMAP
5600
CF30
BF70
AF80
8F90
6F90
4F80
2F70
1F70
0E70
0550
ENDCHAR
STARTCHAR parenleft
ENCODING 40
SWIDTH 291 0
DWIDTH 11 0
BBX 10 30 0 0
BITMAP
0000000065
00000005F9
0000002EE1
000000CF40
000008F800
00002FC000
0000BF3000
0004F90000
000BF20000
003F900000
009F300000
01EC000000
05F7000000
09F3000000
0DE0000000
1FB0000000
3F80000000
5F70000000
6F60000000
6F60000000
5F60000000
3F80000000
0EB0000000
0AF1000000
05F6000000
00DD000000
005F800000
000AF60000
0001CF9100
000018EE70
ENDCHAR
STARTCHAR parenright
ENCODING 41
SWIDTH 241 0
DWIDTH 9 0
BBX 8 27 0 0
BITMAP
1E500000
1CF60000
01CF4000
001DE100
0004FA00
00009F30
00002F90
00000BE0
000006F3
000002F6
000000E8
000000C9
000000BA
000000AB
000000AB
000000BA
000000C9
000001F8
000005F6
00000AF3
00001EE0
00006FA0
0000BF40
0002FC00
0008F400
000B9000
00070000
ENDCHAR
STARTCHAR asterisk
ENCODING 42
SWIDTH 481 0
DWIDTH 17 0
BBX 17 18 0 2
BITMAP
0000007B0000000000
000000BD0002100000
000000BD000CD10000
000000BD008FB00000
000000BD05FC100000
1EB610BD4FA1000000
05EFE9DFFB158BDE70
0019FFFFFDFFFEB710
00003CFFFEA6300000
169ACEFFFF81000000
5FFFDDFFCCFD500000
04201DFCB06EFB2000
0001CFB9D0018FD000
000BFE27F000025000
008FF405F200000000
00DF4003F400000000
00430001F600000000
00000000A200000000
ENDCHAR
STARTCHAR plus
ENCODING 43
SWIDTH 466 0
DWIDTH 17 0
BBX 17 16 0 4
BITMAP
0000007B0000000000
000000BC0000000000
000000BC0000000000
000000BC0000000000
000000BC0000000000
000000BC0000000000
000000BC00037ADE70
000000BD6AEFFEB710
000001DFFEA6300000
169BCFFF7000000000
5FFC87FF4000000000
052000CF4000000000
000000AF4000000000
0000007F4000000000
0000004F4000000000
0000001D2000000000
ENDCHAR
STARTCHAR comma
ENCODING 44
SWIDTH 112 0
DWIDTH 4 0
BBX 3 9 1 -4
BITMAP
0300
AF50
EFA0
BFA0
9F80
9F50
AF20
AD00
A700
ENDCHAR
STARTCHAR hyphen
ENCODING 45
SWIDTH 399 0
DWIDTH 14 0
BBX 14 6 0 6
BITMAP
000000000048A4
000000028DFFF8
000005BFFFFB62
0359EFFE951000
6FFFD840000000
15520000000000
ENDCHAR
STARTCHAR period
ENCODING 46
SWIDTH 128 0
DWIDTH 5 0
BBX 3 3 1 0
BITMAP
1310
DF80
DE40
ENDCHAR
STARTCHAR slash
ENCODING 47
SWIDTH 306 0
DWIDTH 11 0
BBX 10 29 0 -3
BITMAP
0000000012
00000000CD
00000002F9
00000006F4
0000000BE0
0000001FA0
0000005F50
000000AF10
000000EB00
000004F600
000009F200
00000DC000
00003F7000
00007F3000
0000CD0000
0001F80000
0006F40000
000BE00000
001E900000
005F500000
009F100000
00EB000000
03F6000000
08F1000000
0DC0000000
2F70000000
7F20000000
BD00000000
8800000000
ENDCHAR
STARTCHAR zero
ENCODING 48
SWIDTH 308 0
DWIDTH 11 0
BBX 9 20 1 0
BITMAP
0000430000
002CFFB100
01DD34F900
09E2008F10
1E60001F50
5E00000C80
8B000009A0
AB000007C0
CB000007D0
CB000006E0
BC000005E0
AD000006D0
8E000008C0
5F10000BA0
3F30000E70
0E60004F50
09A000BE10
04F205F900
00BDAFE200
002DFC3000
ENDCHAR
STARTCHAR one
ENCODING 49
SWIDTH 112 0
DWIDTH 4 0
BBX 2 23 1 0
BITMAP
42
C9
C9
C9
CA
CA
CA
CA
DB
DB
DB
DB
DC
DC
DD
DD
CE
CE
AE
9F
8F
7F
4D
ENDCHAR
STARTCHAR two
ENCODING 50
SWIDTH 512 0
DWIDTH 18 0
BBX 18 21 0 0
BITMAP
00000038A300000000
00001AFFFE20000000
0003EFC7CF80000000
003EF8002FC0000000
03EF50000CE0000000
1EE400000BE0000000
1C4000000CE0000000
000000000EB0000000
000000002F90000000
000000006F50000000
00000000AF20000000
00000001FC00000000
00000006F600000000
0000000DE100000000
0000005F9000000000
000000CF3000000463
000005FA00015AEFE6
00000DF327BFFFB610
00007FEDFFD9410000
0000EFEA6200000000
000086100000000000
ENDCHAR
STARTCHAR three
ENCODING 51
SWIDTH 461 0
DWIDTH 17 0
BBX 16 25 0 0
BITMAP
000000148B700000
00005AFFFFF40000
006DFEA65BF60000
1BFF910005F40000
6FD3000009D00000
192000004F600000
00000002EC000000
0000001DF3000000
000000CF70000000
00000AFC45531000
00008FFFFFFFFA20
0006FFFD51027EE2
004FFE70000003FB
00298200000000DE
00000000000000DD
00000000000002FA
00000000000009F4
0000000000005FB0
000000000004EE20
00000000006FF400
0000000019FF5000
00000002CFE40000
0000003EFE300000
000000DFB2000000
000000A800000000
ENDCHAR
STARTCHAR four
ENCODING 52
SWIDTH 503 0
DWIDTH 18 0
BBX 18 28 0 0
BITMAP
00000000001DA00000
00000000009FC00000
0000000002FFC00000
000000000AFFC00000
000000003FFFC00000
00000000BFEFC00000
00000004FF5FC00000
0000000CF91FC00000
0000006FD11FC00000
000001EF301FC00000
000009F7001FC00000
00003FC0001FC00000
0000CF30001FC00000
0007F800001FC02573
003FE100016FFFFFF6
01DF8037CFFFE97630
3CFFCEFEB75FC00000
9FFC9620001FC00000
54100000001FC00000
00000000001FC00000
00000000001FC00000
00000000001FC00000
00000000001FC00000
00000000001FC00000
00000000001FC00000
00000000001FC00000
00000000001FC00000
00000000001E600000
ENDCHAR
STARTCHAR five
ENCODING 53
SWIDTH 478 0
DWIDTH 17 0
BBX 17 25 0 0
BITMAP
000000000000159B40
04D90000159DFFFF50
1EFF559DFEA6310100
4FFFFFD73000000000
4FFFE4000000000000
09FF20000000000000
06FB00000000000000
07F800000000000000
07F700000000000000
08F600018BC6000000
08F6006EFFFF500000
08F607FD627FB00000
08F66F90000ED00000
08FBF600000DD00000
07FF5000000EC00000
05F50000003F900000
0040000000AF400000
0000000003FD000000
000000000CF6000000
000000009FC0000000
00000006FE20000000
0000003FF600000000
000000CF9000000000
000004F90000000000
000004A00000000000
ENDCHAR
STARTCHAR six
ENCODING 54
SWIDTH 375 0
DWIDTH 14 0
BBX 13 30 0 0
BITMAP
00001200000000
0000FC00000000
0003FB00000000
0005F800000000
0008F500000000
000BF100000000
000DD000000000
001FA000000000
004F7000000000
006F4000000000
009F1000000000
00CC0000000000
00E90000000000
02F60000000000
05F40000000000
07F10000000000
0AE000005CEE60
0DC00009FFBFA0
1FA0008FE30B90
2FA003FE200D60
2FA00AF4002F20
1FA03F80007C00
1FA09D1001E700
0EB0E60008E100
0CC5F1002F9000
09FBB000BF2000
05FFB007F80000
00EFE26FC00000
005FFFFD200000
0005DFB2000000
ENDCHAR
STARTCHAR seven
ENCODING 55
SWIDTH 458 0
DWIDTH 16 0
BBX 16 27 0 0
BITMAP
0000000000146881
00000369BEFFFFF4
038BFFFFFFFEEFE1
6FFFDB974200BF90
010000000003FF20
000000000009FB00
00000000000CF600
00000000001FF100
00000000004FA000
00000000007F5000
0000000000AF1000
0000000000DC0000
0000000001F90000
0000000003F50000
0000000006F20000
0000000008F00000
000000000AD00000
000000000CC00000
000000000EC00000
000000000FC00000
000000001FC00000
000000002FD00000
000000002FE00000
000000001FF10000
000000000EF40000
000000000AF80000
0000000003E80000
ENDCHAR
STARTCHAR eight
ENCODING 56
SWIDTH 333 0
DWIDTH 12 0
BBX 11 25 0 0
BITMAP
000006CFE500
0001BFFFFF20
001CD45EFF70
00AE21FFFE90
05F7005637A0
0CF200000990
2FB000000D70
5F8000003F30
4F8000007D00
2FA00000E800
0CE10006F200
03FB001DB000
007FA19F4000
0007FEFD0000
00006FF80000
00000EFB0000
00004FAF4000
00009A05D100
0001E2008900
0007C0001F30
000C80000C80
000F60000B90
000F80004F60
000CFCACFC00
0003CFEC6000
ENDCHAR
STARTCHAR nine
ENCODING 57
SWIDTH 475 0
DWIDTH 17 0
BBX 16 25 0 0
BITMAP
0000000003530000
00000017EFFFE400
000002DFEA78FE20
00003EF91009FF70
0002EE50002FFFA0
000CF50000CFCEB0
007F800008FE2DC0
02ED00005FF50CC0
08F50004FF800BC0
0ED0003EFA000BD0
4F6004EFC0000AE0
7F306FFC100009F0
8FBCFFB1000008F1
3FFFF800000007F2
03651000000006F3
00000000000005F5
00000000000004F6
00000000000004F7
00000000000003F9
00000000000002FA
00000000000002FA
00000000000001FB
00000000000001FB
00000000000001FB
00000000000000D7
ENDCHAR
STARTCHAR colon
ENCODING 58
SWIDTH 120 0
DWIDTH 4 0
BBX 4 12 0 4
BITMAP
0320
1FB0
1C90
0000
0000
0000
0000
0000
0000
0130
09F2
08C0
ENDCHAR
STARTCHAR semicolon
ENCODING 59
SWIDTH 121 0
DWIDTH 4 0
BBX 3 15 1 -4
BITMAP
5800
DF40
1300
0000
0000
0000
0300
AF50
EFA0
BFA0
9F80
9F50
AF20
AD00
A700
ENDCHAR
STARTCHAR less
ENCODING 60
SWIDTH 409 0
DWIDTH 15 0
BBX 14 19 1 4
BITMAP
000000000002C3
00000000002CF4
0000000003EFA0
000000005FFC10
00000008FFB100
000001AFF90000
00002CFE600000
0003EFB2000000
005FF700000000
08FE4000000000
4FF40000000000
1DFC3000000000
02CFF810000000
0019FFD5000000
00004DFFB20000
0000007EFFA500
00000002AFFF90
0000000004DF50
00000000001300
ENDCHAR
STARTCHAR equal
ENCODING 61
SWIDTH 433 0
DWIDTH 16 0
BBX 15 10 0 3
BITMAP
0000000012467600
01468ACEFFFFA200
06FFFFFFD9510000
019A863100000000
0000000000000010
00000000016ADFE0
00000037CFFFFA30
00258DFFB8641000
1EFFEA5100000000
09B5100000000000
ENDCHAR
STARTCHAR greater
ENCODING 62
SWIDTH 450 0
DWIDTH 16 0
BBX 13 20 1 4
BITMAP
08400000000000
3FFA2000000000
0AFFF810000000
003BFFD5000000
00005CFFC30000
0000006DFF9100
000000007EFE60
00000000018FF0
00000000000EE0
00000000005F80
0000000004ED10
000000005EE300
00000008FF4000
000001BFE40000
00004DFE300000
0006FFD3000000
009FFB10000000
09FF8000000000
3FE40000000000
3A100000000000
ENDCHAR
STARTCHAR question
ENCODING 63
SWIDTH 445 0
DWIDTH 16 0
BBX 16 33 0 0
BITMAP
00000037ACDC9400
00049EFFFDDEFF90
05DFFFA400004DF3
6FFFA300000008F4
4A830000000008F2
0000000000000CE0
0000000000004F80
000000000001DE10
00000000000BF600
0000000001BFA000
000000001CFC1000
00000001CFD10000
0000002DFE200000
000001CFE3000000
000009FE30000000
00002FE300000000
00006F9000000000
00008FD000000000
00004FFC54930000
000007FFFFF70000
0000002565200000
0000000000000000
0000000000000000
0000000000000000
0000000000000000
0000000000000000
0000000000000000
0000000000000000
0000000000000000
0000000000000000
0000001300000000
0000009F60000000
0000004E60000000
ENDCHAR
STARTCHAR at
ENCODING 64
SWIDTH 945 0
DWIDTH 34 0
BBX 34 33 0 0
BITMAP
0000000000000000003565300000000000
0000000000000004AEFFFFFD6000000000
00000000000003BFFEA8768DFC20000000
0000000000019FFB400000006FD2000000
00000000002DFB300000000004FC000000
0000000004EF600000000000006F700000
000000005FD3000000000000000CE10000
00000004FD200000000000000006F70000
0000003ED20000016AA600000001FB0000
000001DE2000005EFFFF20000000DF0000
00000AF5000008FD624F50000000AF1000
00005F9000009F91069D300000009F2000
0001DE100008F8002EF5000000009F2000
0007F600005F9000BFF400000000AF1000
001ED00002EC0005FFF500000000BD0000
007F70000BF3001EC4F600000000EA0000
00CF20005F8000AF30C800000003F60000
03FB0000DE1005F7009D0000000BE00000
07F80005F9003EB0006F9000009F500000
0BF5000AF403ED10001DFC879DF6000000
0DF3000CF27FD20000018CDEC930000000
0FF2000BFFFB1000000000000000000000
1FF20003A9400000000000000000000000
0FF3000000000000000000000000000000
0EF5000000000000000000000000005FF3
0BF900000000000000000000000002EFE1
06FE0000000000000000000000005DFA20
01EF70000000000000000000003CFD5000
007FF40000000000000000004AFF910000
000AFE60000000000000016CFFA2000000
00009FFD731000000137BFFE8200000000
000003CFFFFDCCCCEFFFEA500000000000
000000027ACEFFEDB96300000000000000
ENDCHAR
STARTCHAR A
ENCODING 65
SWIDTH 390 0
DWIDTH 14 0
BBX 17 28 1 -1
BITMAP
005F40000000000000
008FD0000000000000
009FF6000000000000
00BFFC000000000000
00DFFF300000000000
00FE5F800000000000
01FD0BD00000000000
03FC05F40000000000
05FA01E90000000000
06F900AE0000000000
08F7006F5000000000
09F6001FA000000000
0BF4000CF100000000
0DF30008F600036500
0EF20005FD49EFFF20
1FF10001FFFFB65A00
2FF00009FF81000000
4FF015DFFF60000000
5FFDFFC78FA0000000
6FFE72001EE0000000
8FC100000AF3000000
9F40000005F7000000
AF10000001FB000000
CF00000000BE000000
DD000000007F300000
FC000000002F700000
11000000000C600000
000000000002000000
ENDCHAR
STARTCHAR B
ENCODING 66
SWIDTH 537 0
DWIDTH 19 0
BBX 19 27 0 0
BITMAP
00000000001100000000
000000028DFFD6000000
040002BFFECCFF000000
1F907FFA4000DE000000
0EFCFB200002FA000000
09FF9000000AF3000000
07FD0000006F80000000
05FA000003FB00000000
02FA00002DD100000000
00FB0001CD2157886200
00DC001CE7BFFDCFFE40
00BF01CFFFB51001BF70
009F6CFFD40000006F40
006FFFFA10000000AC00
004FFFA000000004F400
002FFC000000002E9000
000FF400000001DD1000
000DE00000001DE30000
000AF0000001DF600000
0008F100001DF9000000
0006F40001DFB0000000
0004F6001CFC10000000
0001F900BFD100000000
0000EB07FC1000000000
0000CD06810000000000
0000AC00000000000000
00005500000000000000
ENDCHAR
STARTCHAR C
ENCODING 67
SWIDTH 487 0
DWIDTH 18 0
BBX 17 28 0 -1
BITMAP
000000001320000000
00000008FFF9000000
0000009FD9DF600000
000007FB101CC00000
00002ED10001800000
00009F500000000000
0002FC000000000000
0007F6000000000000
000DE1000000000000
002FA0000000000000
006F60000000000000
00AF20000000000000
00ED00000000000000
03F900000000000000
06F600000000000000
09F300000000000000
0BF000000000001620
0DD000000000007F90
0FB00000000001EF40
1FA00000000008FC00
2FB0000000003FF200
0FC000000001DF6000
0DE00000001CF70000
09F4000002CF700000
03FD20017EE5000000
009FFDCFFC20000000
0007DFFC6000000000
000001100000000000
ENDCHAR
STARTCHAR D
ENCODING 68
SWIDTH 554 0
DWIDTH 20 0
BBX 20 27 0 0
BITMAP
00009000000000000000
0002F200000000000000
0008FDBBBA8631000000
005FFFFEEFFFFFC61000
08FFFC10001369EFD400
2FDBFA0000000016EF30
0407FA00000000003FC0
0006F900000000000AF1
0005F9000000000009F2
0004FA00000000000AE0
0003FA00000000000EA0
0001FA00000000004F50
0000FB0000000000BE00
0000EB0000000004F800
0000DC000000001DE100
0000CD000000009F6000
0000BE00000007FC0000
0000AF0000004FE20000
00009F100002EF600000
00008F10002DF9000000
00007F2001DFC0000000
00005F201CFD10000000
00004F20BFE200000000
00003F2AFE3000000000
0000047FE30000000000
000002FE300000000000
000003E3000000000000
ENDCHAR
STARTCHAR E
ENCODING 69
SWIDTH 474 0
DWIDTH 17 0
BBX 16 27 1 0
BITMAP
0000000000002100
2910000016BED200
BF70004BFFD60000
9FB05CFFD6000000
5FECFFE600000000
3FFFE70000000000
2FF7000000000000
0FD0000000000000
0DE0000000000000
0CE0000000000000
0BF00000004D3000
0AF1000029FB0000
09F20018EF800000
08F306EFB2000000
07F8CFC400000000
07FFE50000000000
07FE200000000000
07FC000000000000
07FC0000000019E6
07FC00000005EFA1
07FC000001AFD400
07FC00004DFA1000
07FC0019FE500000
07FC28EFA1000000
07FFFFD400000000
07FFE70000000000
0286100000000000
ENDCHAR
STARTCHAR F
ENCODING 70
SWIDTH 428 0
DWIDTH 15 0
BBX 14 26 1 0
BITMAP
00000000000002
000000000049EE
BF1000005CFFA2
EF10006DFF9200
EF128EFE820000
EFDFFE81000000
EFFE7100000000
EF810000000000
EF500000000000
DF500000000000
DF600000000000
DF700000000012
CF7000000017E7
CF80000005DF80
BF900003CFB300
BFA002AFE50000
AFA18FF8100000
9FDEFB30000000
8FFE6000000000
7FD20000000000
6FB00000000000
4FB00000000000
2FB00000000000
0FB00000000000
0CB00000000000
07900000000000
ENDCHAR
STARTCHAR G
ENCODING 71
SWIDTH 591 0
DWIDTH 21 0
BBX 21 28 0 -4
BITMAP
0000000000015630000000
00000000019FFFF1000000
000000002CFFC720000000
00000002DE820000000000
0000001DE2000000000000
000000AF60000000000000
000006FA00000000000000
00001ED100000000000000
0000AF5000000000000000
0003FB0000000000145630
000AF300000015ADFFFF60
002FA0000007EFFFFFF400
009F300000044444CFB000
00EC000000000003FF6000
05F600000000000BFF3000
09F200000000005FFF1000
0DD00000000002EFFE0000
1FB0000000001CFEFD0000
3F9000000001CFE4FC0000
3FA00000003DFD21FB0000
2FF5000018FFB102FC0000
09FFEBBCFFF80003FC0000
008EFFFFFB300003FD0000
0001688620000003FE0000
0000000000000002FF0000
0000000000000001FF2000
0000000000000000CF4000
00000000000000006A1000
ENDCHAR
STARTCHAR H
ENCODING 72
SWIDTH 424 0
DWIDTH 15 0
BBX 14 25 1 -1
BITMAP
A80000000B9000
EE0000000DF200
DF00000009F400
DF00000006F600
CF00000003F700
CF10000001F900
BF10000001FA00
BF20000001FB00
AF20000003FD00
AF30000007FE00
9F4000002EFF10
9F500003DFFF20
8F60028FE67F40
8F94AFF9106F50
7FFFFB30005F60
6FFE5000003F80
6FE20000002F90
5F800000001FB0
5F500000000EC0
4F500000000DE0
4F600000000CF0
3F800000000BF1
3FA000000009F1
2F7000000004C0
01000000000000
ENDCHAR
STARTCHAR I
ENCODING 73
SWIDTH 153 0
DWIDTH 6 0
BBX 4 27 1 0
BITMAP
1C70
0FC0
0DD0
0CF0
0BF1
0AF2
0AF3
09F3
09F4
08F4
08F5
08F5
07F5
07F6
07F6
06F6
06F7
06F7
06F7
05F7
05F7
05F7
05F7
04F7
04F7
03F7
01A4
ENDCHAR
STARTCHAR J
ENCODING 74
SWIDTH 371 0
DWIDTH 13 0
BBX 13 29 0 -3
BITMAP
00000000380000
000000007F0000
000000007F3000
000000006F5000
000000006F7000
000000004F9000
000000003FC000
000000001FE000
000000000EF100
000000000CF400
000000000AF600
0000000008F800
0000000006F900
0000000004FB00
0000000002FC00
0000000001FE00
0000000000EF00
0000000000CF10
0000000000BF10
0000000000AF20
20000000009F20
75000000008F30
5C000000008F20
1F600000009F10
09E2000000AE00
01DC100001EA00
002DE6214CE300
00019EFFFD3000
00000134200000
ENDCHAR
STARTCHAR K
ENCODING 75
SWIDTH 524 0
DWIDTH 19 0
BBX 18 25 1 0
BITMAP
220000000000000000
ED0000000000000000
CF3000000004B10000
8F400000005FA00000
5F60000003FE100000
3F8000001DF5000000
1F900000AFA0000000
0FB00004FE10000000
0DD0001DF400000000
0CE0008F9000000000
0BF103FD1000000000
09F30CF30000000000
08F56F800000000000
07F8ED000000000000
06FFF6000000000000
04FFE0000000000000
03FFA0000000000000
02FF70000000000000
00FFFDBAA998888886
00EFFFFFFFFFFFFFF7
00CF11111111111100
009F40000000000000
006F60000000000000
003F70000000000000
000940000000000000
ENDCHAR
STARTCHAR L
ENCODING 76
SWIDTH 537 0
DWIDTH 19 0
BBX 18 23 1 0
BITMAP
682000000000000000
EF7000000000000000
EF8000000000000000
DF9000000000000000
CF9000000000000000
BFA000000000000000
AFA000000000000000
AFB000000000000000
9FB000000000000000
8FC000000000000000
8FC000000000000000
8FD000000000000000
7FD000000000000000
7FE000000000000000
6FE000000000000011
6FF0000000000018EE
6FF00000000029FFE9
5FF10000004BFFA400
5FF200005CFFA20000
5FF2016DFFB3000000
5FF79EFFB400000000
4FFFFFB40000000000
2EEC83000000000000
ENDCHAR
STARTCHAR M
ENCODING 77
SWIDTH 682 0
DWIDTH 25 0
BBX 23 29 1 -1
BITMAP
561000000000000001610000
EFE300000000000009F60000
BFFE2000000000000DF70000
8FFFC000000000003FF90000
6F8CF600000000008EFA0000
4F53FE1000000000D9DB0000
2F609F7000000003F5CC0000
0F602FE100000007E1AD0000
0E8009F70000000CB09E0000
0E9002FE1000002F608F0000
0DA0009F7000007F206F2000
0CC0002FE00000CC005F3000
0CD00009F60002F8004F4000
0BF00002FD0007F3003F5000
0AF100009F700CD0001F7000
0AF300002FE12F80000F8000
0AF400000AF87F20000EA000
0AF6000002FFEC00000CC000
0AF7000000AFF500000BE000
0AF90000002FB000000AF100
0AFB0000000510000008F200
09FC0000000000000007F500
09FD0000000000000006F700
08FE0000000000000005FA00
08FF0000000000000003FD00
07FF1000000000000002FF20
06FF1000000000000001FF60
03ED1000000000000000C710
001000000000000000000000
ENDCHAR
STARTCHAR N
ENCODING 78
SWIDTH 541 0
DWIDTH 19 0
BBX 18 28 1 0
BITMAP
000000000000044000
0000000000000DF100
0000000000000AF600
00000000000007F900
30000000000005FB00
EB100000000003FC00
DFD10000000002FD00
CFFC0000000001FD00
AFFF8000000000EE00
8FFFF400000000EE00
7FCAFE20000000DE00
5FB0BFB0000000CF00
3FB01DF8000000CF00
1FC003FF400000CF10
0FD0006FE10000BF10
0DE00009FB0000BF10
0BF10000CF7000BF20
0AF300001EF400BF20
08F5000003FD10CF30
06F70000006FB0CF30
04F900000009F7DF30
03FB00000001CFFF40
01FE000000002EFF70
00EF0000000004FFC0
00DF2000000000AFF1
00BF20000000009FE1
00CF20000000001410
006C00000000000000
ENDCHAR
STARTCHAR O
ENCODING 79
SWIDTH 382 0
DWIDTH 14 0
BBX 14 25 0 0
BITMAP
00000002300000
000002BFFD5000
00002EFFFFF600
0000CFD526FF30
0006FB10009FA0
000DF100003FD0
005FB000000EF1
00BF6000000CF2
01FF1000000BF4
04FC0000000BF4
08F80000000BF4
0BF40000000CF3
0EF10000000DF2
1FC00000001FF0
3FA00000003FD0
4F700000007FA0
6F60000000AF70
7F60000001EF20
6F70000006FC00
4F8000000DF500
1FC000006FD000
0CF40003FF3000
05FE868EF60000
00BFFFFF600000
0019EEA2000000
ENDCHAR
STARTCHAR P
ENCODING 80
SWIDTH 508 0
DWIDTH 18 0
BBX 18 29 0 0
BITMAP
0002300159BCCA5000
000DE38EFFFFFFFC20
008FFFFB62025AFFD0
02FFFB300000003DF5
0AFFE00000000005F8
1EDFC00000000006F6
005FA0000000000DF2
005F90000000009F90
005F7000000008FD10
005F700000009FE300
006F7000003CFD3000
006F800019FFB10000
006FA017EFE6000000
005FD8EFE810000000
005FFFF92000000000
005FF9200000000000
005FE0000000000000
004FE0000000000000
003FE0000000000000
002FE0000000000000
002FE0000000000000
001FE0000000000000
000FE0000000000000
000EE0000000000000
000CE0000000000000
000BE0000000000000
0009E0000000000000
0007E0000000000000
0005D0000000000000
ENDCHAR
STARTCHAR Q
ENCODING 81
SWIDTH 512 0
DWIDTH 18 0
BBX 17 27 1 0
BITMAP
0001AFB6CFFC400000
000AFFFFCBCFF30000
004FFE710003DD0000
00BFE30000003F5000
02FF500000000CA000
07FC0000000007E000
0BF60000000004F100
0EF10000000002F400
2FC00000000001F600
5F800000000000F700
8F400000000000F700
AF100000000000F800
CD000000000000F800
DC000000188000F700
EC0000002FE100F600
FC0000000AF601F400
EC00000003FC03F300
DD00000000BF47F000
BF000000004FCDC000
8F300000000CFF8000
5F7000000006FF3000
1FB000000004FF3000
0AF300000009FFB000
03FB0000005FAFF400
009FA20018FA07FD00
000AFFCCFFA000CF30
00005BEFC500002700
ENDCHAR
STARTCHAR R
ENCODING 82
SWIDTH 503 0
DWIDTH 18 0
BBX 17 29 1 0
BITMAP
463000000000000000
9FB000016897400000
9FB004BFFFFFFE9100
9FB2BFFD9656AFFD10
9FFFE920000005FF30
9FFB1000000004FD00
9FC0000000001DE300
9F9000000003DE4000
9F800000007FC20000
9F7000003CF8000000
9F500029FC30000000
8F4018EF7000000000
8F47EFB20000000000
8FEFE6000000000000
8FFC20000000000000
8FE300000000000000
8FFF92000000000000
8FEFFF920000000000
8F15CFFF9200000000
8F1004CFFE81000000
8F100004CFFE810000
8F10000004BFFE8200
8F1000000003AFFF90
8F1000000000029FB0
8F1000000000000210
8F1000000000000000
8F1000000000000000
8F1000000000000000
480000000000000000
ENDCHAR
STARTCHAR S
ENCODING 83
SWIDTH 541 0
DWIDTH 19 0
BBX 19 27 0 0
BITMAP
00000000000012000000
0000000005AEFFB00000
00000005DFCDFFB00000
000001AFA20188100000
00003DF6000000000000
0003EE40000000000000
002EF300000000000000
00CF6000000000000000
07F90000000000000000
1EE10000000000000000
5F900000000000000000
8F500000000000000000
8F500000000000000000
5F900000000000000000
0CF60000000000000000
02CFC630000000000000
0005BFFFDBA876410000
000001369BDEFFFFC400
0000000000001359EF40
00000000000000008F80
0000000000000004EF50
00000000000003AFF600
000000000015BFFB2000
000000016AEFFA300000
000017CFFFD710000000
0000BFFC730000000000
00002310000000000000
ENDCHAR
STARTCHAR T
ENCODING 84
SWIDTH 595 0
DWIDTH 21 0
BBX 25 26 0 0
BITMAP
00000000000660000000013460
00000000001FF7579ACDFFFF90
000001468ADFFFFFFFFEC96200
18ACEFFFFFFFFB653210000000
8FFFEB85210AF7000000000000
154200000008F7000000000000
000000000006F7000000000000
000000000004F8000000000000
000000000003F9000000000000
000000000001FB000000000000
000000000000FD000000000000
000000000000DE000000000000
000000000000CF100000000000
000000000000BF300000000000
0000000000009F500000000000
0000000000008F700000000000
0000000000007F900000000000
0000000000005FB00000000000
0000000000003FD00000000000
0000000000002FF00000000000
0000000000000FF20000000000
0000000000000DF40000000000
0000000000000BF50000000000
00000000000009F50000000000
00000000000006F60000000000
00000000000002F70000000000
ENDCHAR
STARTCHAR U
ENCODING 85
SWIDTH 450 0
DWIDTH 16 0
BBX 15 28 1 -5
BITMAP
0000000000003200
350000000000EC00
DF5000000003FF10
DF5000000005FF10
DF5000000008FF00
CF500000000AFF00
CF500000000DFE00
CF500000000FFD00
BF500000003FFC00
AF500000005FFC00
AF500000008FFB00
AF50000000BFFA00
9F50000000EFFA00
9F50000002FEF900
8F50000006FAFA00
8F5000000BF3FA00
7F5000001FC0EB00
5F5000007F60CD00
3F800001ED00BE00
0EE1000AF5009F10
0AFC43AF80008F20
02EFFFF800006F40
0017972000005F50
0000000000003F60
0000000000002F70
0000000000000F70
0000000000000E40
0000000000000100
ENDCHAR
STARTCHAR V
ENCODING 86
SWIDTH 524 0
DWIDTH 19 0
BBX 18 26 0 0
BITMAP
0000000000000000CD
0000000000000001FD
0000000000000005F9
0000000000000008F6
020000000000000CF3
8F8000000000001FE0
3FE100000000004FB0
0BF800000000008F80
04FE1000000000BF50
00CF7000000000FF10
005FD000000004FD00
000DF600000007FA00
0006FD0000000BF700
0001EF5000000EF300
00007FC000003FF000
00001EF400007FC000
000009FC0000AF9000
000002FF4000EF5000
000000AFB002FF2000
0000003FF306FE0000
0000000BFA0AFA0000
00000004FF2DF70000
00000000CFBFF40000
000000005FFFF10000
000000000AFFC00000
00000000006D800000
ENDCHAR
STARTCHAR W
ENCODING 87
SWIDTH 878 0
DWIDTH 32 0
BBX 31 28 0 -1
BITMAP
00000000000000000000000000003800
00000000000000000000000000009F30
0000000000000000000000000000DF10
0000000000000000000000000002FC00
0020000000000002820000000005F800
0AE100000000000AFC0000000009F400
4FF600000000000DFF300000000DF100
0BFB00000000001FFF800000001FC000
03FF10000000006FBFD00000005F8000
00CF5000000000BE3FF20000009F4000
007FA000000001F90DF6000000DF1000
002FE000000005F508FB000001FC0000
000CF40000000AF103FF100005F80000
0008F90000000EB000DF500009F40000
0004FE0000004F60007FA0000CF10000
0001FF3000009F20001FE1001FC00000
0000BF800000EC00000AF5005F800000
00008FD00003F7000003FB008F400000
00004FF30008F3000000CF20CF100000
00001FF7000DD00000005F91FC000000
00000CFC003F900000000CF7F8000000
000008FF209F4000000005FFF5000000
000003FF70EE0000000000CFF3000000
000000DFC4FB00000000004FE0000000
0000008FFCF800000000000A70000000
0000001FFFF300000000000000000000
00000008FF9000000000000000000000
00000001650000000000000000000000
ENDCHAR
STARTCHAR X
ENCODING 88
SWIDTH 461 0
DWIDTH 17 0
BBX 16 26 0 0
BITMAP
0000000000000021
00000000000001E9
00430000000008F3
00ED000000002EA0
00CF50000000AF20
005FC0000003F800
000DF500000CE100
0006FC00005F7000
0000EF4001DE1000
00007FB008F60000
00001EF32FD00000
000008FABF500000
000001EFFC000000
0000008FF4000000
0000009FF3000000
000001EFFB000000
000007FDEF400000
00002EE26FC00000
0000AF600BF40000
0005FB0002FC0000
002EE200009F5000
00BF7000002FD000
07FD0000000AF600
1EF400000003FD00
026000000000CF50
0000000000004E30
ENDCHAR
STARTCHAR Y
ENCODING 89
SWIDTH 483 0
DWIDTH 17 0
BBX 17 28 0 0
BITMAP
000000000000000B50
000000000000001F90
000000000000005F50
000000000000009F10
00000000000000EB00
7B000000000003F700
4F900000000008F300
0CF6000000000DD000
03FE300000003F9000
008FD10000009F5000
000CFA000000EF1000
0002EF800005FB0000
00004FF6000AF60000
000006FF501FF10000
0000007FF67FA00000
00000009FFFF400000
00000000AFFE000000
000000000FF8000000
000000000FF3000000
000000003FD0000000
000000007F80000000
00000000CF30000000
00000002FD00000000
00000007F800000000
0000000CF300000000
0000001FD000000000
0000003F9000000000
0000002E4000000000
ENDCHAR
STARTCHAR Z
ENCODING 90
SWIDTH 670 0
DWIDTH 24 0
BBX 24 25 0 0
BITMAP
058888888888877777760000
09FFFFFFFFFFFFFFFFFE0000
0010000001122456BFFB0000
0000000000000001DFD10000
000000000000000BFE300000
000000000000008FF5000000
00000000000004FF80000000
0000000000002EFB00000000
000000000000CFD100000000
000000000009FE3000000000
00000000006FF50000000000
0000000003FF800000000000
000000001DFB000000000000
00000000BFD1000000000000
00000008FE30000000000000
0000005FF500000000000000
000002EF8000000000000000
00001CFB0000000000000000
0000AFD10000000000000000
0006FE300000000000000000
003FF5000000000000000000
01DF90000000000000000010
0BFFAAAAAAAAAAAAABCCEFF3
2FFFFFFFFFFFFFFFFFFFFFF3
0CFEDCBAAA99988877654310
ENDCHAR
STARTCHAR bracketleft
ENCODING 91
SWIDTH 470 0
DWIDTH 17 0
BBX 16 45 0 -4
BITMAP
0000000000001110
0A9AABCCDEEFFE30
2FFDCCCBBA864000
1FF2000000000000
0FF1000000000000
0EF1000000000000
0CF1000000000000
0BF1000000000000
0AF2000000000000
08F3000000000000
07F3000000000000
06F4000000000000
04F5000000000000
03F6000000000000
02F8000000000000
00F9000000000000
00EA000000000000
00DC000000000000
00CD000000000000
00AF000000000000
009F100000000000
008F300000000000
006F400000000000
005F600000000000
004F800000000000
002F900000000000
001FA00000000000
000FB00000000000
000DC00000000000
000CD00000000000
000BE00000000000
0009F00000000000
0008F00000000000
0007F10000000000
0006F10000000000
0006F20000000000
0006F30000000000
0006F30000000000
0006F40000000000
0006F50000000000
0006F6000000048B
0006FA01258BEFFC
0006FFFFFFFD9410
0004FFFEA6200000
0000773000000000
ENDCHAR
STARTCHAR backslash
ENCODING 92
SWIDTH 554 0
DWIDTH 20 0
BBX 20 37 0 0
BITMAP
05000000000000000000
5FA00000000000000000
3FF30000000000000000
08FA0000000000000000
00DF2000000000000000
004FA000000000000000
0009F200000000000000
0001F900000000000000
00009F20000000000000
00003F90000000000000
00000BF2000000000000
000004F9000000000000
000000CF100000000000
0000005F800000000000
0000000DE10000000000
00000007F80000000000
00000001EE1000000000
000000008F7000000000
000000001FE100000000
0000000009F700000000
0000000003FE10000000
0000000000BF70000000
00000000004FE0000000
00000000000CF6000000
000000000005FD000000
000000000000DF600000
0000000000007FD00000
0000000000001EF60000
00000000000008FD0000
00000000000002FF5000
000000000000009FD000
000000000000003FF500
000000000000000BFC00
0000000000000004FF50
0000000000000000CFC0
00000000000000005FF4
00000000000000000DF4
ENDCHAR
STARTCHAR bracketright
ENCODING 93
SWIDTH 512 0
DWIDTH 18 0
BBX 18 47 0 -4
BITMAP
000000000123444300
279BCCDDEFFFFFFF30
EFFFFFFDB9879EFF20
47765310000007FF00
00000000000007FE00
00000000000007FC00
00000000000007FC00
00000000000007FB00
00000000000006FB00
00000000000006FB00
00000000000006FA00
00000000000006FA00
00000000000006FB00
00000000000005FB00
00000000000004FB00
00000000000004FB00
00000000000003FC00
00000000000002FC00
00000000000001FD00
00000000000001FE00
00000000000000FE00
00000000000000EF00
00000000000000DF00
00000000000000DF10
00000000000000CF20
00000000000000BF30
00000000000000AF40
000000000000009F40
000000000000008F50
000000000000007F60
000000000000007F70
000000000000006F80
000000000000005F90
000000000000004FA0
000000000000004FB0
000000000000003FC0
000000000000002FD0
000000000000002FE0
000000000000002FF0
000000000000002FF1
000000000000002FF3
000000000000001FF4
000000000000002FF6
00000000000015BFF7
00000000048CFFFFF6
00000007EFFFFEB830
000000028874200000
ENDCHAR
STARTCHAR asciicircum
ENCODING 94
SWIDTH 390 0
DWIDTH 14 0
BBX 13 11 1 23
BITMAP
00002710000000
0000CFA0000000
0005FEF8000000
000DE18F600000
006F600BF40000
01EC0001DE3000
07F400003ED100
1EA0000005FD40
8F200000008F60
E8000000000400
10000000000000
ENDCHAR
STARTCHAR underscore
ENCODING 95
SWIDTH 612 0
DWIDTH 22 0
BBX 22 7 0 0
BITMAP
0000000000000000000340
00000000000000158CFFF2
0000000000269DFFFFFFC1
00000026AEFFFFFFDA6300
00159DFFFFFDA741000000
4CFFFFFC85200000000000
3DEB740000000000000000
ENDCHAR
STARTCHAR grave
ENCODING 96
SWIDTH 155 0
DWIDTH 6 0
BBX 5 6 0 21
BITMAP
160000
5F7000
2FF400
08FD10
00AF50
000810
ENDCHAR
STARTCHAR a
ENCODING 97
SWIDTH 366 0
DWIDTH 13 0
BBX 13 20 0 0
BITMAP
00000002661000
0000007FFFD000
000006FFFFF300
00004FFA2FF200
0000DFB00FF100
0007FE202FF100
001EF7005FF200
007FD0009FF300
00DF7001EFF400
05FE1008FFF600
0BF7002EF7F800
1FF200AF91FA00
5FA003FF20EC00
AF500CF800CE00
DE007FE100AF10
EC03FF50008F20
DE4DFA00007F30
AFFFD100005F40
4FFD2000003F40
04610000000710
ENDCHAR
STARTCHAR b
ENCODING 98
SWIDTH 442 0
DWIDTH 16 0
BBX 14 31 1 0
BITMAP
01100000000000
4FE10000000000
4FF10000000000
4FF10000000000
4FF00000000000
4FE00000000000
4FD00000000000
4FC00000000000
4FB00000000000
4FB00000000000
5FA00000000000
5F900000000000
5F800001466200
6F80006EFFFF60
6F8009FFFEFFE1
6F70AFE6103EF5
7F79FC200006F8
7FCFD1000002FA
7FFF30000001FA
8FF600000004FA
8FC000000009F7
9F500000002EF4
9F20000000AFD0
9F10000007FF50
AF1000006FF900
AF100009FFA000
AF0004DFF90000
AF02AFFE500000
9F9FFFB2000000
9FFFD500000000
7DB60000000000
ENDCHAR
STARTCHAR c
ENCODING 99
SWIDTH 390 0
DWIDTH 14 0
BBX 13 22 0 0
BITMAP
00000131000000
00008FFE200000
0009FEBF900000
003FF33FC00000
00AFA00FE00000
00EF300AF00000
03FE0003F00000
06F90000200000
09F60000000000
0AF30000000000
0CF00000000000
0ED00000000000
0FB00000000000
1FA000000005A0
1FA00000000DC0
0FA00000004FB0
0CC00000009F80
09F1000001EF30
05F7000008FA00
00DF50007FD100
004FFCCEFC2000
0004CEEB600000
ENDCHAR
STARTCHAR d
ENCODING 100
SWIDTH 316 0
DWIDTH 11 0
BBX 11 35 0 -3
BITMAP
000000006600
00000003FD00
00000002FD00
00000001FC00
00000000FC00
00000000EC00
00000000DC00
00000000CC00
00000000BC00
00000000AC00
000000009C00
000000008D00
000000008D00
00001687BD00
0006EFFFFD00
005FFD79FD00
01EFC101FD00
07FF2000DD00
0CF80000DE00
1FF20000DE00
4FB00000EE00
6F700001FE00
8F400004FF00
9F100008FF00
9E00000DFF00
AD00003FEF00
AD00009F8F00
AE0002FA6F00
9F300BE25F10
9FB2AF605F10
3FFFF7005F10
05A930005F10
000000005F10
000000004F10
000000003E00
ENDCHAR
STARTCHAR e
ENCODING 101
SWIDTH 461 0
DWIDTH 17 0
BBX 17 20 -1 0
BITMAP
000000000100000000
00000019EFE8100000
000002DFFEFFC10000
00000BFE402CF90000
00004FF40009FD0000
0000CF80007FF60000
0003FE102AFE400000
000AFA39FF91000000
002FFFFFB300000000
009FFFD50000000000
05FFF7000000000530
3FFFE0000000006FB0
178FB000000003FF60
001FA00000000CFC00
000FA00000009FE200
000FA0000007FE3000
000DB000006FE30000
0009E3002AFC200000
0002EFCDFF90000000
00004CFEA300000000
ENDCHAR
STARTCHAR f
ENCODING 102
SWIDTH 345 0
DWIDTH 12 0
BBX 12 33 0 0
BITMAP
000000100000
000009FE6000
00003FFFF500
00009FE9FC00
0000DF809F10
0001FF402F30
0003FF200500
0005FF000000
0007FD000000
0007FB000000
0008FA000000
0009F9000000
000AF8000000
000AF7000000
000AF6000048
000AF5017DFD
0009F68EFFF5
0009FFFFFB40
008FFC741000
1CFFF5000000
2C86F6000000
0004F7000000
0004F9000000
0003FA000000
0003FC000000
0002FE000000
0001FF000000
0000FF200000
0000EF300000
0000DF300000
0000CF300000
0000BF300000
00008E100000
ENDCHAR
STARTCHAR g
ENCODING 103
SWIDTH 437 0
DWIDTH 16 0
BBX 15 36 0 -16
BITMAP
0000000059B92000
0000002CFFFFE200
000002DFB5BFF400
00001DF600AFF600
0000AF6002FFF700
0005FA0008FCF800
000DE1001ECAFA00
006F70007F6AFB00
00DE1000DF19FC00
04F80005FA08FD00
09F3000DF307FF00
0ED0006FB006FF10
2F9001DF4005FF20
5F7008FB0004FF30
6F604FF30003FF40
4FD8EF800002FF50
0DFFFB000001FF60
03DFA1000001FF70
000000000000FF80
000000000000FF80
000000000000FF80
000000000000FF60
000000000001FF50
000000000002FF20
000000000004FE00
000000000006FB00
000000000009F700
00000000000DF200
00000000003FC000
0000000000BF5000
0000000005FD0000
000000004EF50000
00000006EFA00000
000369DFFB000000
001BFFFE80000000
0000144100000000
ENDCHAR
STARTCHAR h
ENCODING 104
SWIDTH 466 0
DWIDTH 17 0
BBX 15 28 1 -1
BITMAP
5500000000000000
CF00000000000000
CF00000000000000
CF10000000000000
CF10000000000000
CF10000000000000
CF20000000000000
CF20000000000000
CF20000000000000
CF30000015897200
CF300006EFFFFE10
CF40007FFFC7CF70
CF4003FFF8007F90
CF400CFF80006FA0
CF504FFB00006FA0
CF50AFF200005FA0
CF51FF8000005FB0
CF66FE1000005FB0
CF6BF80000004FC0
CF7FE10000004FC0
CFDF900000003FC0
CFFF200000003FD0
CFF9000000003FD0
CFF2000000002FE0
CFA0000000002FE0
CF20000000001FE0
5400000000001FD0
0000000000000420
ENDCHAR
STARTCHAR i
ENCODING 105
SWIDTH 132 0
DWIDTH 5 0
BBX 4 28 0 -1
BITMAP
1830
4F90
0730
0000
0000
0000
0360
09F4
0BF4
0CF4
0CF4
0DF4
0DF4
0CF4
0CF3
0CF3
0CF3
0BF3
0BF3
0AF3
0AF3
09F3
09F3
09F3
08F3
08F4
07F4
0130
ENDCHAR
STARTCHAR j
ENCODING 106
SWIDTH 112 0
DWIDTH 4 0
BBX 11 42 -7 -13
BITMAP
000000005900
00000000CA00
000000000000
000000000000
000000000000
000000000000
000000000000
000000000000
000000000000
000000000000
000000005500
00000000EC00
00000000FC00
00000001FC00
00000001FC00
00000000FC00
00000000FD00
00000000ED00
00000000EE00
00000000DF00
00000000CF10
00000000BF20
00000000AF30
000000009F50
000000008F60
000000007F70
000000005F80
000000004F90
000000004FA0
000000003FA0
000000002FB0
000000001FB0
000000001FC0
000000002FB0
000000004F90
010000006F70
2E500000AF30
0CF50001FE00
02DF700AF900
001AFBCFF200
00003BFF6000
000000110000
ENDCHAR
STARTCHAR k
ENCODING 107
SWIDTH 428 0
DWIDTH 15 0
BBX 15 30 0 -2
BITMAP
0063000000000000
01FB000000000000
02FE000000000000
02FF000000000000
03FF000000000000
03FF000000000000
04FF000000000200
05FE000000007F80
05FD00000004FF60
06FC0000001DFD00
06FB0000009FF500
07FA000004FFC000
07F900001DFF3000
08F800009FF80000
08F80004FFD00000
09F7001DFF300000
09F600AFF5000000
0AF607FF80000000
0BF76FFA00000000
0BFCFFA000000000
0CFFF80000000000
0CFFA00000000000
0DFFF81000000000
0DFBFFE930000000
0EF117DFFD951000
0EF00004AFFFFE40
0FD00000017DFF30
0FA0000000004700
1F50000000000000
0300000000000000
ENDCHAR
STARTCHAR l
ENCODING 108
SWIDTH 137 0
DWIDTH 5 0
BBX 4 31 0 0
BITMAP
1840
2F90
0EB0
0CC0
0BD0
09E0
08F1
07F2
06F3
05F4
04F5
03F5
02F6
02F7
01F8
01F8
00F9
00F9
00FA
00EA
00EA
00EB
00EB
00FC
00FC
00FD
01FD
02FE
04FE
03FE
0023
ENDCHAR
STARTCHAR m
ENCODING 109
SWIDTH 579 0
DWIDTH 21 0
BBX 19 22 1 0
BITMAP
79000000000000000000
DF100000000000000000
BF300000000000000000
AF400000000001310000
8F50024200000CFE3000
7F502FFF40006FFF9000
6F609FFFA000CFFFE000
5F60DFFFE004FE9FF200
4F72FFAFF20AF70EF300
4F75FC0CF41EE10CF500
3F78F707F65FA00AF600
2F8AF304F8BF5008F600
2F9DE001FDFE1007F600
1FAFB000CFFA0006F700
1FEF70009FF60006F700
0FFF40007FF20005F800
0FFF10004FD00004FA00
0EFD00001B700004FD00
0DFA000000000001FF40
0DF7000000000000BFB0
0CF40000000000002A50
09910000000000000000
ENDCHAR
STARTCHAR n
ENCODING 110
SWIDTH 483 0
DWIDTH 17 0
BBX 16 21 1 0
BITMAP
7500000017DC2000
EB000002DFFFD000
DE00001DFFCEF600
CF10009FF402EC00
BF3002FF70009F10
AF5008FE00008F40
9F700DF700007F70
8F902FF100006F90
7FA06FB000005FB0
6FC09F6000004FC0
5FE0CF1000003FD0
4FF1FB0000002FE0
3FF6F70000001FE0
2FFCF30000000FF0
1FFFE00000000FF0
0FFFA00000000EF0
0EFF700000000DF0
0DFF400000000CF1
0BFF100000000BF1
0AFD000000000AE1
08D6000000000110
ENDCHAR
STARTCHAR o
ENCODING 111
SWIDTH 266 0
DWIDTH 10 0
BBX 9 20 0 0
BITMAP
0018C80000
009FFFA000
00DFDDF600
02FB007E10
05F4001F70
09F0000EA0
0BD0000CD0
0EC0000CE0
1FA0000CE0
3FA0000DE0
4FA0000EE0
5FA0001FD0
5FA0004FB0
4FA0007F80
3FA000CF40
2FA002FE00
1FC00AF700
0FF5AFD000
0BFFFD2000
03DD810000
ENDCHAR
STARTCHAR p
ENCODING 112
SWIDTH 482 0
DWIDTH 17 0
BBX 17 29 0 -10
BITMAP
0A7000000000000000
1FF0000017BDEC9200
0FF00019FFDA89EE30
0FD006EF9300005FA0
0FC1BFB20000008FA0
0EEEF700000000DF50
0EFF6000000007FC00
0DF9000000003FF300
0CF300000003EF5000
0CE00000005EF70000
0BF0000008FF600000
0BF10003DFF5000000
0AF3018FFD30000000
09F44DFFB100000000
09FCFFF80000000000
09FFFD300000000000
09FF81000000000000
09F500000000000000
08F300000000000000
08F200000000000000
08F200000000000000
08F100000000000000
09F000000000000000
0AF000000000000000
0AE000000000000000
0BD000000000000000
0DD000000000000000
0EC000000000000000
0A8000000000000000
ENDCHAR
STARTCHAR q
ENCODING 113
SWIDTH 408 0
DWIDTH 15 0
BBX 16 27 0 -10
BITMAP
0000000389600000
0000009FFFF80000
00001BFD51CD0000
0000AFA000DF1000
0006FB0000EF3000
001ED10002FF5000
008F500005FF7000
01EC000009FF9000
06F600000ECFB000
0BF100004F6FD000
1FC00000AF3CF000
3F900003FD0AF200
3F80001CF608F400
2FB202BFA006F600
0AFFFFF80004F800
007996200002FA00
000000000001FD00
000000000000EF00
000000000000CF20
000000000000AF40
0000000000008F60
0000000000006F80
0000000000004FA0
0000000000002FC0
0000000000001FE0
0000000000000DF1
0000000000000AD3
ENDCHAR
STARTCHAR r
ENCODING 114
SWIDTH 396 0
DWIDTH 14 0
BBX 13 19 1 0
BITMAP
00000000243200
B800005DFFFF40
FD0007FFFDCA20
DF003FFA100000
BF109FB0000000
8F30EF40000000
6F52FE00000000
4F75FB00000000
1F96F900000000
0EB7F700000000
0CD8F600000000
09F8F400000000
07FCF400000000
05FFF300000000
02FFF200000000
00FFF100000000
00DFE000000000
00BFC000000000
004C8000000000
ENDCHAR
STARTCHAR s
ENCODING 115
SWIDTH 366 0
DWIDTH 13 0
BBX 13 20 0 -1
BITMAP
00000000120000
0000029DFFB000
00008FEABF8000
000AFA10010000
008FB000000000
03FE1000000000
09F60000000000
0EF10000000000
1FC00000000000
1FB00015AEE700
0EFB9BEFFFFF50
08FFFFC7449FA0
00587200004FA0
0000000001CF40
000000001CFA00
00000003DFC100
0000005EFC1000
00001AFFB10000
0003EFF9000000
0002CA30000000
ENDCHAR
STARTCHAR t
ENCODING 116
SWIDTH 268 0
DWIDTH 10 0
BBX 12 29 -2 -1
BITMAP
000034100000
0000AF500000
0000AF400000
0000BF300000
0000BF200000
0000BF100000
0000CF000000
0000CF000001
0000CF126AEB
0000DFDFFFF9
002AFFFFE820
18FFFFC60000
3FFFFE000000
0DB5FF000000
0001FF000000
0000FF100000
0000EF200000
0000DF200000
0000CF300000
0000BF300000
0000BF400000
0000AF500000
00009F500000
00008F600000
00007F700000
00006F700000
00005F800000
00004F800000
00001A400000
ENDCHAR
STARTCHAR u
ENCODING 117
SWIDTH 387 0
DWIDTH 14 0
BBX 12 19 1 -1
BITMAP
450000001310
CF0000005FA0
BF0000005FA0
BF1000005FA0
BF1000005F90
BF2000006F90
BF3000007F90
AF4000008F90
9F5000009F80
9F600000BF80
8F600002FF90
7F700008FFA0
5F80001EFFB0
3FA0009FFFC0
0FD004FF8DE0
0BF24EFB0AF2
04FFFFC108F6
00AFF90005FA
000430000097
ENDCHAR
STARTCHAR v
ENCODING 118
SWIDTH 354 0
DWIDTH 13 0
BBX 12 20 0 0
BITMAP
000000000252
0000000008FB
0000000007FB
0000000007FB
1400000007FB
8F90000008FB
2FF4000008FB
0AFC000009FA
02FF600009F9
009FD1000AF8
001EF7000BF8
0007FE100BF7
0000DF900CF6
00005FF40DF5
00000BFD1EF4
000002EFDFF3
0000007FFFF3
0000000CFFF3
00000002EFF3
000000004EC2
ENDCHAR
STARTCHAR w
ENCODING 119
SWIDTH 566 0
DWIDTH 20 0
BBX 19 19 1 0
BITMAP
00000003600000013000
B800000DF5000003F600
EF10002FFD100003FA00
9F70003FFF800003FB00
3FD0005F9DF20003FA00
0CF4007F85FA0003FA00
07FA008F80BF4003FA00
01FF10AF702FD003FB00
00AF60BF6008F703FB00
005FC0DF5001DE13FC00
000EF3EF40005F93FD00
0008FAFF30000BF6FD00
0003FFFF200003FEFE00
0000CFFF1000009FFE00
00007FFF0000001EFF00
00001FFE00000006FF10
00000AFD000000009E10
000005FC000000000000
00000099000000000000
ENDCHAR
STARTCHAR x
ENCODING 120
SWIDTH 454 0
DWIDTH 16 0
BBX 16 25 0 -3
BITMAP
000000006B500000
00000000AF900000
00000000BFA00000
00000000CF800000
00000000DF600000
2A800000EF300000
4FF70000FF000000
0BFE2002FC000000
01DFB003F9000000
002DFA05F6000000
0002DFCBF4000000
00001CFFF3000000
000001CFF5000000
000000AFFF400000
000000DFFFF40000
000002FF4AFE4000
000005FC007FE400
000009F80006FE40
00000CF500006FE3
00001FF2000006F9
00005FD000000063
00008FA000000000
0000CF6000000000
0000DF3000000000
0000580000000000
ENDCHAR
STARTCHAR y
ENCODING 121
SWIDTH 363 0
DWIDTH 13 0
BBX 13 33 0 -14
BITMAP
00000000002A20
00000000004F50
05200000005F50
2FE10000006F50
1EF80000007F50
06FF2000008F40
00CFA000009F40
003FF40000AF40
0008FC0000BF30
0001DF6000CF30
00004FE200CF30
00000AFB00DF20
000001EF70EF20
0000006FF6FF10
0000000CFFFF10
00000003FFFF00
000000008FFE00
000000001DFD00
0000000004FC00
0000000001FB00
0000000003FA00
0000000004F900
0000000005F800
0000000006F700
0000000007F500
0000000009F400
000000000AF300
000000000BF200
000000000CF100
000000000DE000
000000000ED000
000000001FC000
00000000175000
ENDCHAR
STARTCHAR z
ENCODING 122
SWIDTH 618 0
DWIDTH 22 0
BBX 22 19 1 -1
BITMAP
00000000049EE200000000
00000027DFFFF400000000
00016BFFFAAFF200000000
68BFFFC710BFC000000000
CFFD830003FF6000000000
162000000AFE0000000000
000000002FF60000000000
00000000AFB00000000000
00000002FF300000000000
00000009F8000000000000
0000001FE1000000000000
0000007F70000000000000
000000DE10000000000000
000005FA00000000258BD6
00000AF7000158BEFFFFFF
00000EF97ADFFFFFFFCA73
00003FFFFFFFEB85300000
00005FFDA7410000000000
0000231000000000000000
ENDCHAR
STARTCHAR braceleft
ENCODING 123
SWIDTH 348 0
DWIDTH 13 0
BBX 13 34 0 -3
BITMAP
00000047861000
00003DFFEEF810
0003EFB3007F50
000CFA00000400
002FE100000000
004FA000000000
004F8000000000
001FA000000000
000AE200000000
0003FA00000000
00009F50000000
00002FD0000000
00005FF2000000
1CFEFD60000000
1EFD4000000000
03CE2000000000
001DC100000000
0004FA00000000
0000EF40000000
0BFFFF30000000
5FFFB300000000
7FF60000000000
9F700000000000
9F100000000000
9F100000000000
9F200000000000
7F400000000000
4F800000000000
1EE20000000000
09FC1000000000
02EFD400000000
004FFFB4000000
0004DFFFD60000
000006ADF70000
ENDCHAR
STARTCHAR bar
ENCODING 124
SWIDTH 137 0
DWIDTH 5 0
BBX 4 31 0 0
BITMAP
1840
2F90
0EB0
0CC0
0BD0
09E0
08F1
07F2
06F3
05F4
04F5
03F5
02F6
02F7
01F8
01F8
00F9
00F9
00FA
00EA
00EA
00EB
00EB
00FC
00FC
00FD
01FD
02FE
04FE
03FE
0023
ENDCHAR
STARTCHAR braceright
ENCODING 125
SWIDTH 348 0
DWIDTH 13 0
BBX 13 34 -1 -4
BITMAP
005ACB81000000
1BF99DFE400000
1E40009FE20000
0000000AF90000
00000002FD0000
00000000DE0000
00000000CD0000
00000000FA0000
00000006F40000
0000001DC00000
0000009F300000
000002FD000000
000003FF622000
0000004BFFF900
000000003FF700
000000007F6000
00000003F60000
0000002ED00000
0000008FB22000
0000004FFFF700
00000002BFFD00
0000000008FF00
0000000000BF10
00000000007F20
00000000007F20
00000000008F20
0000000000AF00
0000000000EC00
0000000006F800
000000004FF200
00000008FF9000
000017DFFD1000
0006EFFFB10000
0006EC93000000
ENDCHAR
STARTCHAR asciitilde
ENCODING 126
SWIDTH 458 0
DWIDTH 17 0
BBX 14 7 1 19
BITMAP
0049A950000011
08FFEFF60006FB
4FF308FC002EFA
9F8001EF61CFE2
7D10005FFFFE30
00000006EFB200
00000000010000
ENDCHAR
STARTCHAR nonbreakingspace
ENCODING 160
SWIDTH 450 0
DWIDTH 16 0
BBX 1 1 0 0
BITMAP
00
ENDCHAR
STARTCHAR exclamdown
ENCODING 161
SWIDTH 137 0
DWIDTH 5 0
BBX 5 24 0 -6
BITMAP
001E10
001A00
000000
000000
000000
000000
000000
000000
000000
076000
0FE000
2FD000
1FA000
1F9000
0F8000
0F8000
0F8000
0E8000
0E8000
0D8000
0C8000
0B8000
0A8000
042000
ENDCHAR
STARTCHAR cent
ENCODING 162
SWIDTH 394 0
DWIDTH 14 0
BBX 13 29 0 -3
BITMAP
00000020000000
000009F2000000
000007F3000000
000005F4000000
000003F6000000
00008FFD400000
0009FEFFF80000
003FF3DBFF8000
009F90C86FF100
00EF30B907D000
03FE00AA000000
07F9009A000000
09F6008B000000
0BF3007B000000
0CF0006C000000
0DD0005C000000
0FB0005D000000
1FA0005D0005A0
1FA0004D000EC0
0FA0004E004FB0
0CC0004E009F80
09F1004E01EF30
05F7004F08FA00
00DF504F6FD100
004FFCCFFC2000
0004CFFF700000
0000007F400000
0000008F600000
00000034000000
ENDCHAR
STARTCHAR sterling
ENCODING 163
SWIDTH 539 0
DWIDTH 19 0
BBX 19 25 0 -1
BITMAP
000000000005ADEA1000
0000000003CFFEEFC000
000000004EF93009F400
00000003EE4000009500
0000001DF40000000000
0000008F700000000000
000001ED000000000000
000007F6000000000000
00000CF2346760000000
1468AFFFFFE910000000
8FFFFFFC941000000000
2997AF60000000000000
0000AF30000000000000
0000DF10000000000000
0000EE00000000000000
0001FC00000000000000
0002FB00000000000000
0003FB00000000000000
0004FA00000000000000
0004F900001343100000
0004F80029FFFFFB5000
0004F907FFFDBBEFFE40
0002FEDFC720000AFC20
0000DFC5000000012000
00003600000000000000
ENDCHAR
STARTCHAR currency
ENCODING 164
SWIDTH 500 0
DWIDTH 18 0
BBX 15 21 1 3
BITMAP
0000000000008500
000000000003FF30
000760000009FE00
000FF504621EF800
000CFACFFFBFE100
0007FFFFEFFF6000
0002FFC209FC0000
0001EE1001EC0000
0004F80000BE0000
0006F50000AF0000
0007F500009F1000
0005F600009F1000
0003F70000BF1000
0000F90003FF0000
0005FD000CFD0000
001EFF61AFF80000
00BFCEFFFFF70000
06FF25FFFBFD0000
2EF7003420AF5000
9FC00000004F4000
6F30000000030000
ENDCHAR
STARTCHAR yen
ENCODING 165
SWIDTH 478 0
DWIDTH 17 0
BBX 15 29 1 0
BITMAP
001100000004DC20
00AE5000000DFF30
007FE100005FFB00
002FF70000CFF300
000BFE0004FF9000
0005FF600AFE1000
0000EFD02FF50000
00008FF78FC00000
00002FFEEF400000
00000AFFFC000000
000003FFF7000000
000000AFF2000000
0000003FE0000000
0000000FC0000000
0000000FC0000000
0000024FEABDEF10
04BDFFFFFFFFFA00
05FFFFFFFDB73000
0023434FC0000000
0000002FC2320000
03468ADFFFFFF300
2FFFFEDFD7675000
0233103FC0000000
0000003FB0000000
0000004FB0000000
0000004FB0000000
0000004FB0000000
0000005FA0000000
0000003740000000
ENDCHAR
STARTCHAR brokenbar
ENCODING 166
SWIDTH 137 0
DWIDTH 5 0
BBX 4 31 0 0
BITMAP
1840
2F90
0EB0
0DC0
0BD0
0AE0
08F1
07F2
06F3
05F4
04F5
03F5
0141
0000
0084
00E9
00EA
00DA
00DB
00DB
00CC
00CC
00DD
00DD
00ED
00FD
01FE
02FE
04FE
03FE
0023
ENDCHAR
STARTCHAR section
ENCODING 167
SWIDTH 366 0
DWIDTH 13 0
BBX 13 28 0 -1
BITMAP
00000048AA4000
00005DFFFF7000
0008FD51460000
008FC100000000
04FD1000000000
0CF50000000000
2FD00000000000
5F800000000000
6F600001697100
5FB446BFFFFC00
1FFFFFFDBDFF40
05DFFA2000EF70
008FB00002FF30
03FE10000AF900
0AF700007FC100
0EF10007FD1000
1FB0007FD20000
1FB02BFFCEE700
0EFDFFFFFFFF50
08FFFFC7449FA0
00587200004FA0
0000000001CF40
000000001CFA00
00000003DFC100
0000005EFC1000
00001AFFB10000
0003EFF9000000
0002CA30000000
ENDCHAR
STARTCHAR dieresis
ENCODING 168
SWIDTH 306 0
DWIDTH 11 0
BBX 8 3 2 24
BITMAP
4C9008C5
BFB02FF6
26100550
ENDCHAR
STARTCHAR copyright
ENCODING 169
SWIDTH 485 0
DWIDTH 17 0
BBX 17 25 0 0
BITMAP
000000000231000000
00000006DFFFA20000
000001BFFECEFE3000
00000BFE60019FD100
00008FD200000BF900
0003FE30000003FE10
000BF503AC7000DF60
003FB06FEEF3009F90
009F41EF29F7007FC0
00EC07F901C8005FE0
05F70BF40000004FE0
09F20DF10000005FE0
0CE00FD00000005FC0
0FB02FD0000006BFA0
2F801FC000007FFF60
4F700ED00003FFFF20
6F600AF3003EFFFB00
7F6004FE8AFFBEF400
6F70006FFFD69FB000
4F8000013205FE2000
1FC00000004EF50000
0CF5000017FF700000
05FF9669EFF5000000
00BFFFFFFB20000000
0019EFD94000000000
ENDCHAR
STARTCHAR ordfeminine
ENCODING 170
SWIDTH 227 0
DWIDTH 8 0
BBX 8 10 0 5
BITMAP
00002410
0007FF90
007E3A90
03F50C90
0BA04FB0
4F21DAD0
A909B0E1
E36E20C3
DAE400A4
5A300063
ENDCHAR
STARTCHAR guillemotleft
ENCODING 171
SWIDTH 652 0
DWIDTH 23 0
BBX 21 20 1 4
BITMAP
0000000000000000001300
000000000002C30000AF10
00000000002CF4001AFC00
0000000003EFA002CFE200
000000005FFC103DFE3000
00000008FFB105EFD30000
000001AFF9008FFB100000
00002CFE601AFF70000000
0003EFB202CFC300000000
005FF7003EF90000000000
08FE4004FF600000000000
4FF40007FE200000000000
1DFC3001CFE60000000000
02CFF8101AFFC300000000
0019FFD5006EFF81000000
00004DFFB202AFFE600000
0000007EFFA503CFFE9200
00000002AFFF9006EFF400
0000000004DF50002B9000
0000000000130000000000
ENDCHAR
STARTCHAR logicalnot
ENCODING 172
SWIDTH 539 0
DWIDTH 19 0
BBX 17 11 2 4
BITMAP
000000001123455100
39ABCDEFFFFFFFF800
7DDCCCBBBAAA99E900
00000000000000D900
00000000000000DA00
00000000000000DC00
00000000000000CE00
00000000000000CF00
00000000000000CF10
00000000000000BF10
000000000000003300
ENDCHAR
STARTCHAR uni00AD
ENCODING 173
SWIDTH 399 0
DWIDTH 14 0
BBX 14 6 0 6
BITMAP
000000000048A4
000000028DFFF8
000005BFFFFB62
0359EFFE951000
6FFFD840000000
15520000000000
ENDCHAR
STARTCHAR registered
ENCODING 174
SWIDTH 382 0
DWIDTH 14 0
BBX 17 24 0 0
BITMAP
000000039CB6100000
000000AFFFFFD20000
00000BFFCCDFFE2000
00009D610003CFB000
0004F10000000CF400
000CB000000002FC00
005F6C9059B920BF30
00AF1CEDEA8BF36F70
01FC0CF60002F74FB0
05F80DC0004DD12FD0
09F40DB03AFC102FE0
0CF10DBAFF70003FE0
0FC00DFFA200004FE0
2FA00DEFD500007FC0
4F700D84DFB300AF90
6F600E8008FF92EF50
7F600E80002AFEFE00
6F700E8000005FF800
4F90043000008FE100
1FD000000004FF4000
0CF70000006FF60000
05FFB6447CFE500000
00BFFFFFFFB3000000
0019EFEC8300000000
ENDCHAR
STARTCHAR macron
ENCODING 175
SWIDTH 399 0
DWIDTH 14 0
BBX 14 3 0 24
BITMAP
00000024689AB4
29ABDFFFFFFFF7
5DDCBA98754321
ENDCHAR
STARTCHAR degree
ENCODING 176
SWIDTH 201 0
DWIDTH 7 0
BBX 7 7 0 13
BITMAP
00377200
06FFFD10
0EA03E50
1F400C60
0DA14F50
06FFF900
00120000
ENDCHAR
STARTCHAR plusminus
ENCODING 177
SWIDTH 466 0
DWIDTH 17 0
BBX 14 18 0 2
BITMAP
0000007B000000
000000BC000000
000000BC000000
000000BC000000
000000BC000000
000000BC000000
000000BC000233
000000BD6AEFF9
000001DFFEA741
169BCFFF700000
5FFC87FF400000
052000CF400000
000000AF400000
0000007F400000
0000005F413562
0001359FEFFFF8
02EFFFFECBA873
01775200000000
ENDCHAR
STARTCHAR twosuperior
ENCODING 178
SWIDTH 318 0
DWIDTH 11 0
BBX 11 12 0 5
BITMAP
000287000000
006E9E500000
08C207800000
4B1006800000
000008700000
00000C300000
00002E000000
000089000000
0001E2000000
0008A027BC40
002FADB73000
005A51000000
ENDCHAR
STARTCHAR threesuperior
ENCODING 179
SWIDTH 280 0
DWIDTH 10 0
BBX 10 14 0 6
BITMAP
0028CF9000
1AE736B000
6B10076000
00004C0000
0003E30000
002EDAA820
01DF8215D2
02820000A6
00000000B5
00000005D0
0000004E30
000007E500
0001BE3000
0003B10000
ENDCHAR
STARTCHAR acute
ENCODING 180
SWIDTH 155 0
DWIDTH 6 0
BBX 5 5 0 21
BITMAP
000AC0
00BFD0
09FF40
3FF500
2B3000
ENDCHAR
STARTCHAR mu
ENCODING 181
SWIDTH 387 0
DWIDTH 14 0
BBX 13 25 0 -5
BITMAP
02300000000000
0DF0000005FA00
0DF0000005FB00
0DF1000005FC00
0DF1000005FC00
0DF2000006FD00
0DF3000007FD00
0EF4000007FD00
0EF5000008FE00
0EF600000AFE00
0EF600001EFE00
0EF700006FFF00
0EF80000DFFF00
0EFA0007FFFF00
0EFC002FFBFF10
0FFF12DFD1EF30
0FFFDEFD20CF40
0FCEFF91002200
0F924100000000
0F800000000000
0F700000000000
0F700000000000
0F600000000000
1F600000000000
06100000000000
ENDCHAR
STARTCHAR paragraph
ENCODING 182
SWIDTH 447 0
DWIDTH 16 0
BBX 15 23 0 0
BITMAP
0000269ACDEED800
002AFFFFFFFFFC00
02DFFFFFFFFEDD00
09FFFFFFFFC08D00
0EFFFFFFFFA08E00
2FFFFFFFFFB08E00
3FFFFFFFBFC08F00
1EFFFFE73FD08F10
039BA6102FE08F10
000000001FF08F20
000000000FF18F30
000000000DF28F30
000000000CF27F40
000000000BF37F40
000000000AF47F50
0000000009F56F50
0000000008F65F60
0000000007F64F60
0000000006F73F70
0000000006F71F80
0000000005F70F80
0000000005F60D80
0000000001810420
ENDCHAR
STARTCHAR periodcentered
ENCODING 183
SWIDTH 128 0
DWIDTH 5 0
BBX 4 4 0 7
BITMAP
0130
2EF5
2EE1
0100
ENDCHAR
STARTCHAR cedilla
ENCODING 184
SWIDTH 322 0
DWIDTH 12 0
BBX 9 13 2 -11
BITMAP
1700000000
7F10000000
AF20000000
BF10000000
AFB2000000
7FFF810000
1CFFFE6000
0027EFF900
00001BFF30
000006FF60
0026BFFF60
7EFFFFE800
6CCA850000
ENDCHAR
STARTCHAR onesuperior
ENCODING 185
SWIDTH 112 0
DWIDTH 4 0
BBX 2 13 1 6
BITMAP
41
C6
C7
C7
D7
D8
D8
D9
DA
DA
BB
9B
6B
ENDCHAR
STARTCHAR ordmasculine
ENCODING 186
SWIDTH 212 0
DWIDTH 8 0
BBX 8 10 0 5
BITMAP
01BEC400
06F76D40
0B8006D0
1F4003F2
5F2004F3
6F2006F2
6F200AD0
4F203F70
3F75DB00
0BEC6000
ENDCHAR
STARTCHAR guillemotright
ENCODING 187
SWIDTH 625 0
DWIDTH 23 0
BBX 20 21 1 4
BITMAP
00000000100000000000
08400007E60000000000
3FFA2009FFC400000000
0AFFF8107EFFA2000000
003BFFD5018FFF810000
00005CFFC3029FFE6000
0000006DFF9103BFFC40
000000007EFE6004CFF5
00000000018FF00008F9
00000000000EE00007F6
00000000005F80002ED0
0000000004ED1002DF30
000000005EE3004EF600
00000008FF4007FF6000
000001BFE401BFF50000
00004DFE304DFE500000
0006FFD306FFD3000000
009FFB107FFC10000000
09FF8005FF9000000000
3FE4000BD40000000000
3A100003100000000000
ENDCHAR
STARTCHAR onequarter
ENCODING 188
SWIDTH 678 0
DWIDTH 24 0
BBX 22 29 1 -3
BITMAP
0000000012000000000000
00000000BE000000000000
00000001FA000000000000
00000006F5000000000000
0000000AF1000000000000
0000000EB0000000000000
3100004F60000000000000
C600009F20000000000000
C60000DC00000002C60000
C70003F70000001CF80000
D70008F30000009FF80000
D8000CD0000005FFF80000
D8002F8000002EF6F80000
E8006F400000CF52F80000
D900BE000009F602F80000
D901F900007F6002F80000
DA05F50004F80002F80000
CA0AE1003EB00002FB79AA
AB0EA003EE2369CFFDA873
9B4F609FFFDB9643F80000
6B8F107631000002F80000
00DC000000000002F80000
02F7000000000002F80000
07F2000000000002F80000
0CD0000000000002F80000
1F80000000000002F80000
6F30000000000002E50000
AE00000000000000000000
7900000000000000000000
ENDCHAR
STARTCHAR onehalf
ENCODING 189
SWIDTH 693 0
DWIDTH 25 0
BBX 21 29 1 -3
BITMAP
0000000000220000000000
0000000001FB0000000000
0000000005F60000000000
0000000009F10000000000
000000000EC00000000000
0B1000003F700000000000
0F1000008F200000000000
0F200000DD000000000000
0F200002F8000000000000
0F200007F3000000000000
0F30000BE0000200000000
1F30001F9008EF90000000
1F30005F52DE8AF3000000
1F4000AE3EC201E7000000
0F4000EDEA0000C8000000
0F5004F8800000D7000000
0E5009F1000001F5000000
0D600DB0000005F1000000
0B603F7000000AB0000000
09507F2000001E70000000
0000CC0000007E10000000
0002F8000001E900000000
0006F3000007F20026AE80
000BD000002E848CFC8300
001F900000AFFD95100000
005F400000972000000000
009E000000000000000000
00EA000000000000000000
00A5000000000000000000
ENDCHAR
STARTCHAR threequarters
ENCODING 190
SWIDTH 868 0
DWIDTH 31 0
BBX 25 29 1 -3
BITMAP
00000000000000000021000000
000000000000000003F8000000
000000351000000008F3000000
0005AEFFB00000000CD0000000
06DE942AD00000002F90000000
7FA10009900000006F46700000
4700003E20000000BE2EA00000
000002E800000001FA8FA00000
00002DC000000005F7EFA00000
0001CE665300000AF9FEA00000
001CFFD9ACD4000ECFBAA00000
00BFE600006F304FFF2AA00000
01771000000E708FF70AA00000
00000000000F60DFC00AA00000
00000000006E12FF300AA00000
0000000003F707FC000AA01300
000000004EB00FF2003CEEFE10
00000007FB104FF49DFED53100
000001CF9002FFFB740AA00000
00002DF70003FF10000AA00000
00003C300000EA00000AA00000
000000000004F500000AA00000
000000000009F100000AA00000
00000000000DB000000AA00000
00000000003F6000000AA00000
00000000008F1000000AA00000
0000000000CC00000009700000
0000000001F700000000000000
0000000000D200000000000000
ENDCHAR
STARTCHAR questiondown
ENCODING 191
SWIDTH 541 0
DWIDTH 20 0
BBX 16 30 3 -1
BITMAP
0000000BD2000000
00000009F6000000
0000000010000000
0000000000000000
0000000000000000
0000000000000000
0000000000000000
0000000000000000
0000000000000000
0000000000000000
0000000000000000
0000157862000000
0001EFFFFF700000
00005303BFF30000
000000001EF50000
000000001EF20000
00000002DFA00000
0000003DFD100000
000004EFD2000000
00005FFB10000000
0005FF8000000000
004FE50000000000
02EE300000000000
0BF4000000000000
4F80000000000000
AF20000000000120
DE0000000004BFF8
EF30000016DFFFB2
7FFB999BEFFD8300
05ADFFEB95200000
ENDCHAR
STARTCHAR Agrave
ENCODING 192
SWIDTH 390 0
DWIDTH 14 0
BBX 17 34 1 -2
BITMAP
000440000000000000
000BE3000000000000
0007FD100000000000
0000CF900000000000
00002EE00000000000
000003800000000000
000CC0000000000000
000FF6000000000000
001FFE000000000000
003FFF500000000000
005FFFB00000000000
007F9AF10000000000
008F63F60000000000
00AF40CC0000000000
00CF307F2000000000
00DF202F7000000000
00FF000DD000000000
01FE0008F300000000
03FC0004F900000000
05FB0001FE00014620
06FA0000CF76BFFFA0
08F900008FFFD85860
09F80003EFE4000000
0BF8039FFFE0000000
0CFEEFEA5EF3000000
0DFFA40007F7000000
0FF6000002FB000000
1FC0000000CE000000
2F900000008F300000
4F800000003F700000
5F600000000EB00000
7F500000000AF00000
110000000004D10000
000000000000200000
ENDCHAR
STARTCHAR Aacute
ENCODING 193
SWIDTH 390 0
DWIDTH 14 0
BBX 17 34 1 -1
BITMAP
0002D7000000000000
002DF8000000000000
01DFD1000000000000
08FD20000000000000
05A100000000000000
000000000000000000
005F40000000000000
008FD0000000000000
009FF6000000000000
00BFFC000000000000
00DFFF300000000000
00FE5F800000000000
01FD0BD00000000000
03FC05F40000000000
05FA01E90000000000
06F900AE0000000000
08F7006F5000000000
09F6001FA000000000
0BF4000CF100000000
0DF30008F600036500
0EF20005FD49EFFF20
1FF10001FFFFB65A00
2FF00009FF81000000
4FF015DFFF60000000
5FFDFFC78FA0000000
6FFE72001EE0000000
8FC100000AF3000000
9F40000005F7000000
AF10000001FB000000
CF00000000BE000000
DD000000007F300000
FC000000002F700000
11000000000C600000
000000000002000000
ENDCHAR
STARTCHAR Acircumflex
ENCODING 194
SWIDTH 390 0
DWIDTH 14 0
BBX 19 38 -1 -1
BITMAP
00002700000000000000
0000CF90000000000000
0006FEF7000000000000
000DD19F500000000000
007F500BF30000000000
01EC0001DE2000000000
08F300003FD100000000
1EA0000006FD30000000
9E200000009F50000000
F8000000000400000000
10005F40000000000000
00008FD0000000000000
00009FF6000000000000
0000BFFC000000000000
0000DFFF300000000000
0000FE5F800000000000
0001FD0BD00000000000
0003FC05F40000000000
0005FA01E90000000000
0006F900AE0000000000
0008F7006F5000000000
0009F6001FA000000000
000BF4000CF100000000
000DF30008F600036500
000EF20005FD49EFFF20
001FF10001FFFFB65A00
002FF00009FF81000000
004FF015DFFF60000000
005FFDFFC78FA0000000
006FFE72001EE0000000
008FC100000AF3000000
009F40000005F7000000
00AF10000001FB000000
00CF00000000BE000000
00DD000000007F300000
00FC000000002F700000
0011000000000C600000
00000000000002000000
ENDCHAR
STARTCHAR Atilde
ENCODING 195
SWIDTH 390 0
DWIDTH 14 0
BBX 19 38 -1 -1
BITMAP
0028A960000001000000
05FFEFFA0003FE100000
1EF605FF101DFE000000
5FC000BF909FF5000000
4E40002EFFFF50000000
00000004DFD300000000
00000000010000000000
00000000000000000000
00000000000000000000
00000000000000000000
00005F40000000000000
00008FD0000000000000
00009FF6000000000000
0000BFFC000000000000
0000DFFF300000000000
0000FE5F800000000000
0001FD0BD00000000000
0003FC05F40000000000
0005FA01E90000000000
0006F900AE0000000000
0008F7006F5000000000
0009F6001FA000000000
000BF4000CF100000000
000DF30008F600036500
000EF20005FD49EFFF20
001FF10001FFFFB65A00
002FF00009FF81000000
004FF015DFFF60000000
005FFDFFC78FA0000000
006FFE72001EE0000000
008FC100000AF3000000
009F40000005F7000000
00AF10000001FB000000
00CF00000000BE000000
00DD000000007F300000
00FC000000002F700000
0011000000000C600000
00000000000002000000
ENDCHAR
STARTCHAR Adieresis
ENCODING 196
SWIDTH 390 0
DWIDTH 14 0
BBX 17 33 1 -1
BITMAP
08C402BC1000000000
2FF507FE1000000000
055001630000000000
000000000000000000
000000000000000000
005F40000000000000
008FD0000000000000
009FF6000000000000
00BFFC000000000000
00DFFF300000000000
00FE5F800000000000
01FD0BD00000000000
03FC05F40000000000
05FA01E90000000000
06F900AE0000000000
08F7006F5000000000
09F6001FA000000000
0BF4000CF100000000
0DF30008F600036500
0EF20005FD49EFFF20
1FF10001FFFFB65A00
2FF00009FF81000000
4FF015DFFF60000000
5FFDFFC78FA0000000
6FFE72001EE0000000
8FC100000AF3000000
9F40000005F7000000
AF10000001FB000000
CF00000000BE000000
DD000000007F300000
FC000000002F700000
11000000000C600000
000000000002000000
ENDCHAR
STARTCHAR Aring
ENCODING 197
SWIDTH 390 0
DWIDTH 14 0
BBX 18 33 0 -1
BITMAP
017BCB810000000000
3EFEDFFD1000000000
CF9001CF5000000000
CF10007F7000000000
9F9102EF5000000000
2DFFFFE70000000000
014AFE100000000000
000AFF600000000000
000CFFC00000000000
000DFFF30000000000
000FE5F80000000000
001FD0BD0000000000
003FC05F4000000000
004FA01E9000000000
006F900AE000000000
008F7006F500000000
009F6001FA00000000
00BF4000CF10000000
00CF30008F60003650
00EF20005FD49EFFF2
01FF10001FFFFB65A0
02FF00009FF8100000
04FF015DFFF6000000
05FFDFFC78FA000000
06FFE72001EE000000
08FC100000AF300000
09F40000005F700000
0AF10000001FB00000
0CF00000000BE00000
0DD000000007F30000
0FC000000002F70000
011000000000C60000
000000000000200000
ENDCHAR
STARTCHAR AE
ENCODING 198
SWIDTH 708 0
DWIDTH 26 0
BBX 24 27 1 0
BITMAP
005F40000000000000003400
008FD0000870000015AFF700
009FF6003FF20029EFF92000
00BFFC000EF53AFFF9200000
00DFFF300BFDFFF920000000
00FE5F8009FFF92000000000
01FD0BD008FB200000000000
03FC05F406F7000000000000
05FA01E904F7000000000000
06F900AE03F8000000001000
08F7006F52F90000001BB000
09F6001FA1FA000017EA1000
0BF4000CF1FB0017ED500000
0DF30008F6EC17EF81000000
0EF20005FDEEEFB200000000
1FF10001FFFFE50000000000
2FF00009FFFF700000000000
4FF015DFFFFF600000000001
5FFDFFC78FFF6000000006DF
6FFE72000EFF60000002BFD4
8FC1000009FF6000005EF810
9F40000005FF60001AFD4000
AF10000001FF6005EF910000
CF00000000DF86CFD4000000
DD00000000DFFFF910000000
FC00000000DFFB3000000000
110000000001200000000000
ENDCHAR
STARTCHAR Ccedilla
ENCODING 199
SWIDTH 487 0
DWIDTH 18 0
BBX 17 39 0 -12
BITMAP
000000001320000000
00000008FFF9000000
0000009FD9DF600000
000007FB101CC00000
00002ED10001800000
00009F500000000000
0002FC000000000000
0007F6000000000000
000DE1000000000000
002FA0000000000000
006F60000000000000
00AF20000000000000
00ED00000000000000
03F900000000000000
06F600000000000000
09F300000000000000
0BF000000000001620
0DD000000000007F90
0FB00000000001EF40
1FA00000000008FC00
2FB0000000003FF200
0FC000000001DF6000
0DE00000001CF70000
09F4000002CF700000
03FD20017EE5000000
009FFDCFFC30000000
0007DFFC6000000000
000007F30000000000
000008F40000000000
000009F40000000000
000008FF8100000000
000004FFFD60000000
0000007CFFFC200000
0000000018FFE10000
00000000005FF60000
00000000018FF80000
00000147BFFFF50000
000008FFFFFA400000
000002775310000000
ENDCHAR
STARTCHAR Egrave
ENCODING 200
SWIDTH 474 0
DWIDTH 17 0
BBX 16 33 1 0
BITMAP
0001700000000000
0005F70000000000
0002FF4000000000
00007FE100000000
00000AF500000000
0000008200000000
0000000000002100
2910000016BED200
BF70004BFFD60000
9FB05CFFD6000000
5FECFFE600000000
3FFFE70000000000
2FF7000000000000
0FD0000000000000
0DE0000000000000
0CE0000000000000
0BF00000004D3000
0AF1000029FB0000
09F20018EF800000
08F306EFB2000000
07F8CFC400000000
07FFE50000000000
07FE200000000000
07FC000000000000
07FC0000000019E6
07FC00000005EFA1
07FC000001AFD400
07FC00004DFA1000
07FC0019FE500000
07FC28EFA1000000
07FFFFD400000000
07FFE70000000000
0286100000000000
ENDCHAR
STARTCHAR Eacute
ENCODING 201
SWIDTH 474 0
DWIDTH 17 0
BBX 16 31 1 0
BITMAP
00000002D6000000
0000003EF7000000
000001EFC1000000
000009FC10000000
000005A100002100
2910000016BED200
BF70004BFFD60000
9FB05CFFD6000000
5FECFFE600000000
3FFFE70000000000
2FF7000000000000
0FD0000000000000
0DE0000000000000
0CE0000000000000
0BF00000004D3000
0AF1000029FB0000
09F20018EF800000
08F306EFB2000000
07F8CFC400000000
07FFE50000000000
07FE200000000000
07FC000000000000
07FC0000000019E6
07FC00000005EFA1
07FC000001AFD400
07FC00004DFA1000
07FC0019FE500000
07FC28EFA1000000
07FFFFD400000000
07FFE70000000000
0286100000000000
ENDCHAR
STARTCHAR Ecircumflex
ENCODING 202
SWIDTH 474 0
DWIDTH 17 0
BBX 16 38 1 0
BITMAP
0000004600000000
000002FF60000000
000009FEF4000000
00002FB0CE300000
0000AF202ED10000
0003F80004FC1000
000BE100006FA000
004F60000009FC10
00CC00000000CF20
03F4000000001300
0010000000000000
0000000000002100
2910000016BED200
BF70004BFFD60000
9FB05CFFD6000000
5FECFFE600000000
3FFFE70000000000
2FF7000000000000
0FD0000000000000
0DE0000000000000
0CE0000000000000
0BF00000004D3000
0AF1000029FB0000
09F20018EF800000
08F306EFB2000000
07F8CFC400000000
07FFE50000000000
07FE200000000000
07FC000000000000
07FC0000000019E6
07FC00000005EFA1
07FC000001AFD400
07FC00004DFA1000
07FC0019FE500000
07FC28EFA1000000
07FFFFD400000000
07FFE70000000000
0286100000000000
ENDCHAR
STARTCHAR Edieresis
ENCODING 203
SWIDTH 474 0
DWIDTH 17 0
BBX 16 32 1 0
BITMAP
0004C9008C500000
000BFB01FF600000
0002610045000000
0000000000000000
0000000000000000
0000000000002100
2910000016BED200
BF70004BFFD60000
9FB05CFFD6000000
5FECFFE600000000
3FFFE70000000000
2FF7000000000000
0FD0000000000000
0DE0000000000000
0CE0000000000000
0BF00000004D3000
0AF1000029FB0000
09F20018EF800000
08F306EFB2000000
07F8CFC400000000
07FFE50000000000
07FE200000000000
07FC000000000000
07FC0000000019E6
07FC00000005EFA1
07FC000001AFD400
07FC00004DFA1000
07FC0019FE500000
07FC28EFA1000000
07FFFFD400000000
07FFE70000000000
0286100000000000
ENDCHAR
STARTCHAR Igrave
ENCODING 204
SWIDTH 153 0
DWIDTH 6 0
BBX 5 34 0 0
BITMAP
160000
5F7000
2FF400
08FD10
00AF50
000810
000000
01C700
00FC00
00DD00
00CF00
00BF10
00AF20
00AF30
009F30
009F40
008F40
008F50
008F50
007F50
007F60
007F60
006F60
006F70
006F70
006F70
005F70
005F70
005F70
005F70
004F70
004F70
003F70
001A40
ENDCHAR
STARTCHAR Iacute
ENCODING 205
SWIDTH 153 0
DWIDTH 6 0
BBX 5 34 1 0
BITMAP
003E50
04EF60
2EFB00
AFB100
690000
000000
000000
1C7000
0FC000
0DD000
0CF000
0BF100
0AF200
0AF300
09F300
09F400
08F400
08F500
08F500
07F500
07F600
07F600
06F600
06F700
06F700
06F700
05F700
05F700
05F700
05F700
04F700
04F700
03F700
01A400
ENDCHAR
STARTCHAR Icircumflex
ENCODING 206
SWIDTH 153 0
DWIDTH 6 0
BBX 13 37 -3 0
BITMAP
00000730000000
00007FD2000000
0001EEFC100000
0008F44FA00000
002FB006F80000
009F30009F6000
03F900000CF400
0BE1000002EE70
4F700000004FB0
AD000000000310
11001C70000000
00000FC0000000
00000DD0000000
00000CF0000000
00000BF1000000
00000AF2000000
00000AF3000000
000009F3000000
000009F4000000
000008F4000000
000008F5000000
000008F5000000
000007F5000000
000007F6000000
000007F6000000
000006F6000000
000006F7000000
000006F7000000
000006F7000000
000005F7000000
000005F7000000
000005F7000000
000005F7000000
000004F7000000
000004F7000000
000003F7000000
000001A4000000
ENDCHAR
STARTCHAR Idieresis
ENCODING 207
SWIDTH 153 0
DWIDTH 6 0
BBX 8 32 -1 0
BITMAP
2BC105C9
6FE10CFB
16300261
00000000
00000000
001C7000
000FC000
000DD000
000CF000
000BF100
000AF200
000AF300
0009F300
0009F400
0008F400
0008F500
0008F500
0007F500
0007F600
0007F600
0006F600
0006F700
0006F700
0006F700
0005F700
0005F700
0005F700
0005F700
0004F700
0004F700
0003F700
0001A400
ENDCHAR
STARTCHAR Eth
ENCODING 208
SWIDTH 554 0
DWIDTH 20 0
BBX 20 27 0 0
BITMAP
00009000000000000000
0002F200000000000000
0008FDBBBA8631000000
005FFFFEEFFFFFC61000
08FFFC10001369EFD400
2FDBFA0000000016EF30
0407FA00000000003FC0
0006F900000000000AF1
0005F9000000000009F2
0004FA00000000000AE0
0003FA00000000000EA0
0002FB00000000004F50
0001FB0000000000BE00
0000FB0000000004F800
0000EC000000001DE100
0000CD000000009F6000
0000BE00000007FC0000
0000AF69A8004FE20000
078BEFFFFE02EF600000
3EEEFFFD842DF9000000
0000CF4001DFC0000000
00006F201CFD10000000
00004F20BFE200000000
00003F2AFE3000000000
0000047FE30000000000
000002FE300000000000
000003E3000000000000
ENDCHAR
STARTCHAR Ntilde
ENCODING 209
SWIDTH 541 0
DWIDTH 19 0
BBX 18 34 1 0
BITMAP
0028A9600000010000
06FFEFF90004FE0000
2FF506FE101DFD0000
6FB000CF80AFF40000
4E30003EFFFE500000
00000004DFC3000000
000000000100044000
0000000000000DF100
0000000000000AF600
00000000000007F900
30000000000005FB00
EB100000000003FC00
DFD10000000002FD00
CFFC0000000001FD00
AFFF8000000000EE00
8FFFF400000000EE00
7FCAFE20000000DE00
5FB0BFB0000000CF00
3FB01DF8000000CF00
1FC003FF400000CF10
0FD0006FE10000BF10
0DE00009FB0000BF10
0BF10000CF7000BF20
0AF300001EF400BF20
08F5000003FD10CF30
06F70000006FB0CF30
04F900000009F7DF30
03FB00000001CFFF40
01FE000000002EFF70
00EF0000000004FFC0
00DF2000000000AFF1
00BF20000000009FE1
00CF20000000001410
006C00000000000000
ENDCHAR
STARTCHAR Ograve
ENCODING 210
SWIDTH 382 0
DWIDTH 14 0
BBX 14 32 0 0
BITMAP
00000001600000
00000005F70000
00000002FF4000
000000008FD100
000000000AF500
00000000008100
00000000000000
00000002300000
000002BFFD5000
00002EFFFFF600
0000CFD526FF30
0006FB10009FA0
000DF100003FD0
005FB000000EF1
00BF6000000CF2
01FF1000000BF4
04FC0000000BF4
08F80000000BF4
0BF40000000CF3
0EF10000000DF2
1FC00000001FF0
3FA00000003FD0
4F700000007FA0
6F60000000AF70
7F60000001EF20
6F70000006FC00
4F8000000DF500
1FC000006FD000
0CF40003FF3000
05FE868EF60000
00BFFFFF600000
0019EEA2000000
ENDCHAR
STARTCHAR Oacute
ENCODING 211
SWIDTH 382 0
DWIDTH 14 0
BBX 14 31 0 0
BITMAP
0000002D800000
000002DF900000
00001DFD100000
00007FD2000000
00004B10000000
00000000000000
00000002300000
000002BFFD5000
00002EFFFFF600
0000CFD526FF30
0006FB10009FA0
000DF100003FD0
005FB000000EF1
00BF6000000CF2
01FF1000000BF4
04FC0000000BF4
08F80000000BF4
0BF40000000CF3
0EF10000000DF2
1FC00000001FF0
3FA00000003FD0
4F700000007FA0
6F60000000AF70
7F60000001EF20
6F70000006FC00
4F8000000DF500
1FC000006FD000
0CF40003FF3000
05FE868EF60000
00BFFFFF600000
0019EEA2000000
ENDCHAR
STARTCHAR Ocircumflex
ENCODING 212
SWIDTH 382 0
DWIDTH 14 0
BBX 14 34 0 0
BITMAP
00000460000000
00002FF6000000
00009FEF400000
0002FB0CE30000
000AF202ED1000
003F80004FC100
00BE100006FA00
04F60000009FC1
0CC00000000CF2
3F400002300130
010002BFFD5000
00002EFFFFF600
0000CFD526FF30
0006FB10009FA0
000DF100003FD0
005FB000000EF1
00BF6000000CF2
01FF1000000BF4
04FC0000000BF4
08F80000000BF4
0BF40000000CF3
0EF10000000DF2
1FC00000001FF0
3FA00000003FD0
4F700000007FA0
6F60000000AF70
7F60000001EF20
6F70000006FC00
4F8000000DF500
1FC000006FD000
0CF40003FF3000
05FE868EF60000
00BFFFFF600000
0019EEA2000000
ENDCHAR
STARTCHAR Otilde
ENCODING 213
SWIDTH 382 0
DWIDTH 14 0
BBX 16 32 0 0
BITMAP
00017AA710000010
003EFEFFC0002EF2
00DF803FF300BFF2
03FE0009FB17FF70
02E60001DFFFF700
000000002CFE5000
0000000000100000
0000000230000000
000002BFFD500000
00002EFFFFF60000
0000CFD526FF3000
0006FB10009FA000
000DF100003FD000
005FB000000EF100
00BF6000000CF200
01FF1000000BF400
04FC0000000BF400
08F80000000BF400
0BF40000000CF300
0EF10000000DF200
1FC00000001FF000
3FA00000003FD000
4F700000007FA000
6F60000000AF7000
7F60000001EF2000
6F70000006FC0000
4F8000000DF50000
1FC000006FD00000
0CF40003FF300000
05FE868EF6000000
00BFFFFF60000000
0019EEA200000000
ENDCHAR
STARTCHAR Odieresis
ENCODING 214
SWIDTH 382 0
DWIDTH 14 0
BBX 14 29 0 0
BITMAP
000005C8008C40
00000BFA02FF50
00000261005500
00000000000000
00000002300000
000002BFFD5000
00002EFFFFF600
0000CFD526FF30
0006FB10009FA0
000DF100003FD0
005FB000000EF1
00BF6000000CF2
01FF1000000BF4
04FC0000000BF4
08F80000000BF4
0BF40000000CF3
0EF10000000DF2
1FC00000001FF0
3FA00000003FD0
4F700000007FA0
6F60000000AF70
7F60000001EF20
6F70000006FC00
4F8000000DF500
1FC000006FD000
0CF40003FF3000
05FE868EF60000
00BFFFFF600000
0019EEA2000000
ENDCHAR
STARTCHAR multiply
ENCODING 215
SWIDTH 454 0
DWIDTH 16 0
BBX 11 13 2 4
BITMAP
0D6000000410
0BE100006F80
02EA0004FD10
007F702EE300
000CF6DF5000
0003FFF80000
0001EFD00000
000CFDF50000
009F71CE1000
07F8004FA000
4FC0000DF400
27300007F900
000000003200
ENDCHAR
STARTCHAR Oslash
ENCODING 216
SWIDTH 382 0
DWIDTH 14 0
BBX 14 29 0 -3
BITMAP
00000000002200
0000000232FA00
000002BFFFF500
00002EFFFFF600
0000CFD52FFF20
0006FB104FDFA0
000DF1009F4FD0
005FB000EB0EF1
00BF6003F70CF2
01FF1008F20BF4
04FC000CC00BF4
08F8002F800BF4
0BF4007F300CF3
0EF100BD000DF2
1FC001F9001FF0
3FA005F4003FD0
4F700AE0007FA0
6F600EA000AF70
7F604F5001EF20
6F709F1006FC00
4F90DB000DF500
1FC3F6006FD000
0CFBF203FF3000
05FFE68EF60000
00BFFFFF600000
006FEEA2000000
00BD0000000000
00E80000000000
00B40000000000
ENDCHAR
STARTCHAR Ugrave
ENCODING 217
SWIDTH 450 0
DWIDTH 16 0
BBX 15 34 1 -5
BITMAP
0000260000000000
00007F6000000000
00003FF300000000
000009FD00000000
000000BF30000000
0000001910000000
0000000000003200
350000000000EC00
DF5000000003FF10
DF5000000005FF10
DF5000000008FF00
CF500000000AFF00
CF500000000DFE00
CF500000000FFD00
BF500000003FFC00
AF500000005FFC00
AF500000008FFB00
AF50000000BFFA00
9F50000000EFFA00
9F50000002FEF900
8F50000006FAFA00
8F5000000BF3FA00
7F5000001FC0EB00
5F5000007F60CD00
3F800001ED00BE00
0EE1000AF5009F10
0AFC43AF80008F20
02EFFFF800006F40
0017972000005F50
0000000000003F60
0000000000002F70
0000000000000F70
0000000000000E40
0000000000000100
ENDCHAR
STARTCHAR Uacute
ENCODING 218
SWIDTH 450 0
DWIDTH 16 0
BBX 15 31 1 -5
BITMAP
00000000AC000000
0000000AFD000000
0000009FF4000000
000003FF50003200
350002B40000EC00
DF5000000003FF10
DF5000000005FF10
DF5000000008FF00
CF500000000AFF00
CF500000000DFE00
CF500000000FFD00
BF500000003FFC00
AF500000005FFC00
AF500000008FFB00
AF50000000BFFA00
9F50000000EFFA00
9F50000002FEF900
8F50000006FAFA00
8F5000000BF3FA00
7F5000001FC0EB00
5F5000007F60CD00
3F800001ED00BE00
0EE1000AF5009F10
0AFC43AF80008F20
02EFFFF800006F40
0017972000005F50
0000000000003F60
0000000000002F70
0000000000000F70
0000000000000E40
0000000000000100
ENDCHAR
STARTCHAR Ucircumflex
ENCODING 219
SWIDTH 450 0
DWIDTH 16 0
BBX 15 39 1 -5
BITMAP
0000037000000000
00001EF800000000
00007FEF60000000
0001EC0AF4000000
0008F401DE200000
002FA0002ED10000
00AF200004FC0000
03F80000007FC200
0BE10000000AF300
2F60000000014000
0100000000000000
0000000000003200
350000000000EC00
DF5000000003FF10
DF5000000005FF10
DF5000000008FF00
CF500000000AFF00
CF500000000DFE00
CF500000000FFD00
BF500000003FFC00
AF500000005FFC00
AF500000008FFB00
AF50000000BFFA00
9F50000000EFFA00
9F50000002FEF900
8F50000006FAFA00
8F5000000BF3FA00
7F5000001FC0EB00
5F5000007F60CD00
3F800001ED00BE00
0EE1000AF5009F10
0AFC43AF80008F20
02EFFFF800006F40
0017972000005F50
0000000000003F60
0000000000002F70
0000000000000F70
0000000000000E40
0000000000000100
ENDCHAR
STARTCHAR Udieresis
ENCODING 220
SWIDTH 450 0
DWIDTH 16 0
BBX 15 32 1 -5
BITMAP
0002BC105C900000
0006FE10CFB00000
0001630026100000
0000000000000000
0000000000003200
350000000000EC00
DF5000000003FF10
DF5000000005FF10
DF5000000008FF00
CF500000000AFF00
CF500000000DFE00
CF500000000FFD00
BF500000003FFC00
AF500000005FFC00
AF500000008FFB00
AF50000000BFFA00
9F50000000EFFA00
9F50000002FEF900
8F50000006FAFA00
8F5000000BF3FA00
7F5000001FC0EB00
5F5000007F60CD00
3F800001ED00BE00
0EE1000AF5009F10
0AFC43AF80008F20
02EFFFF800006F40
0017972000005F50
0000000000003F60
0000000000002F70
0000000000000F70
0000000000000E40
0000000000000100
ENDCHAR
STARTCHAR Yacute
ENCODING 221
SWIDTH 483 0
DWIDTH 17 0
BBX 17 34 0 0
BITMAP
00000000008E000000
0000000009FE000000
000000007FF5000000
00000001FF60000000
00000001B500000000
000000000000000000
000000000000000B50
000000000000001F90
000000000000005F50
000000000000009F10
00000000000000EB00
7B000000000003F700
4F900000000008F300
0CF6000000000DD000
03FE300000003F9000
008FD10000009F5000
000CFA000000EF1000
0002EF800005FB0000
00004FF6000AF60000
000006FF501FF10000
0000007FF67FA00000
00000009FFFF400000
00000000AFFE000000
000000000FF8000000
000000000FF3000000
000000003FD0000000
000000007F80000000
00000000CF30000000
00000002FD00000000
00000007F800000000
0000000CF300000000
0000001FD000000000
0000003F9000000000
0000002E4000000000
ENDCHAR
STARTCHAR Thorn
ENCODING 222
SWIDTH 398 0
DWIDTH 14 0
BBX 13 30 1 0
BITMAP
01000000000000
3FD00000000000
3FC00000000000
4F900000000000
5F700000000000
6F600000000000
6F500014672000
7F501AFFFFE400
8F62DFFDCEFE10
8F8CFA2002EF50
9FFF8000007F80
AFFC0000003F90
AFF20000003F90
BFA00000006F70
BF40000000BF50
CF40000003FE10
DF3000001CF700
DF300000AFA000
DF30002BF90000
DF2018EF700000
EF48EFD3000000
EFFFE700000000
EFF91000000000
EF400000000000
EF300000000000
DF300000000000
DF400000000000
CF400000000000
AF500000000000
22000000000000
ENDCHAR
STARTCHAR germandbls
ENCODING 223
SWIDTH 537 0
DWIDTH 19 0
BBX 19 27 0 0
BITMAP
00000000001100000000
000000028DFFD6000000
040002BFFECCFF000000
1F907FFA4000DE000000
0EFCFB200002FA000000
09FF9000000AF3000000
07FD0000006F80000000
05FA000003FB00000000
02FA00002DD100000000
00FB0001CD2157886200
00DC001CE7BFFDCFFE40
00BF01CFFFB51001BF70
009F6CFFD40000006F40
006FFFFA10000000AC00
004FFFA000000004F400
002FFC000000002E9000
000FF400000001DD1000
000DE00000001DE30000
000AF0000001DF600000
0008F100001DF9000000
0006F40001DFB0000000
0004F6001CFC10000000
0001F900BFD100000000
0000EB07FC1000000000
0000CD06810000000000
0000AC00000000000000
00005500000000000000
ENDCHAR
STARTCHAR agrave
ENCODING 224
SWIDTH 366 0
DWIDTH 13 0
BBX 13 27 0 0
BITMAP
00006200000000
0000ED10000000
0000AFB0000000
00002EF6000000
000004FB000000
00000055000000
00000000000000
00000002661000
0000007FFFD000
000006FFFFF300
00004FFA2FF200
0000DFB00FF100
0007FE202FF100
001EF7005FF200
007FD0009FF300
00DF7001EFF400
05FE1008FFF600
0BF7002EF7F800
1FF200AF91FA00
5FA003FF20EC00
AF500CF800CE00
DE007FE100AF10
EC03FF50008F20
DE4DFA00007F30
AFFFD100005F40
4FFD2000003F40
04610000000710
ENDCHAR
STARTCHAR aacute
ENCODING 225
SWIDTH 366 0
DWIDTH 13 0
BBX 13 26 0 0
BITMAP
00000003E50000
0000004EF60000
000002EFB00000
00000AFB100000
00000690000000
00000000000000
00000002661000
0000007FFFD000
000006FFFFF300
00004FFA2FF200
0000DFB00FF100
0007FE202FF100
001EF7005FF200
007FD0009FF300
00DF7001EFF400
05FE1008FFF600
0BF7002EF7F800
1FF200AF91FA00
5FA003FF20EC00
AF500CF800CE00
DE007FE100AF10
EC03FF50008F20
DE4DFA00007F30
AFFFD100005F40
4FFD2000003F40
04610000000710
ENDCHAR
STARTCHAR acircumflex
ENCODING 226
SWIDTH 366 0
DWIDTH 13 0
BBX 13 34 0 0
BITMAP
00000640000000
00005FE3000000
0000DEED100000
0006F62EC10000
001ED005FA0000
008F40007F8000
01EB00000AF600
09F2000001DF90
2F800000002EC0
8E100000000320
01000000000000
00000000000000
00000000000000
00000000000000
00000002661000
0000007FFFD000
000006FFFFF300
00004FFA2FF200
0000DFB00FF100
0007FE202FF100
001EF7005FF200
007FD0009FF300
00DF7001EFF400
05FE1008FFF600
0BF7002EF7F800
1FF200AF91FA00
5FA003FF20EC00
AF500CF800CE00
DE007FE100AF10
EC03FF50008F20
DE4DFA00007F30
AFFFD100005F40
4FFD2000003F40
04610000000710
ENDCHAR
STARTCHAR atilde
ENCODING 227
SWIDTH 366 0
DWIDTH 13 0
BBX 15 27 0 0
BITMAP
00169A7200000100
02DFFFFE1000CF50
0AFB01DF6008FF40
0FF2006FD15FFA00
0D80000BFFFFA000
00000001BFE70000
0000000001000000
0000000266100000
0000007FFFD00000
000006FFFFF30000
00004FFA2FF20000
0000DFB00FF10000
0007FE202FF10000
001EF7005FF20000
007FD0009FF30000
00DF7001EFF40000
05FE1008FFF60000
0BF7002EF7F80000
1FF200AF91FA0000
5FA003FF20EC0000
AF500CF800CE0000
DE007FE100AF1000
EC03FF50008F2000
DE4DFA00007F3000
AFFFD100005F4000
4FFD2000003F4000
0461000000071000
ENDCHAR
STARTCHAR adieresis
ENCODING 228
SWIDTH 366 0
DWIDTH 13 0
BBX 13 27 0 0
BITMAP
0006C601AC3000
000EF804FF3000
00046000640000
00000000000000
00000000000000
00000000000000
00000000000000
00000002661000
0000007FFFD000
000006FFFFF300
00004FFA2FF200
0000DFB00FF100
0007FE202FF100
001EF7005FF200
007FD0009FF300
00DF7001EFF400
05FE1008FFF600
0BF7002EF7F800
1FF200AF91FA00
5FA003FF20EC00
AF500CF800CE00
DE007FE100AF10
EC03FF50008F20
DE4DFA00007F30
AFFFD100005F40
4FFD2000003F40
04610000000710
ENDCHAR
STARTCHAR aring
ENCODING 229
SWIDTH 366 0
DWIDTH 13 0
BBX 13 25 0 0
BITMAP
00000156520000
00019FFFFF8000
000AFD547FF300
000DF20007F600
000BF4000BF600
0005FFA9BFD100
00005AFFFFD000
000007FFFFF300
00004FFA2FF200
0000DFB00FF100
0007FE202FF100
001EF7005FF200
007FD0009FF300
00DF7001EFF400
05FE1008FFF600
0BF7002EF7F800
1FF200AF91FA00
5FA003FF20EC00
AF500CF800CE00
DE007FE100AF10
EC03FF50008F20
DE4DFA00007F30
AFFFD100005F40
4FFD2000003F40
04610000000710
ENDCHAR
STARTCHAR ae
ENCODING 230
SWIDTH 705 0
DWIDTH 25 0
BBX 25 21 0 0
BITMAP
00000000000000001200000000
000000026610002BFFF9100000
0000007FFFD003EFFDFFD10000
000006FFFFF30CFD201CF90000
00004FFA2FF26FE3000BFC0000
0000DFB00FF1DF70008FE40000
0007FE202FF6FD004CFC300000
001EF7005FFCFA5BFE70000000
007FD0009FFFFFFF9100000000
00DF7001EFFFFFB30000000000
05FE1008FFFFF5000000000740
0BF7002EFFFFD0000000008FA0
1FF200AFA6FFB000000004FF50
5FA003FF20EFA00000001DFA00
AF500CF800CF90000000BFD100
DE007FE100AF90000009FD1000
EC03FF50008FA000008FC20000
DE4DFA00007FF4004CFA100000
AFFFD100005FFFEFFE60000000
4FFD2000003F7ADC7100000000
04610000000710000000000000
ENDCHAR
STARTCHAR ccedilla
ENCODING 231
SWIDTH 390 0
DWIDTH 14 0
BBX 13 33 0 -11
BITMAP
00000131000000
00008FFE200000
0009FEBF900000
003FF33FC00000
00AFA00FE00000
00EF300AF00000
03FE0003F00000
06F90000200000
09F60000000000
0AF30000000000
0CF00000000000
0ED00000000000
0FB00000000000
1FA000000005A0
1FA00000000DC0
0FA00000004FB0
0CC00000009F80
09F1000001EF30
05F7000008FA00
00DF50007FD100
004FFCCEFC2000
0004FFEB600000
0001FA00000000
0003F900000000
0002FE50000000
0000EFFB300000
00008FFFFA1000
0000036CFFD200
000000005FFA00
000000000CFE00
00000027CFFE00
0001BEFFFFE500
0000DEDB950000
ENDCHAR
STARTCHAR egrave
ENCODING 232
SWIDTH 461 0
DWIDTH 17 0
BBX 17 27 -1 0
BITMAP
000000070000000000
0000003F9000000000
0000001EF700000000
00000005FF20000000
000000008F70000000
000000000730000000
000000000000000000
000000000100000000
00000019EFE8100000
000002DFFEFFC10000
00000BFE402CF90000
00004FF40009FD0000
0000CF80007FF60000
0003FE102AFE400000
000AFA39FF91000000
002FFFFFB300000000
009FFFD50000000000
05FFF7000000000530
3FFFE0000000006FB0
178FB000000003FF60
001FA00000000CFC00
000FA00000009FE200
000FA0000007FE3000
000DB000006FE30000
0009E3002AFC200000
0002EFCDFF90000000
00004CFEA300000000
ENDCHAR
STARTCHAR eacute
ENCODING 233
SWIDTH 461 0
DWIDTH 17 0
BBX 17 26 -1 0
BITMAP
00000000007E100000
0000000008FF100000
000000006FF7000000
00000000EF70000000
00000000A600000000
000000000000000000
000000000100000000
00000019EFE8100000
000002DFFEFFC10000
00000BFE402CF90000
00004FF40009FD0000
0000CF80007FF60000
0003FE102AFE400000
000AFA39FF91000000
002FFFFFB300000000
009FFFD50000000000
05FFF7000000000530
3FFFE0000000006FB0
178FB000000003FF60
001FA00000000CFC00
000FA00000009FE200
000FA0000007FE3000
000DB000006FE30000
0009E3002AFC200000
0002EFCDFF90000000
00004CFEA300000000
ENDCHAR
STARTCHAR ecircumflex
ENCODING 234
SWIDTH 461 0
DWIDTH 17 0
BBX 17 34 -1 0
BITMAP
000000017100000000
0000000BFB00000000
0000004FEF90000000
000000CE27F7000000
000005F800AF500000
00000DD1001CF30000
00006F500002EE2000
0000DC0000004FE500
0007F300000007F700
000DA0000000004000
000100000000000000
000000000000000000
000000000000000000
000000000000000000
000000000100000000
00000019EFE8100000
000002DFFEFFC10000
00000BFE402CF90000
00004FF40009FD0000
0000CF80007FF60000
0003FE102AFE400000
000AFA39FF91000000
002FFFFFB300000000
009FFFD50000000000
05FFF7000000000530
3FFFE0000000006FB0
178FB000000003FF60
001FA00000000CFC00
000FA00000009FE200
000FA0000007FE3000
000DB000006FE30000
0009E3002AFC200000
0002EFCDFF90000000
00004CFEA300000000
ENDCHAR
STARTCHAR edieresis
ENCODING 235
SWIDTH 461 0
DWIDTH 17 0
BBX 17 27 -1 0
BITMAP
0000009C303BB00000
000003FF409FD00000
000000540016200000
000000000000000000
000000000000000000
000000000000000000
000000000000000000
000000000100000000
00000019EFE8100000
000002DFFEFFC10000
00000BFE402CF90000
00004FF40009FD0000
0000CF80007FF60000
0003FE102AFE400000
000AFA39FF91000000
002FFFFFB300000000
009FFFD50000000000
05FFF7000000000530
3FFFE0000000006FB0
178FB000000003FF60
001FA00000000CFC00
000FA00000009FE200
000FA0000007FE3000
000DB000006FE30000
0009E3002AFC200000
0002EFCDFF90000000
00004CFEA300000000
ENDCHAR
STARTCHAR igrave
ENCODING 236
SWIDTH 132 0
DWIDTH 5 0
BBX 5 31 -1 -1
BITMAP
030000
3F5000
2FF300
09FD00
00CF50
001C40
000000
000000
000000
003600
009F40
00BF40
00CF40
00CF40
00DF40
00DF40
00CF40
00CF30
00CF30
00CF30
00BF30
00BF30
00AF30
00AF30
009F30
009F30
009F30
008F30
008F40
007F40
001300
ENDCHAR
STARTCHAR iacute
ENCODING 237
SWIDTH 132 0
DWIDTH 5 0
BBX 5 32 1 -1
BITMAP
000300
009F30
09FE10
7FF500
EF5000
540000
000000
000000
000000
000000
360000
9F4000
BF4000
CF4000
CF4000
DF4000
DF4000
CF4000
CF3000
CF3000
CF3000
BF3000
BF3000
AF3000
AF3000
9F3000
9F3000
9F3000
8F3000
8F4000
7F4000
130000
ENDCHAR
STARTCHAR icircumflex
ENCODING 238
SWIDTH 132 0
DWIDTH 5 0
BBX 13 35 -4 -1
BITMAP
00001720000000
0000AFC1000000
0003FEFB000000
000BF26F900000
004F9009F70000
00CE1000BF5000
05F700001DE300
0DD0000003FE60
6F400000006F80
CB000000000400
10000000000000
00000000000000
00000000000000
00000360000000
000009F4000000
00000BF4000000
00000CF4000000
00000CF4000000
00000DF4000000
00000DF4000000
00000CF4000000
00000CF3000000
00000CF3000000
00000CF3000000
00000BF3000000
00000BF3000000
00000AF3000000
00000AF3000000
000009F3000000
000009F3000000
000009F3000000
000008F3000000
000008F4000000
000007F4000000
00000130000000
ENDCHAR
STARTCHAR idieresis
ENCODING 239
SWIDTH 132 0
DWIDTH 5 0
BBX 9 28 -2 -1
BITMAP
08C402BC00
2FF507FE10
0550016300
0000000000
0000000000
0000000000
0003600000
0009F40000
000BF40000
000CF40000
000CF40000
000DF40000
000DF40000
000CF40000
000CF30000
000CF30000
000CF30000
000BF30000
000BF30000
000AF30000
000AF30000
0009F30000
0009F30000
0009F30000
0008F30000
0008F40000
0007F40000
0001300000
ENDCHAR
STARTCHAR eth
ENCODING 240
SWIDTH 481 0
DWIDTH 17 0
BBX 15 23 2 -1
BITMAP
00006F9000000000
00003FF200000000
00000AF900000000
000002FE10000000
0000009F80000000
0000001EE1146860
00168BCEFFFFFEA0
005FFFFFFFA62000
001754208F700000
000000002FC00000
000100000CF20000
02CFFA2007F60000
0CFFFFF603F80000
3FF99DFF70E90000
7F70007FF4E90000
9F200006FEF70000
8F100000CFF40000
5F300000AFE00000
1F900002EF600000
09F7003DFB000000
01DFEEFFA0000000
001BFFD500000000
0000320000000000
ENDCHAR
STARTCHAR ntilde
ENCODING 241
SWIDTH 483 0
DWIDTH 17 0
BBX 16 30 1 0
BITMAP
00028A9600000010
005FFEFF90004FE0
01FF505FE101DFD0
06FB000BF90AFF40
04E30002EFFFF500
000000004DFC3000
0000000000100000
0000000000000000
0000000000000000
7500000017DC2000
EB000002DFFFD000
DE00001DFFCEF600
CF10009FF402EC00
BF3002FF70009F10
AF5008FE00008F40
9F700DF700007F70
8F902FF100006F90
7FA06FB000005FB0
6FC09F6000004FC0
5FE0CF1000003FD0
4FF1FB0000002FE0
3FF6F70000001FE0
2FFCF30000000FF0
1FFFE00000000FF0
0FFFA00000000EF0
0EFF700000000DF0
0DFF400000000CF1
0BFF100000000BF1
0AFD000000000AE1
08D6000000000110
ENDCHAR
STARTCHAR ograve
ENCODING 242
SWIDTH 266 0
DWIDTH 10 0
BBX 9 27 0 0
BITMAP
0044000000
00BE300000
007FD10000
000CF90000
0002EE0000
0000380000
0000000000
0018C80000
009FFFA000
00DFDDF600
02FB007E10
05F4001F70
09F0000EA0
0BD0000CD0
0EC0000CE0
1FA0000CE0
3FA0000DE0
4FA0000EE0
5FA0001FD0
5FA0004FB0
4FA0007F80
3FA000CF40
2FA002FE00
1FC00AF700
0FF5AFD000
0BFFFD2000
03DD810000
ENDCHAR
STARTCHAR oacute
ENCODING 243
SWIDTH 266 0
DWIDTH 10 0
BBX 9 26 0 0
BITMAP
000002D700
00002DF800
0001DFD100
0007FD2000
0005A10000
0000000000
0018C80000
009FFFA000
00DFDDF600
02FB007E10
05F4001F70
09F0000EA0
0BD0000CD0
0EC0000CE0
1FA0000CE0
3FA0000DE0
4FA0000EE0
5FA0001FD0
5FA0004FB0
4FA0007F80
3FA000CF40
2FA002FE00
1FC00AF700
0FF5AFD000
0BFFFD2000
03DD810000
ENDCHAR
STARTCHAR ocircumflex
ENCODING 244
SWIDTH 266 0
DWIDTH 10 0
BBX 14 34 -2 0
BITMAP
00000450000000
00002FF5000000
0000AFEE300000
0003F91DE20000
000BE102EC1000
004F70004FB000
00CD000007F900
06F5000000AFB0
0DB00000001DF1
5F300000000230
01000000000000
00000000000000
00000000000000
00000000000000
000018C8000000
00009FFFA00000
0000DFDDF60000
0002FB007E1000
0005F4001F7000
0009F0000EA000
000BD0000CD000
000EC0000CE000
001FA0000CE000
003FA0000DE000
004FA0000EE000
005FA0001FD000
005FA0004FB000
004FA0007F8000
003FA000CF4000
002FA002FE0000
001FC00AF70000
000FF5AFD00000
000BFFFD200000
0003DD81000000
ENDCHAR
STARTCHAR otilde
ENCODING 245
SWIDTH 266 0
DWIDTH 10 0
BBX 14 28 -1 0
BITMAP
0069A820000010
1CFFFFE2000CF6
9FB11DF7007FF5
EF3005FE24FFB0
C90000AFFFFA10
0000001AFF7000
00000000000000
00000000000000
00018C80000000
0009FFFA000000
000DFDDF600000
002FB007E10000
005F4001F70000
009F0000EA0000
00BD0000CD0000
00EC0000CE0000
01FA0000CE0000
03FA0000DE0000
04FA0000EE0000
05FA0001FD0000
05FA0004FB0000
04FA0007F80000
03FA000CF40000
02FA002FE00000
01FC00AF700000
00FF5AFD000000
00BFFFD2000000
003DD810000000
ENDCHAR
STARTCHAR odieresis
ENCODING 246
SWIDTH 266 0
DWIDTH 10 0
BBX 9 27 0 0
BITMAP
04CA007C60
0AFC01FF70
0262004500
0000000000
0000000000
0000000000
0000000000
0018C80000
009FFFA000
00DFDDF600
02FB007E10
05F4001F70
09F0000EA0
0BD0000CD0
0EC0000CE0
1FA0000CE0
3FA0000DE0
4FA0000EE0
5FA0001FD0
5FA0004FB0
4FA0007F80
3FA000CF40
2FA002FE00
1FC00AF700
0FF5AFD000
0BFFFD2000
03DD810000
ENDCHAR
STARTCHAR divide
ENCODING 247
SWIDTH 345 0
DWIDTH 12 0
BBX 12 12 0 4
BITMAP
000004200000
00002FA00000
00001D800000
000000000000
000024579AA3
0BDFFFFFFFF7
19A987654431
000000000000
000000000000
000002300000
00000AF10000
000009B00000
ENDCHAR
STARTCHAR oslash
ENCODING 248
SWIDTH 266 0
DWIDTH 10 0
BBX 11 24 -1 -3
BITMAP
000000002E70
00018C807F30
0009FFFADD00
000DFDDFF700
002FB00AF200
005F400EF600
009F004FFA00
00BD00AEDD00
00EC01EACE00
01FA05F4CE00
03FA0BE0DE00
04FA1F80EE00
05FA6F31FD00
05FACD04FB00
04FCF707F800
03FFF20CF400
02FFB02FE000
01FF60AF7000
00FF6AFD0000
00EFFFD20000
05FED8100000
0AE000000000
1E9000000000
0C3000000000
ENDCHAR
STARTCHAR ugrave
ENCODING 249
SWIDTH 387 0
DWIDTH 14 0
BBX 12 28 1 -1
BITMAP
000350000000
0008F4000000
0005FE200000
0000AFB00000
00001CF20000
000001900000
000000000000
000000000000
000000000000
450000001310
CF0000005FA0
BF0000005FA0
BF1000005FA0
BF1000005F90
BF2000006F90
BF3000007F90
AF4000008F90
9F5000009F80
9F600000BF80
8F600002FF90
7F700008FFA0
5F80001EFFB0
3FA0009FFFC0
0FD004FF8DE0
0BF24EFB0AF2
04FFFFC108F6
00AFF90005FA
000430000097
ENDCHAR
STARTCHAR uacute
ENCODING 250
SWIDTH 387 0
DWIDTH 14 0
BBX 12 27 1 -1
BITMAP
0000001BA000
000001CFB000
00000BFE3000
00005FE30000
00003B200000
000000000000
000000000000
000000000000
450000001310
CF0000005FA0
BF0000005FA0
BF1000005FA0
BF1000005F90
BF2000006F90
BF3000007F90
AF4000008F90
9F5000009F80
9F600000BF80
8F600002FF90
7F700008FFA0
5F80001EFFB0
3FA0009FFFC0
0FD004FF8DE0
0BF24EFB0AF2
04FFFFC108F6
00AFF90005FA
000430000097
ENDCHAR
STARTCHAR ucircumflex
ENCODING 251
SWIDTH 387 0
DWIDTH 14 0
BBX 14 35 0 -1
BITMAP
00000370000000
00001EF8000000
00008FEF500000
0001EC0BF40000
0009F401DE2000
002FA0002ED100
00AF200005FC00
03F80000008FC2
0BE10000000AF3
2F600000000140
01000000000000
00000000000000
00000000000000
00000000000000
00000000000000
00000000000000
04500000013100
0CF0000005FA00
0BF0000005FA00
0BF1000005FA00
0BF1000005F900
0BF2000006F900
0BF3000007F900
0AF4000008F900
09F5000009F800
09F600000BF800
08F600002FF900
07F700008FFA00
05F80001EFFB00
03FA0009FFFC00
00FD004FF8DE00
00BF24EFB0AF20
004FFFFC108F60
000AFF90005FA0
00004300000970
ENDCHAR
STARTCHAR udieresis
ENCODING 252
SWIDTH 387 0
DWIDTH 14 0
BBX 12 28 1 -1
BITMAP
003BB006C700
008FD00DF900
001620036000
000000000000
000000000000
000000000000
000000000000
000000000000
000000000000
450000001310
CF0000005FA0
BF0000005FA0
BF1000005FA0
BF1000005F90
BF2000006F90
BF3000007F90
AF4000008F90
9F5000009F80
9F600000BF80
8F600002FF90
7F700008FFA0
5F80001EFFB0
3FA0009FFFC0
0FD004FF8DE0
0BF24EFB0AF2
04FFFFC108F6
00AFF90005FA
000430000097
ENDCHAR
STARTCHAR yacute
ENCODING 253
SWIDTH 363 0
DWIDTH 13 0
BBX 13 40 0 -14
BITMAP
00000004E40000
0000004FF50000
000003EFA00000
00000BFB100000
00000790000000
00000000000000
00000000000000
00000000002A20
00000000004F50
05200000005F50
2FE10000006F50
1EF80000007F50
06FF2000008F40
00CFA000009F40
003FF40000AF40
0008FC0000BF30
0001DF6000CF30
00004FE200CF30
00000AFB00DF20
000001EF70EF20
0000006FF6FF10
0000000CFFFF10
00000003FFFF00
000000008FFE00
000000001DFD00
0000000004FC00
0000000001FB00
0000000003FA00
0000000004F900
0000000005F800
0000000006F700
0000000007F500
0000000009F400
000000000AF300
000000000BF200
000000000CF100
000000000DE000
000000000ED000
000000001FC000
00000000175000
ENDCHAR
STARTCHAR thorn
ENCODING 254
SWIDTH 439 0
DWIDTH 16 0
BBX 14 25 1 -1
BITMAP
43000000000000
DF100000000000
EF200027BCB930
DF1019FFDBBDF7
DE05EE820000CE
CE9FB2000000DF
CFFA00000003FB
BFD10000000AF3
AF600000005F80
9F10000003EC00
8F1000004EC100
7F200008FD1000
6F4003CFC20000
6F607FFB100000
5FACFF90000000
5FFFF600000000
4FFD3000000000
5F910000000000
5F500000000000
6F400000000000
6F300000000000
7F200000000000
9F100000000000
AF100000000000
8C000000000000
ENDCHAR
STARTCHAR ydieresis
ENCODING 255
SWIDTH 363 0
DWIDTH 13 0
BBX 13 41 0 -14
BITMAP
0007C601AC2000
000EF705FF3000
00045000640000
00000000000000
00000000000000
00000000000000
00000000000000
00000000000000
00000000002A20
00000000004F50
05200000005F50
2FE10000006F50
1EF80000007F50
06FF2000008F40
00CFA000009F40
003FF40000AF40
0008FC0000BF30
0001DF6000CF30
00004FE200CF30
00000AFB00DF20
000001EF70EF20
0000006FF6FF10
0000000CFFFF10
00000003FFFF00
000000008FFE00
000000001DFD00
0000000004FC00
0000000001FB00
0000000003FA00
0000000004F900
0000000005F800
0000000006F700
0000000007F500
0000000009F400
000000000AF300
000000000BF200
000000000CF100
000000000DE000
000000000ED000
000000001FC000
00000000175000
ENDCHAR
STARTCHAR Amacron
ENCODING 256
SWIDTH 390 0
DWIDTH 14 0
BBX 18 33 0 -1
BITMAP
0000013579AAA00000
69BCEFFFFFFFF00000
BDDBA9876543200000
000000000000000000
000000000000000000
0005F4000000000000
0008FD000000000000
0009FF600000000000
000BFFC00000000000
000DFFF30000000000
000FE5F80000000000
001FD0BD0000000000
003FC05F4000000000
005FA01E9000000000
006F900AE000000000
008F7006F500000000
009F6001FA00000000
00BF4000CF10000000
00DF30008F60003650
00EF20005FD49EFFF2
01FF10001FFFFB65A0
02FF00009FF8100000
04FF015DFFF6000000
05FFDFFC78FA000000
06FFE72001EE000000
08FC100000AF300000
09F40000005F700000
0AF10000001FB00000
0CF00000000BE00000
0DD000000007F30000
0FC000000002F70000
011000000000C60000
000000000000200000
ENDCHAR
STARTCHAR amacron
ENCODING 257
SWIDTH 366 0
DWIDTH 13 0
BBX 14 27 0 0
BITMAP
00000135689AB1
59ACEFFFFFFFF2
9EDCA987654320
00000000000000
00000000000000
00000000000000
00000000000000
00000002661000
0000007FFFD000
000006FFFFF300
00004FFA2FF200
0000DFB00FF100
0007FE202FF100
001EF7005FF200
007FD0009FF300
00DF7001EFF400
05FE1008FFF600
0BF7002EF7F800
1FF200AF91FA00
5FA003FF20EC00
AF500CF800CE00
DE007FE100AF10
EC03FF50008F20
DE4DFA00007F30
AFFFD100005F40
4FFD2000003F40
04610000000710
ENDCHAR
STARTCHAR Abreve
ENCODING 258
SWIDTH 390 0
DWIDTH 14 0
BBX 17 36 1 -1
BITMAP
020000006500000000
1F900006FA00000000
0AF7005FF500000000
01CFDCFF9000000000
001CFFF80000000000
000057200000000000
000000000000000000
000000000000000000
005F40000000000000
008FD0000000000000
009FF6000000000000
00BFFC000000000000
00DFFF300000000000
00FE5F800000000000
01FD0BD00000000000
03FC05F40000000000
05FA01E90000000000
06F900AE0000000000
08F7006F5000000000
09F6001FA000000000
0BF4000CF100000000
0DF30008F600036500
0EF20005FD49EFFF20
1FF10001FFFFB65A00
2FF00009FF81000000
4FF015DFFF60000000
5FFDFFC78FA0000000
6FFE72001EE0000000
8FC100000AF3000000
9F40000005F7000000
AF10000001FB000000
CF00000000BE000000
DD000000007F300000
FC000000002F700000
11000000000C600000
000000000002000000
ENDCHAR
STARTCHAR abreve
ENCODING 259
SWIDTH 366 0
DWIDTH 13 0
BBX 13 27 0 0
BITMAP
00020000017300
004F500009F600
001DE4008FF200
0003EFCDFF5000
00004EFFE50000
00000166100000
00000000000000
00000002661000
0000007FFFD000
000006FFFFF300
00004FFA2FF200
0000DFB00FF100
0007FE202FF100
001EF7005FF200
007FD0009FF300
00DF7001EFF400
05FE1008FFF600
0BF7002EF7F800
1FF200AF91FA00
5FA003FF20EC00
AF500CF800CE00
DE007FE100AF10
EC03FF50008F20
DE4DFA00007F30
AFFFD100005F40
4FFD2000003F40
04610000000710
ENDCHAR
STARTCHAR Aogonek
ENCODING 260
SWIDTH 390 0
DWIDTH 14 0
BBX 17 36 1 -9
BITMAP
005F40000000000000
008FD0000000000000
009FF6000000000000
00BFFC000000000000
00DFFF300000000000
00FE5F800000000000
01FD0BD00000000000
03FC05F40000000000
05FA01E90000000000
06F900AE0000000000
08F7006F5000000000
09F6001FA000000000
0BF4000CF100000000
0DF30008F600036500
0EF20005FD49EFFF20
1FF10001FFFFB65A00
2FF00009FF81000000
4FF015DFFF60000000
5FFDFFC78FA0000000
6FFE72001EE0000000
8FC100000AF3000000
9F40000005F7000000
AF10000001FB000000
CF00000000CE000000
DD000000007F300000
FC000000003F700000
11000000003F600000
0000000006FF300000
000000003FE4000000
00000000AF70000000
00000000EE10000000
00000002FB00000000
00000001FC00002500
00000000BF836CFF30
000000003EFFFFFA00
0000000003ACC94000
ENDCHAR
STARTCHAR aogonek
ENCODING 261
SWIDTH 366 0
DWIDTH 13 0
BBX 16 28 0 -8
BITMAP
0000000266100000
0000007FFFD00000
000006FFFFF30000
00004FFA2FF20000
0000DFB00FF10000
0007FE202FF10000
001EF7005FF20000
007FD0009FF30000
00DF7001EFF40000
05FE1008FFF60000
0BF7002EF7F80000
1FF200AF91FA0000
5FA003FF20EC0000
AF500CF800CE0000
DE007FE100AF1000
EC03FF50008F2000
DE4DFA00007F3000
AFFFD100005F4000
4FFD200001BF4000
046100001DFB1000
000000009F900000
00000001FE100000
00000004FA000000
00000005F8000000
00000003FB000389
00000000CFB9DFFE
000000002EFFFFC3
0000000001576300
ENDCHAR
STARTCHAR Cacute
ENCODING 262
SWIDTH 487 0
DWIDTH 18 0
BBX 17 33 0 -1
BITMAP
0000000008E0000000
000000008FE1000000
00000007FF60000000
0000001FF700000000
0000001B5000000000
000000001320000000
00000008FFF9000000
0000009FD9DF600000
000007FB101CC00000
00002ED10001800000
00009F500000000000
0002FC000000000000
0007F6000000000000
000DE1000000000000
002FA0000000000000
006F60000000000000
00AF20000000000000
00ED00000000000000
03F900000000000000
06F600000000000000
09F300000000000000
0BF000000000001620
0DD000000000007F90
0FB00000000001EF40
1FA00000000008FC00
2FB0000000003FF200
0FC000000001DF6000
0DE00000001CF70000
09F4000002CF700000
03FD20017EE5000000
009FFDCFFC20000000
0007DFFC6000000000
000001100000000000
ENDCHAR
STARTCHAR cacute
ENCODING 263
SWIDTH 390 0
DWIDTH 14 0
BBX 13 29 0 0
BITMAP
0000000AC00000
000000AFD00000
000009FF400000
00003FF5000000
00002B40000000
00000000000000
00000000000000
00000131000000
00008FFE200000
0009FEBF900000
003FF33FC00000
00AFA00FE00000
00EF300AF00000
03FE0003F00000
06F90000200000
09F60000000000
0AF30000000000
0CF00000000000
0ED00000000000
0FB00000000000
1FA000000005A0
1FA00000000DC0
0FA00000004FB0
0CC00000009F80
09F1000001EF30
05F7000008FA00
00DF50007FD100
004FFCCEFC2000
0004CEEB600000
ENDCHAR
STARTCHAR Ccircumflex
ENCODING 264
SWIDTH 487 0
DWIDTH 18 0
BBX 17 37 0 -1
BITMAP
000000063000000000
0000006FE200000000
000000DEED10000000
000007F63EC0000000
00001EC005FA000000
00008F40008F800000
0002EA00000BF60000
0009F2000001DF8000
002F800000003EC000
008E10001320031000
00010008FFF9000000
0000009FD9DF600000
000007FB101CC00000
00002ED10001800000
00009F500000000000
0002FC000000000000
0007F6000000000000
000DE1000000000000
002FA0000000000000
006F60000000000000
00AF20000000000000
00ED00000000000000
03F900000000000000
06F600000000000000
09F300000000000000
0BF000000000001620
0DD000000000007F90
0FB00000000001EF40
1FA00000000008FC00
2FB0000000003FF200
0FC000000001DF6000
0DE00000001CF70000
09F4000002CF700000
03FD20017EE5000000
009FFDCFFC20000000
0007DFFC6000000000
000001100000000000
ENDCHAR
STARTCHAR ccircumflex
ENCODING 265
SWIDTH 390 0
DWIDTH 14 0
BBX 14 34 0 0
BITMAP
00000370000000
00001DF8000000
00007FEF600000
0001EC0AF40000
0008F401CE3000
002FB0002ED100
009F200004FC10
02F80000007FD2
0AE10000000AF4
1F600000000140
01000000000000
00000000000000
00000131000000
00008FFE200000
0009FEBF900000
003FF33FC00000
00AFA00FE00000
00EF300AF00000
03FE0003F00000
06F90000200000
09F60000000000
0AF30000000000
0CF00000000000
0ED00000000000
0FB00000000000
1FA000000005A0
1FA00000000DC0
0FA00000004FB0
0CC00000009F80
09F1000001EF30
05F7000008FA00
00DF50007FD100
004FFCCEFC2000
0004CEEB600000
ENDCHAR
STARTCHAR Cdotaccent
ENCODING 266
SWIDTH 487 0
DWIDTH 18 0
BBX 17 33 0 -1
BITMAP
00000006D900000000
0000000CF900000000
000000024000000000
000000000000000000
000000000000000000
000000001320000000
00000008FFF9000000
0000009FD9DF600000
000007FB101CC00000
00002ED10001800000
00009F500000000000
0002FC000000000000
0007F6000000000000
000DE1000000000000
002FA0000000000000
006F60000000000000
00AF20000000000000
00ED00000000000000
03F900000000000000
06F600000000000000
09F300000000000000
0BF000000000001620
0DD000000000007F90
0FB00000000001EF40
1FA00000000008FC00
2FB0000000003FF200
0FC000000001DF6000
0DE00000001CF70000
09F4000002CF700000
03FD20017EE5000000
009FFDCFFC20000000
0007DFFC6000000000
000001100000000000
ENDCHAR
STARTCHAR cdotaccent
ENCODING 267
SWIDTH 390 0
DWIDTH 14 0
BBX 13 25 0 0
BITMAP
00002930000000
00008F60000000
00002700000000
00000131000000
00009FFD100000
000AFEBF700000
004FF34FB00000
00BF801FD00000
01FF200CE00000
04FC0004E00000
07F80000200000
0AF50000000000
0CF20000000000
0DE00000000000
0FC00000000000
1FA00000000000
2F900000000690
2F900000001EB0
1F900000005FA0
0EB0000000AF60
0AE0000001FF20
06F6000009F900
01EE40008FC100
005FFCCEFB1000
0004CEEB500000
ENDCHAR
STARTCHAR Ccaron
ENCODING 268
SWIDTH 487 0
DWIDTH 18 0
BBX 17 35 0 -1
BITMAP
000C50000000032000
0007E30000005FC000
0000BD100006F91000
00001EB0007F700000
000004F809E4000000
0000008FED30000000
00000009A100000000
000000001320000000
00000008FFF9000000
0000009FD9DF600000
000007FB101CC00000
00002ED10001800000
00009F500000000000
0002FC000000000000
0007F6000000000000
000DE1000000000000
002FA0000000000000
006F60000000000000
00AF20000000000000
00ED00000000000000
03F900000000000000
06F600000000000000
09F300000000000000
0BF000000000001620
0DD000000000007F90
0FB00000000001EF40
1FA00000000008FC00
2FB0000000003FF200
0FC000000001DF6000
0DE00000001CF70000
09F4000002CF700000
03FD20017EE5000000
009FFDCFFC20000000
0007DFFC6000000000
000001100000000000
ENDCHAR
STARTCHAR ccaron
ENCODING 269
SWIDTH 390 0
DWIDTH 14 0
BBX 13 29 0 0
BITMAP
09700000000230
04F50000003EF0
008E300004EB20
000CD1005F9000
0002EB06F70000
00005FEE400000
000007B3000000
00000131000000
00008FFE200000
0009FEBF900000
003FF33FC00000
00AFA00FE00000
00EF300AF00000
03FE0003F00000
06F90000200000
09F60000000000
0AF30000000000
0CF00000000000
0ED00000000000
0FB00000000000
1FA000000005A0
1FA00000000DC0
0FA00000004FB0
0CC00000009F80
09F1000001EF30
05F7000008FA00
00DF50007FD100
004FFCCEFC2000
0004CEEB600000
ENDCHAR
STARTCHAR Dcaron
ENCODING 270
SWIDTH 554 0
DWIDTH 20 0
BBX 20 34 0 0
BITMAP
00004B20000000040000
00000CC00000009F7000
000002E900001AE60000
0000005F6001BD300000
00000009F41CC2000000
00000000CEEA10000000
000000002B7000000000
00009000000000000000
0002F200000000000000
0008FDBBBA8631000000
005FFFFEEFFFFFC61000
08FFFC10001369EFD400
2FDBFA0000000016EF30
0407FA00000000003FC0
0006F900000000000AF1
0005F9000000000009F2
0004FA00000000000AE0
0003FA00000000000EA0
0001FA00000000004F50
0000FB0000000000BE00
0000EB0000000004F800
0000DC000000001DE100
0000CD000000009F6000
0000BE00000007FC0000
0000AF0000004FE20000
00009F100002EF600000
00008F10002DF9000000
00007F2001DFC0000000
00005F201CFD10000000
00004F20BFE200000000
00003F2AFE3000000000
0000047FE30000000000
000002FE300000000000
000003E3000000000000
ENDCHAR
STARTCHAR Emacron
ENCODING 274
SWIDTH 474 0
DWIDTH 17 0
BBX 16 31 1 0
BITMAP
0000013578AAA000
59BCEFFFFFFFF100
BDDBA98765432000
0000000000000000
0000000000002100
2910000016BED200
BF70004BFFD60000
9FB05CFFD6000000
5FECFFE600000000
3FFFE70000000000
2FF7000000000000
0FD0000000000000
0DE0000000000000
0CE0000000000000
0BF00000004D3000
0AF1000029FB0000
09F20018EF800000
08F306EFB2000000
07F8CFC400000000
07FFE50000000000
07FE200000000000
07FC000000000000
07FC0000000019E6
07FC00000005EFA1
07FC000001AFD400
07FC00004DFA1000
07FC0019FE500000
07FC28EFA1000000
07FFFFD400000000
07FFE70000000000
0286100000000000
ENDCHAR
STARTCHAR emacron
ENCODING 275
SWIDTH 461 0
DWIDTH 17 0
BBX 17 27 -1 0
BITMAP
0000000013579AB700
0007ABCEFFFFFFFC00
001DDCBA9876543100
000000000000000000
000000000000000000
000000000000000000
000000000000000000
000000000100000000
00000019EFE8100000
000002DFFEFFC10000
00000BFE402CF90000
00004FF40009FD0000
0000CF80007FF60000
0003FE102AFE400000
000AFA39FF91000000
002FFFFFB300000000
009FFFD50000000000
05FFF7000000000530
3FFFE0000000006FB0
178FB000000003FF60
001FA00000000CFC00
000FA00000009FE200
000FA0000007FE3000
000DB000006FE30000
0009E3002AFC200000
0002EFCDFF90000000
00004CFEA300000000
ENDCHAR
STARTCHAR Ebreve
ENCODING 276
SWIDTH 474 0
DWIDTH 17 0
BBX 16 33 1 0
BITMAP
0001100000280000
0009E10001DF1000
0004FC201CFC0000
00006FEBEFE20000
000007FFFC200000
0000003750000000
0000000000002100
2910000016BED200
BF70004BFFD60000
9FB05CFFD6000000
5FECFFE600000000
3FFFE70000000000
2FF7000000000000
0FD0000000000000
0DE0000000000000
0CE0000000000000
0BF00000004D3000
0AF1000029FB0000
09F20018EF800000
08F306EFB2000000
07F8CFC400000000
07FFE50000000000
07FE200000000000
07FC000000000000
07FC0000000019E6
07FC00000005EFA1
07FC000001AFD400
07FC00004DFA1000
07FC0019FE500000
07FC28EFA1000000
07FFFFD400000000
07FFE70000000000
0286100000000000
ENDCHAR
STARTCHAR ebreve
ENCODING 277
SWIDTH 461 0
DWIDTH 17 0
BBX 17 27 -1 0
BITMAP
000001100000281000
000009E20001DF2000
000004FD201BFC0000
0000006FEBEFE20000
00000007FFFD200000
000000002750000000
000000000000000000
000000000100000000
00000019EFE8100000
000002DFFEFFC10000
00000BFE402CF90000
00004FF40009FD0000
0000CF80007FF60000
0003FE102AFE400000
000AFA39FF91000000
002FFFFFB300000000
009FFFD50000000000
05FFF7000000000530
3FFFE0000000006FB0
178FB000000003FF60
001FA00000000CFC00
000FA00000009FE200
000FA0000007FE3000
000DB000006FE30000
0009E3002AFC200000
0002EFCDFF90000000
00004CFEA300000000
ENDCHAR
STARTCHAR Edotaccent
ENCODING 278
SWIDTH 474 0
DWIDTH 17 0
BBX 16 29 1 0
BITMAP
00001AE400000000
00002FF400000000
0000043000002100
2910000016BED200
BF70004BFFD60000
9FB05CFFD6000000
5FECFFE600000000
3FFFE70000000000
2FF7000000000000
0FD0000000000000
0DE0000000000000
0CE0000000000000
0BF00000004D3000
0AF1000029FB0000
09F20018EF800000
08F306EFB2000000
07F8CFC400000000
07FFE50000000000
07FE200000000000
07FC000000000000
07FC0000000019E6
07FC00000005EFA1
07FC000001AFD400
07FC00004DFA1000
07FC0019FE500000
07FC28EFA1000000
07FFFFD400000000
07FFE70000000000
0286100000000000
ENDCHAR
STARTCHAR edotaccent
ENCODING 279
SWIDTH 461 0
DWIDTH 17 0
BBX 17 22 -1 0
BITMAP
000000007E80000000
00000000DF80000000
000000002500000000
00000019EFE8100000
000002DFFEFFC10000
00000BFE402CF90000
00004FF40009FD0000
0000CF80007FF60000
0003FE102AFE400000
000AFA39FF91000000
002FFFFFB300000000
009FFFD50000000000
05FFF7000000000530
3FFFE0000000006FB0
178FB000000003FF60
001FA00000000CFC00
000FA00000009FE200
000FA0000007FE3000
000DB000006FE30000
0009E3002AFC200000
0002EFCDFF90000000
00004CFEA300000000
ENDCHAR
STARTCHAR Eogonek
ENCODING 280
SWIDTH 474 0
DWIDTH 17 0
BBX 16 31 1 -4
BITMAP
0000000000002100
2910000016BED200
BF70004BFFD60000
9FB05CFFD6000000
5FECFFE600000000
3FFFE70000000000
2FF7000000000000
0FD0000000000000
0DE0000000000000
0CE0000000000000
0BF00000004D3000
0AF1000029FB0000
09F20018EF800000
08F306EFB2000000
07F8CFC400000000
07FFE50000000000
07FE200000000000
07FC000000000000
07FC0000000019E6
07FC00000005EFA1
07FC000001AFD400
07FC00004DF91000
07FC0019FF800000
07FC28EFF6000000
07FFFFFFC0000000
07FFE78F60000000
0286109F40000000
0000007F70004960
0000002FF99DFFA0
00000006FFFFFA10
0000000026752000
ENDCHAR
STARTCHAR eogonek
ENCODING 281
SWIDTH 461 0
DWIDTH 17 0
BBX 17 28 -1 -8
BITMAP
000000000100000000
00000019EFE8100000
000002DFFEFFC10000
00000BFE402CF90000
00004FF40009FD0000
0000CF80007FF60000
0003FE102AFE400000
000AFA39FF91000000
002FFFFFB300000000
009FFFD50000000000
05FFF7000000000530
3FFFE0000000006FB0
178FB000000003FF60
001FA00000000CFC00
000FA00000009FE200
000FA0000007FE3000
000DB000006FE30000
0009E3002AFC200000
0002EFCDFF90000000
00004CFFF900000000
000000AF8000000000
000001FE1000000000
000004F90000000000
000005F80000000000
000002FC0016BC0000
000000BFDBEFFD0000
0000001CFFFFA10000
000000003431000000
ENDCHAR
STARTCHAR Ecaron
ENCODING 282
SWIDTH 474 0
DWIDTH 17 0
BBX 16 33 1 0
BITMAP
0B50000000022000
06F30000004ED000
00AE200005FA1000
001DC0007F700000
0003F908E5000000
00007FED30000000
000009B100002100
2910000016BED200
BF70004BFFD60000
9FB05CFFD6000000
5FECFFE600000000
3FFFE70000000000
2FF7000000000000
0FD0000000000000
0DE0000000000000
0CE0000000000000
0BF00000004D3000
0AF1000029FB0000
09F20018EF800000
08F306EFB2000000
07F8CFC400000000
07FFE50000000000
07FE200000000000
07FC000000000000
07FC0000000019E6
07FC00000005EFA1
07FC000001AFD400
07FC00004DFA1000
07FC0019FE500000
07FC28EFA1000000
07FFFFD400000000
07FFE70000000000
0286100000000000
ENDCHAR
STARTCHAR ecaron
ENCODING 283
SWIDTH 461 0
DWIDTH 17 0
BBX 17 29 -1 0
BITMAP
0007A0000000013000
0002E80000001CF300
00005F500002DD3000
000009F3003EC10000
000000CD14E9000000
0000002EEF70000000
00000005C500000000
000000000000000000
000000000000000000
000000000100000000
00000019EFE8100000
000002DFFEFFC10000
00000BFE402CF90000
00004FF40009FD0000
0000CF80007FF60000
0003FE102AFE400000
000AFA39FF91000000
002FFFFFB300000000
009FFFD50000000000
05FFF7000000000530
3FFFE0000000006FB0
178FB000000003FF60
001FA00000000CFC00
000FA00000009FE200
000FA0000007FE3000
000DB000006FE30000
0009E3002AFC200000
0002EFCDFF90000000
00004CFEA300000000
ENDCHAR
STARTCHAR Gcircumflex
ENCODING 284
SWIDTH 591 0
DWIDTH 21 0
BBX 21 38 0 -4
BITMAP
0000000006300000000000
000000006FE20000000000
00000001EEED1000000000
00000007F53EB000000000
0000001EC005F900000000
0000008F30008F70000000
000002FA00000BF5000000
00000AE2000001DF800000
00003F800000003EB00000
00009D1000000003100000
0000010000015630000000
00000000019FFFF1000000
000000002CFFC720000000
00000002DE820000000000
0000001DE2000000000000
000000AF60000000000000
000006FA00000000000000
00001ED100000000000000
0000AF5000000000000000
0003FB0000000000145630
000AF300000015ADFFFF60
002FA0000007EFFFFFF400
009F300000044444CFB000
00EC000000000003FF6000
05F600000000000BFF3000
09F200000000005FFF1000
0DD00000000002EFFE0000
1FB0000000001CFEFD0000
3F9000000001CFE4FC0000
3FA00000003DFD21FB0000
2FF5000018FFB102FC0000
09FFEBBCFFF80003FC0000
008EFFFFFB300003FD0000
0001688620000003FE0000
0000000000000002FF0000
0000000000000001FF2000
0000000000000000CF4000
00000000000000006A1000
ENDCHAR
STARTCHAR gcircumflex
ENCODING 285
SWIDTH 437 0
DWIDTH 16 0
BBX 15 50 0 -16
BITMAP
0000004500000000
000002FF50000000
00000AFEE3000000
00003F91DE200000
0000BE102EC10000
0004F70004FB0000
000CD000007F9000
006F5000000AFB00
00DB00000001DF10
05F3000000002300
0010000000000000
0000000000000000
0000000000000000
0000000000000000
0000000059B92000
0000002CFFFFE200
000002DFB5BFF400
00001DF600AFF600
0000AF6002FFF700
0005FA0008FCF800
000DE1001ECAFA00
006F70007F6AFB00
00DE1000DF19FC00
04F80005FA08FD00
09F3000DF307FF00
0ED0006FB006FF10
2F9001DF4005FF20
5F7008FB0004FF30
6F604FF30003FF40
4FD8EF800002FF50
0DFFFB000001FF60
03DFA1000001FF70
000000000000FF80
000000000000FF80
000000000000FF80
000000000000FF60
000000000001FF50
000000000002FF20
000000000004FE00
000000000006FB00
000000000009F700
00000000000DF200
00000000003FC000
0000000000BF5000
0000000005FD0000
000000004EF50000
00000006EFA00000
000369DFFB000000
001BFFFE80000000
0000144100000000
ENDCHAR
STARTCHAR Gbreve
ENCODING 286
SWIDTH 591 0
DWIDTH 21 0
BBX 21 34 0 -4
BITMAP
0000000110000038000000
0000000AE10001EF000000
00000005FC102CFB000000
000000007FEBEFD1000000
0000000008FFFC20000000
0000000000375000000000
0000000000015630000000
00000000019FFFF1000000
000000002CFFC720000000
00000002DE820000000000
0000001DE2000000000000
000000AF60000000000000
000006FA00000000000000
00001ED100000000000000
0000AF5000000000000000
0003FB0000000000145630
000AF300000015ADFFFF60
002FA0000007EFFFFFF400
009F300000044444CFB000
00EC000000000003FF6000
05F600000000000BFF3000
09F200000000005FFF1000
0DD00000000002EFFE0000
1FB0000000001CFEFD0000
3F9000000001CFE4FC0000
3FA00000003DFD21FB0000
2FF5000018FFB102FC0000
09FFEBBCFFF80003FC0000
008EFFFFFB300003FD0000
0001688620000003FE0000
0000000000000002FF0000
0000000000000001FF2000
0000000000000000CF4000
00000000000000006A1000
ENDCHAR
STARTCHAR gbreve
ENCODING 287
SWIDTH 437 0
DWIDTH 16 0
BBX 15 45 0 -16
BITMAP
0000200000065000
0001F900005FA000
0000AF8005FF5000
00001CFDCFF90000
000001CFFF800000
0000000573000000
0000000000000000
0000000000000000
0000000000000000
0000000059B92000
0000002CFFFFE200
000002DFB5BFF400
00001DF600AFF600
0000AF6002FFF700
0005FA0008FCF800
000DE1001ECAFA00
006F70007F6AFB00
00DE1000DF19FC00
04F80005FA08FD00
09F3000DF307FF00
0ED0006FB006FF10
2F9001DF4005FF20
5F7008FB0004FF30
6F604FF30003FF40
4FD8EF800002FF50
0DFFFB000001FF60
03DFA1000001FF70
000000000000FF80
000000000000FF80
000000000000FF80
000000000000FF60
000000000001FF50
000000000002FF20
000000000004FE00
000000000006FB00
000000000009F700
00000000000DF200
00000000003FC000
0000000000BF5000
0000000005FD0000
000000004EF50000
00000006EFA00000
000369DFFB000000
001BFFFE80000000
0000144100000000
ENDCHAR
STARTCHAR Gdotaccent
ENCODING 288
SWIDTH 591 0
DWIDTH 21 0
BBX 21 33 1 -4
BITMAP
000000001AE40000000000
000000002FF40000000000
0000000004300000000000
0000000000000000000000
0000000000000000000000
0000000000036610000000
0000000002BFFFB0000000
000000005EFFA510000000
00000005FD610000000000
0000004FB0000000000000
000001EE20000000000000
00000BF500000000000000
00005F9000000000000000
0001EE1000000000000000
0008F60000000000246610
001EC000000027BEFFFE20
007F5000001AFFFFFFC100
00DD000000244445FF6000
04F7000000000007FF1000
0AF200000000002EFD0000
0EC00000000000AFFB0000
3F800000000006FFF90000
6F60000000004FFEF80000
8F4000000004EFB6F70000
8F500000006FFA06F70000
7FD200003BFF8007F70000
1DFFDBBDFFE50008F80000
01BFFFFFF9100008F80000
0002688510000008F90000
0000000000000007FA0000
0000000000000005FC0000
0000000000000002FE0000
0000000000000000B70000
ENDCHAR
STARTCHAR gdotaccent
ENCODING 289
SWIDTH 437 0
DWIDTH 16 0
BBX 15 40 0 -16
BITMAP
000000003CD00000
000000008FD00000
0000000015100000
0000000000000000
0000000059B92000
0000002CFFFFE200
000002DFB5BFF400
00001DF600AFF600
0000AF6002FFF700
0005FA0008FCF800
000DE1001ECAFA00
006F70007F6AFB00
00DE1000DF19FC00
04F80005FA08FD00
09F3000DF307FF00
0ED0006FB006FF10
2F9001DF4005FF20
5F7008FB0004FF30
6F604FF30003FF40
4FD8EF800002FF50
0DFFFB000001FF60
03DFA1000001FF70
000000000000FF80
000000000000FF80
000000000000FF80
000000000000FF60
000000000001FF50
000000000002FF20
000000000004FE00
000000000006FB00
000000000009F700
00000000000DF200
00000000003FC000
0000000000BF5000
0000000005FD0000
000000004EF50000
00000006EFA00000
000369DFFB000000
001BFFFE80000000
0000144100000000
ENDCHAR
STARTCHAR Gcommaaccent
ENCODING 290
SWIDTH 591 0
DWIDTH 21 0
BBX 21 36 0 -12
BITMAP
0000000000015630000000
00000000019FFFF1000000
000000002CFFC720000000
00000002DE820000000000
0000001DE2000000000000
000000AF60000000000000
000006FA00000000000000
00001ED100000000000000
0000AF5000000000000000
0003FB0000000000145630
000AF300000015ADFFFF60
002FA0000007EFFFFFF400
009F300000044444CFB000
00EC000000000003FF6000
05F600000000000BFF3000
09F200000000005FFF1000
0DD00000000002EFFE0000
1FB0000000001CFEFD0000
3F9000000001CFE4FC0000
3FA00000003DFD21FB0000
2FF5000018FFB102FC0000
09FFEBBCFFF80003FC0000
008EFFFFFB300003FD0000
0001688620000003FE0000
0000000000000002FF0000
0000000000000001FF2000
0000000000000000CF4000
00000000028200006A1000
000000000BF90000000000
000000000CFB0000000000
0000000008FB0000000000
0000000008F90000000000
0000000008F50000000000
0000000009F20000000000
0000000009D00000000000
0000000006400000000000
ENDCHAR
STARTCHAR Hcircumflex
ENCODING 292
SWIDTH 424 0
DWIDTH 15 0
BBX 15 38 0 -1
BITMAP
0000037000000000
00000DF900000000
00007FEF60000000
0001ED0AF4000000
0008F501CE300000
001EB0002ED20000
009F300004FC1000
02F90000007FD300
0AE10000000AF400
1F70000000014000
0100000000000000
0000000000000000
0000000000000000
0A80000000B90000
0EE0000000DF2000
0DF00000009F4000
0DF00000006F6000
0CF00000003F7000
0CF10000001F9000
0BF10000001FA000
0BF20000001FB000
0AF20000003FD000
0AF30000007FE000
09F4000002EFF100
09F500003DFFF200
08F60028FE67F400
08F94AFF9106F500
07FFFFB30005F600
06FFE5000003F800
06FE20000002F900
05F800000001FB00
05F500000000EC00
04F500000000DE00
04F600000000CF00
03F800000000BF10
03FA000000009F10
02F7000000004C00
0010000000000000
ENDCHAR
STARTCHAR hcircumflex
ENCODING 293
SWIDTH 466 0
DWIDTH 17 0
BBX 17 35 1 -1
BITMAP
000000003700000000
00000000DF80000000
00000007FEF6000000
0000001ED0AF400000
0000008F401CE30000
000002EB0002ED1000
000009F200004FC100
55002F90000007FD20
CF00AE10000000AF40
CF01F6000000001400
CF1010000000000000
CF1000000000000000
CF1000000000000000
CF2000000000000000
CF2000000000000000
CF2000000000000000
CF3000001589720000
CF300006EFFFFE1000
CF40007FFFC7CF7000
CF4003FFF8007F9000
CF400CFF80006FA000
CF504FFB00006FA000
CF50AFF200005FA000
CF51FF8000005FB000
CF66FE1000005FB000
CF6BF80000004FC000
CF7FE10000004FC000
CFDF900000003FC000
CFFF200000003FD000
CFF9000000003FD000
CFF2000000002FE000
CFA0000000002FE000
CF20000000001FE000
5400000000001FD000
000000000000042000
ENDCHAR
STARTCHAR Hbar
ENCODING 294
SWIDTH 424 0
DWIDTH 15 0
BBX 15 25 0 -1
BITMAP
0A80000000B90000
0EE0000000DF2000
0EE00000009F4000
0DF00000006F6000
0DF00000003F7000
0CF10000014FB100
0CF568ACEFFFF700
5FFFFFFFECCFE400
1CF53210002FD000
0AF30000007FE000
09F4000002EFF100
09F500003DFFF200
08F70028FE67F400
08F94AFF9106F500
07FFFFB30005F600
07FFE5000003F800
06FE20000002F900
06F800000001FB00
05F500000000EC00
04F500000000DE00
04F600000000CF00
03F800000000BF10
03FA000000009F10
02F7000000004C00
0010000000000000
ENDCHAR
STARTCHAR hbar
ENCODING 295
SWIDTH 466 0
DWIDTH 17 0
BBX 19 28 -3 -1
BITMAP
00005500000000000000
0000CF00000000000000
0000CF00000000000000
0000CF10000000000000
0000CF10000000000000
0000CF20000000000000
0000CF20000000000000
0000CF21356785000000
0578EFEFFFFFFC000000
1FFFFFCBA97669897200
0110CF300006EFFFFE10
0000CF40007FFFC7CF70
0000CF4003FFF8007F90
0000CF400CFF80006FA0
0000CF504FFB00006FA0
0000CF50AFF200005FA0
0000CF51FF8000005FB0
0000CF66FE1000005FB0
0000CF6BF80000004FC0
0000CF7FE10000004FC0
0000CFDF900000003FC0
0000CFFF200000003FD0
0000CFF9000000003FD0
0000CFF2000000002FE0
0000CFA0000000002FE0
0000CF20000000001FE0
00005400000000001FD0
00000000000000000420
ENDCHAR
STARTCHAR Itilde
ENCODING 296
SWIDTH 153 0
DWIDTH 6 0
BBX 14 36 -4 0
BITMAP
0049A940000011
09FFEFF50007FB
5FE209FB003FFA
AF7001EF51DFE2
8D10006FFFFD20
00000007EFA100
00000000010000
00000000000000
00000000000000
000001C7000000
000000FC000000
000000DD000000
000000CF000000
000000BF100000
000000AF200000
000000AF300000
0000009F300000
0000009F400000
0000008F400000
0000008F500000
0000008F500000
0000007F500000
0000007F600000
0000007F600000
0000006F600000
0000006F700000
0000006F700000
0000006F700000
0000005F700000
0000005F700000
0000005F700000
0000005F700000
0000004F700000
0000004F700000
0000003F700000
0000001A400000
ENDCHAR
STARTCHAR itilde
ENCODING 297
SWIDTH 132 0
DWIDTH 5 0
BBX 15 30 -5 -1
BITMAP
0001441000000000
019EFFF700008A10
0AFC59FF1007FF20
2FF200CF703FFB00
3F90004FF9EFC100
06100007FFFA1000
0000000037400000
0000000000000000
0000003600000000
0000009F40000000
000000BF40000000
000000CF40000000
000000CF40000000
000000DF40000000
000000DF40000000
000000CF40000000
000000CF30000000
000000CF30000000
000000CF30000000
000000BF30000000
000000BF30000000
000000AF30000000
000000AF30000000
0000009F30000000
0000009F30000000
0000009F30000000
0000008F30000000
0000008F40000000
0000007F40000000
0000001300000000
ENDCHAR
STARTCHAR imacron
ENCODING 299
SWIDTH 132 0
DWIDTH 5 0
BBX 13 28 -4 -1
BITMAP
0000013579AB80
7ABCEFFFFFFFD0
CDCBA987654310
00000000000000
00000000000000
00000000000000
00000360000000
000009F4000000
00000BF4000000
00000CF4000000
00000CF4000000
00000DF4000000
00000DF4000000
00000CF4000000
00000CF3000000
00000CF3000000
00000CF3000000
00000BF3000000
00000BF3000000
00000AF3000000
00000AF3000000
000009F3000000
000009F3000000
000009F3000000
000008F3000000
000008F4000000
000007F4000000
00000130000000
ENDCHAR
STARTCHAR Ibreve
ENCODING 300
SWIDTH 153 0
DWIDTH 6 0
BBX 10 35 -2 0
BITMAP
0200000074
3F700008F7
0CF5007FF3
02EFCDFF60
003DFFE600
0001662000
0000000000
0000000000
0001C70000
0000FC0000
0000DD0000
0000CF0000
0000BF1000
0000AF2000
0000AF3000
00009F3000
00009F4000
00008F4000
00008F5000
00008F5000
00007F5000
00007F6000
00007F6000
00006F6000
00006F7000
00006F7000
00006F7000
00005F7000
00005F7000
00005F7000
00005F7000
00004F7000
00004F7000
00003F7000
00001A4000
ENDCHAR
STARTCHAR ibreve
ENCODING 301
SWIDTH 132 0
DWIDTH 5 0
BBX 10 30 -2 -1
BITMAP
0000000050
6D10000AF3
5FB1007FE1
08FD8BFF50
009FFFF600
0005A82000
0000000000
0000000000
0003600000
0009F40000
000BF40000
000CF40000
000CF40000
000DF40000
000DF40000
000CF40000
000CF30000
000CF30000
000CF30000
000BF30000
000BF30000
000AF30000
000AF30000
0009F30000
0009F30000
0009F30000
0008F30000
0008F40000
0007F40000
0001300000
ENDCHAR
STARTCHAR Iogonek
ENCODING 302
SWIDTH 153 0
DWIDTH 6 0
BBX 9 34 0 -7
BITMAP
01C7000000
00FC000000
00DD000000
00CF000000
00BF100000
00AF200000
00AF300000
009F300000
009F400000
008F400000
008F500000
008F500000
007F500000
007F600000
007F600000
006F600000
006F700000
006F700000
006F700000
005F700000
005F700000
005F700000
005F700000
005F700000
004F800000
00AFB00000
08FD500000
1FF2000000
7F90000000
9F40000000
9F40000110
5FB115BFA0
0DFFFFFF60
02AEFEA400
ENDCHAR
STARTCHAR iogonek
ENCODING 303
SWIDTH 132 0
DWIDTH 5 0
BBX 9 36 -1 -9
BITMAP
0183000000
04F9000000
0073000000
0000000000
0000000000
0000000000
0036000000
009F400000
00BF400000
00CF400000
00CF400000
00DF400000
00DF400000
00CF400000
00CF300000
00CF300000
00CF300000
00BF300000
00BF300000
00AF300000
00AF300000
009F300000
009F300000
009F300000
008F300000
008F300000
01BF700000
0AFC200000
4FD1000000
AF60000000
DF10000000
EE00000000
BF4004AD40
4FFCEFFF40
06EFFFC400
0013310000
ENDCHAR
STARTCHAR Idotaccent
ENCODING 304
SWIDTH 153 0
DWIDTH 6 0
BBX 4 32 1 0
BITMAP
2CD1
7FE1
0520
0000
0000
5C30
6F60
4F80
3F90
2FA0
1FB0
0FC0
0FC0
0ED0
0ED0
0EE0
0DE0
0DF0
0DF0
0CF0
0CF0
0CF1
0CF1
0BF1
0BF1
0BF1
0BF1
0AF2
0AF2
09F2
09F2
04B0
ENDCHAR
STARTCHAR dotlessi
ENCODING 305
SWIDTH 132 0
DWIDTH 5 0
BBX 3 22 1 -1
BITMAP
3600
9F40
BF40
CF40
CF40
DF40
DF40
CF40
CF30
CF30
CF30
BF30
BF30
AF30
AF30
9F30
9F30
9F30
8F30
8F40
7F40
1300
ENDCHAR
STARTCHAR Jcircumflex
ENCODING 308
SWIDTH 371 0
DWIDTH 13 0
BBX 16 39 0 -3
BITMAP
0000000550000000
0000003FF5000000
000000BFEE300000
000004F91DE20000
00000CE102EC1000
00005F70005FB000
0000DD000008F900
0006F5000000AFB0
000DB00000001DE1
005F300000000230
0001000038000000
000000007F000000
000000007F300000
000000006F500000
000000006F700000
000000004F900000
000000003FC00000
000000001FE00000
000000000EF10000
000000000CF40000
000000000AF60000
0000000008F80000
0000000006F90000
0000000004FB0000
0000000002FC0000
0000000001FE0000
0000000000EF0000
0000000000CF1000
0000000000BF1000
0000000000AF2000
20000000009F2000
75000000008F3000
5C000000008F2000
1F600000009F1000
09E2000000AE0000
01DC100001EA0000
002DE6214CE30000
00019EFFFD300000
0000013420000000
ENDCHAR
STARTCHAR jcircumflex
ENCODING 309
SWIDTH 112 0
DWIDTH 4 0
BBX 16 47 -7 -13
BITMAP
0000000360000000
0000001EF7000000
0000008FEF500000
000002FB0BF30000
00000AF301DE2000
00003F90003ED100
0000BE100005FB00
0004F70000008FC2
000CD10000000BF3
003F500000000130
0001000000000000
0000000000000000
0000000000000000
0000000000000000
0000000000000000
0000000055000000
00000000EC000000
00000000FC000000
00000001FC000000
00000001FC000000
00000000FC000000
00000000FD000000
00000000ED000000
00000000EE000000
00000000DF000000
00000000CF100000
00000000BF200000
00000000AF300000
000000009F500000
000000008F600000
000000007F700000
000000005F800000
000000004F900000
000000004FA00000
000000003FA00000
000000002FB00000
000000001FB00000
000000001FC00000
000000002FB00000
000000004F900000
010000006F700000
2E500000AF300000
0CF50001FE000000
02DF700AF9000000
001AFBCFF2000000
00003BFF60000000
0000001100000000
ENDCHAR
STARTCHAR Kcommaaccent
ENCODING 310
SWIDTH 524 0
DWIDTH 19 0
BBX 18 37 1 -12
BITMAP
220000000000000000
ED0000000000000000
CF3000000004B10000
8F400000005FA00000
5F60000003FE100000
3F8000001DF5000000
1F900000AFA0000000
0FB00004FE10000000
0DD0001DF400000000
0CE0008F9000000000
0BF103FD1000000000
09F30CF30000000000
08F56F800000000000
07F8ED000000000000
06FFF6000000000000
04FFE0000000000000
03FFA0000000000000
02FF70000000000000
00FFFDBAA998888886
00EFFFFFFFFFFFFFF7
00CF11111111111100
009F40000000000000
006F60000000000000
003F70000000000000
000940000000000000
000000000000000000
000000000000000000
000000000000000000
000000038000000000
0000000EF500000000
0000001FF800000000
0000000CF800000000
0000000BF500000000
0000000CF200000000
0000000CE000000000
0000000DA000000000
000000072000000000
ENDCHAR
STARTCHAR kcommaaccent
ENCODING 311
SWIDTH 428 0
DWIDTH 15 0
BBX 15 40 0 -12
BITMAP
0063000000000000
01FB000000000000
02FE000000000000
02FF000000000000
03FF000000000000
03FF000000000000
04FF000000000200
05FE000000007F80
05FD00000004FF60
06FC0000001DFD00
06FB0000009FF500
07FA000004FFC000
07F900001DFF3000
08F800009FF80000
08F80004FFD00000
09F7001DFF300000
09F600AFF5000000
0AF607FF80000000
0BF76FFA00000000
0BFCFFA000000000
0CFFF80000000000
0CFFA00000000000
0DFFF81000000000
0DFBFFE930000000
0EF117DFFD951000
0EF00004AFFFFE40
0FD00000017DFF30
0FA0000000004700
1F50000000000000
0300000000000000
0000000000000000
0000002820000000
000000BF90000000
000000CFC0000000
0000008FC0000000
0000007F90000000
0000008F60000000
0000008F30000000
0000009E00000000
0000005400000000
ENDCHAR
STARTCHAR Lacute
ENCODING 313
SWIDTH 537 0
DWIDTH 19 0
BBX 18 26 1 0
BITMAP
0000000003E6000000
000000003EF7000000
00000002EFC0000000
68200009FC10000000
EF700006A100000000
EF8000000000000000
DF9000000000000000
CF9000000000000000
BFA000000000000000
AFA000000000000000
AFB000000000000000
9FB000000000000000
8FC000000000000000
8FC000000000000000
8FD000000000000000
7FD000000000000000
7FE000000000000000
6FE000000000000011
6FF0000000000018EE
6FF00000000029FFE9
5FF10000004BFFA400
5FF200005CFFA20000
5FF2016DFFB3000000
5FF79EFFB400000000
4FFFFFB40000000000
2EEC83000000000000
ENDCHAR
STARTCHAR lacute
ENCODING 314
SWIDTH 137 0
DWIDTH 5 0
BBX 5 40 0 0
BITMAP
002D60
03EF70
1DFC10
8FC100
5A1000
000000
000000
000000
000000
184000
2F9000
0EB000
0CC000
0BD000
09E000
08F100
07F200
06F300
05F400
04F500
03F500
02F600
02F700
01F800
01F800
00F900
00F900
00FA00
00EA00
00EA00
00EB00
00EB00
00FC00
00FC00
00FD00
01FD00
02FE00
04FE00
03FE00
002300
ENDCHAR
STARTCHAR Lcommaaccent
ENCODING 315
SWIDTH 537 0
DWIDTH 19 0
BBX 18 35 1 -12
BITMAP
682000000000000000
EF7000000000000000
EF8000000000000000
DF9000000000000000
CF9000000000000000
BFA000000000000000
AFA000000000000000
AFB000000000000000
9FB000000000000000
8FC000000000000000
8FC000000000000000
8FD000000000000000
7FD000000000000000
7FE000000000000000
6FE000000000000011
6FF0000000000018EE
6FF00000000029FFE9
5FF10000004BFFA400
5FF200005CFFA20000
5FF2016DFFB3000000
5FF79EFFB400000000
4FFFFFB40000000000
2EEC83000000000000
000000000000000000
000000000000000000
000000000000000000
000000028200000000
0000000BF900000000
0000000CFC00000000
00000008FB00000000
00000008F900000000
00000008F600000000
00000008F200000000
00000009D000000000
000000064000000000
ENDCHAR
STARTCHAR lcommaaccent
ENCODING 316
SWIDTH 137 0
DWIDTH 5 0
BBX 4 43 0 -12
BITMAP
1840
2F90
0EB0
0CC0
0BD0
09E0
08F1
07F2
06F3
05F4
04F5
03F5
02F6
02F7
01F8
01F8
00F9
00F9
00FA
00EA
00EA
00EB
00EB
00FC
00FC
00FD
01FD
02FE
04FE
03FE
0023
0000
0000
0000
0381
0DF7
0EFA
0AF9
0AF7
0AF4
0BF1
0BB0
0630
ENDCHAR
STARTCHAR Lcaron
ENCODING 317
SWIDTH 537 0
DWIDTH 19 0
BBX 18 33 1 0
BITMAP
0B5000000002200000
06F30000004ED00000
00AE200005FA100000
001DC0007F70000000
0003F908E500000000
00007FED3000000000
000009B10000000000
000000000000000000
000000000000000000
000000000000000000
682000000000000000
EF7000000000000000
EF8000000000000000
DF9000000000000000
CF9000000000000000
BFA000000000000000
AFA000000000000000
AFB000000000000000
9FB000000000000000
8FC000000000000000
8FC000000000000000
8FD000000000000000
7FD000000000000000
7FE000000000000000
6FE000000000000011
6FF0000000000018EE
6FF00000000029FFE9
5FF10000004BFFA400
5FF200005CFFA20000
5FF2016DFFB3000000
5FF79EFFB400000000
4FFFFFB40000000000
2EEC83000000000000
ENDCHAR
STARTCHAR Ldot
ENCODING 319
SWIDTH 537 0
DWIDTH 19 0
BBX 18 23 1 0
BITMAP
682000000000000000
EF7000000000000000
EF8000000000000000
DF9000000000000000
CF9000000000000000
BFA000000000000000
AFA000000000000000
AFB000000000000000
9FB000000000000000
8FC000000000000000
8FC000000000000000
8FD000000000000000
7FD000002200000000
7FE00005FF10000000
6FE00006FB00000011
6FF0000010000018EE
6FF00000000029FFE9
5FF10000004BFFA400
5FF200005CFFA20000
5FF2016DFFB3000000
5FF79EFFB400000000
4FFFFFB40000000000
2EEC83000000000000
ENDCHAR
STARTCHAR ldot
ENCODING 320
SWIDTH 267 0
DWIDTH 10 0
BBX 9 31 0 0
BITMAP
1840000000
2F90000000
0EB0000000
0CC0000000
0BD0000000
09E0000000
08F1000000
07F2000000
06F3000000
05F4000000
04F5000000
03F5000000
02F6000000
02F7000000
01F8000000
01F8000000
00F9000000
00F9000000
00FA000000
00EA000000
00EA001300
00EB02EF40
00EB03FD10
00FC001000
00FC000000
00FD000000
01FD000000
02FE000000
04FE000000
03FE000000
0023000000
ENDCHAR
STARTCHAR Lslash
ENCODING 321
SWIDTH 537 0
DWIDTH 19 0
BBX 21 23 -2 0
BITMAP
0006820000000000000000
000EF70000000000000000
000EF80000000000000000
000DF90000000000000000
000CF90000000000000000
000BFA0000000000000000
000AFA0000000000000000
000AFB0000000000000000
0009FB0000000000000000
0009FC0000000000000000
0008FC0000013200000000
0008FD0005BFFC00000000
0007FD28EFFFE900000000
0007FFFFFD940000000000
0ADFFFC730000000000110
2BBCFE0000000000018EE0
0005FF00000000029FFE90
0005FF10000004BFFA4000
0005FF100005CFFA200000
0005FF2016DFFB30000000
0005FF79EFFB4000000000
0004FFFFFB400000000000
0002EEC830000000000000
ENDCHAR
STARTCHAR lslash
ENCODING 322
SWIDTH 137 0
DWIDTH 5 0
BBX 14 31 -4 0
BITMAP
00001840000000
00002F90000000
00000EB0000000
00000CC0000000
00000BD0000000
000009E0000000
000008F1000000
000007F2000000
000006F3000000
000005F4000000
000004F4000000
000003F5000000
000002F6000000
000002F7000000
000001F8000000
000001F8000000
000000F9000000
000000F9000000
000000FA000000
000000EA026990
000000EDBFFFF1
000028FFFFD940
147BFFFE730000
DFFEB6FC000000
454100FD000000
000000FD000000
000001FD000000
000002FE000000
000004FE000000
000003FE000000
00000023000000
ENDCHAR
STARTCHAR Nacute
ENCODING 323
SWIDTH 541 0
DWIDTH 19 0
BBX 18 30 1 0
BITMAP
00000004E400000000
0000004EF500000000
000003EFA000044000
00000BFB10000DF100
0000079000000AF600
00000000000007F900
30000000000005FB00
EB100000000003FC00
DFD10000000002FD00
CFFC0000000001FD00
AFFF8000000000EE00
8FFFF400000000EE00
7FCAFE20000000DE00
5FB0BFB0000000CF00
3FB01DF8000000CF00
1FC003FF400000CF10
0FD0006FE10000BF10
0DE00009FB0000BF10
0BF10000CF7000BF20
0AF300001EF400BF20
08F5000003FD10CF30
06F70000006FB0CF30
04F900000009F7DF30
03FB00000001CFFF40
01FE000000002EFF70
00EF0000000004FFC0
00DF2000000000AFF1
00BF20000000009FE1
00CF20000000001410
006C00000000000000
ENDCHAR
STARTCHAR nacute
ENCODING 324
SWIDTH 483 0
DWIDTH 17 0
BBX 16 27 1 0
BITMAP
00000001BB000000
0000001BFC000000
000000AFE3000000
000004FE40000000
000002B300000000
0000000000000000
7500000017DC2000
EB000002DFFFD000
DE00001DFFCEF600
CF10009FF402EC00
BF3002FF70009F10
AF5008FE00008F40
9F700DF700007F70
8F902FF100006F90
7FA06FB000005FB0
6FC09F6000004FC0
5FE0CF1000003FD0
4FF1FB0000002FE0
3FF6F70000001FE0
2FFCF30000000FF0
1FFFE00000000FF0
0FFFA00000000EF0
0EFF700000000DF0
0DFF400000000CF1
0BFF100000000BF1
0AFD000000000AE1
08D6000000000110
ENDCHAR
STARTCHAR Ncommaaccent
ENCODING 325
SWIDTH 541 0
DWIDTH 19 0
BBX 18 40 1 -12
BITMAP
000000000000044000
0000000000000DF100
0000000000000AF600
00000000000007F900
30000000000005FB00
EB100000000003FC00
DFD10000000002FD00
CFFC0000000001FD00
AFFF8000000000EE00
8FFFF400000000EE00
7FCAFE20000000DE00
5FB0BFB0000000CF00
3FB01DF8000000CF00
1FC003FF400000CF10
0FD0006FE10000BF10
0DE00009FB0000BF10
0BF10000CF7000BF20
0AF300001EF400BF20
08F5000003FD10CF30
06F70000006FB0CF30
04F900000009F7DF30
03FB00000001CFFF40
01FE000000002EFF70
00EF0000000004FFC0
00DF2000000000AFF1
00BF20000000009FE1
00CF20000000001410
006C00000000000000
000000000000000000
000000000000000000
000000000000000000
000000028200000000
0000000AFA00000000
0000000CFC00000000
00000007FC00000000
00000007FA00000000
00000007F600000000
00000008F300000000
00000008E000000000
000000054000000000
ENDCHAR
STARTCHAR ncommaaccent
ENCODING 326
SWIDTH 483 0
DWIDTH 17 0
BBX 16 33 1 -12
BITMAP
7500000017DC2000
EB000002DFFFD000
DE00001DFFCEF600
CF10009FF402EC00
BF3002FF70009F10
AF5008FE00008F40
9F700DF700007F70
8F902FF100006F90
7FA06FB000005FB0
6FC09F6000004FC0
5FE0CF1000003FD0
4FF1FB0000002FE0
3FF6F70000001FE0
2FFCF30000000FF0
1FFFE00000000FF0
0FFFA00000000EF0
0EFF700000000DF0
0DFF400000000CF1
0BFF100000000BF1
0AFD000000000AE1
08D6000000000110
0000000000000000
0000000000000000
0000000000000000
0000002820000000
000000BF90000000
000000CFC0000000
0000008FB0000000
0000008F90000000
0000008F60000000
0000008F20000000
0000009E00000000
0000005400000000
ENDCHAR
STARTCHAR Ncaron
ENCODING 327
SWIDTH 541 0
DWIDTH 19 0
BBX 18 32 1 0
BITMAP
007A00000000130000
002E90000001CF3000
0005F600002DD40000
00008F3003DC100000
00000CD13EA0044000
000002EEF7000DF100
0000004C50000AF600
00000000000007F900
30000000000005FB00
EB100000000003FC00
DFD10000000002FD00
CFFC0000000001FD00
AFFF8000000000EE00
8FFFF400000000EE00
7FCAFE20000000DE00
5FB0BFB0000000CF00
3FB01DF8000000CF00
1FC003FF400000CF10
0FD0006FE10000BF10
0DE00009FB0000BF10
0BF10000CF7000BF20
0AF300001EF400BF20
08F5000003FD10CF30
06F70000006FB0CF30
04F900000009F7DF30
03FB00000001CFFF40
01FE000000002EFF70
00EF0000000004FFC0
00DF2000000000AFF1
00BF20000000009FE1
00CF20000000001410
006C00000000000000
ENDCHAR
STARTCHAR ncaron
ENCODING 328
SWIDTH 483 0
DWIDTH 17 0
BBX 16 29 1 0
BITMAP
02C3000000003100
00AD10000007F900
001DB000009F7100
0003F8000AE40000
00007F51BD300000
00000BFEB1000000
000001A900000000
0000000000000000
7500000017DC2000
EB000002DFFFD000
DE00001DFFCEF600
CF10009FF402EC00
BF3002FF70009F10
AF5008FE00008F40
9F700DF700007F70
8F902FF100006F90
7FA06FB000005FB0
6FC09F6000004FC0
5FE0CF1000003FD0
4FF1FB0000002FE0
3FF6F70000001FE0
2FFCF30000000FF0
1FFFE00000000FF0
0FFFA00000000EF0
0EFF700000000DF0
0DFF400000000CF1
0BFF100000000BF1
0AFD000000000AE1
08D6000000000110
ENDCHAR
STARTCHAR napostrophe
ENCODING 329
SWIDTH 483 0
DWIDTH 17 0
BBX 16 32 1 0
BITMAP
0001730000000000
0009FB0000000000
000AFE0000000000
0006FD0000000000
0006FB0000000000
0006F80000000000
0006F40000000000
0007F10000000000
0004500000000000
0000000000000000
0000000000000000
7500000017DC2000
EB000002DFFFD000
DE00001DFFCEF600
CF10009FF402EC00
BF3002FF70009F10
AF5008FE00008F40
9F700DF700007F70
8F902FF100006F90
7FA06FB000005FB0
6FC09F6000004FC0
5FE0CF1000003FD0
4FF1FB0000002FE0
3FF6F70000001FE0
2FFCF30000000FF0
1FFFE00000000FF0
0FFFA00000000EF0
0EFF700000000DF0
0DFF400000000CF1
0BFF100000000BF1
0AFD000000000AE1
08D6000000000110
ENDCHAR
STARTCHAR Omacron
ENCODING 332
SWIDTH 382 0
DWIDTH 14 0
BBX 16 29 0 0
BITMAP
0000000135689AB1
0059ACEFFFFFFFF2
009EDCA987654320
0000000000000000
0000000230000000
000002BFFD500000
00002EFFFFF60000
0000CFD526FF3000
0006FB10009FA000
000DF100003FD000
005FB000000EF100
00BF6000000CF200
01FF1000000BF400
04FC0000000BF400
08F80000000BF400
0BF40000000CF300
0EF10000000DF200
1FC00000001FF000
3FA00000003FD000
4F700000007FA000
6F60000000AF7000
7F60000001EF2000
6F70000006FC0000
4F8000000DF50000
1FC000006FD00000
0CF40003FF300000
05FE868EF6000000
00BFFFFF60000000
0019EEA200000000
ENDCHAR
STARTCHAR omacron
ENCODING 333
SWIDTH 266 0
DWIDTH 10 0
BBX 14 27 -2 0
BITMAP
00000024689AB2
39ACDFFFFFFFF5
7DDCBA97654320
00000000000000
00000000000000
00000000000000
00000000000000
000018C8000000
00009FFFA00000
0000DFDDF60000
0002FB007E1000
0005F4001F7000
0009F0000EA000
000BD0000CD000
000EC0000CE000
001FA0000CE000
003FA0000DE000
004FA0000EE000
005FA0001FD000
005FA0004FB000
004FA0007F8000
003FA000CF4000
002FA002FE0000
001FC00AF70000
000FF5AFD00000
000BFFFD200000
0003DD81000000
ENDCHAR
STARTCHAR Obreve
ENCODING 334
SWIDTH 382 0
DWIDTH 14 0
BBX 14 31 0 0
BITMAP
00020000007300
004F600009F600
001DF5008FF200
0002EFCDFF6000
00003EFFE50000
00000166100000
00000002300000
000002BFFD5000
00002EFFFFF600
0000CFD526FF30
0006FB10009FA0
000DF100003FD0
005FB000000EF1
00BF6000000CF2
01FF1000000BF4
04FC0000000BF4
08F80000000BF4
0BF40000000CF3
0EF10000000DF2
1FC00000001FF0
3FA00000003FD0
4F700000007FA0
6F60000000AF70
7F60000001EF20
6F70000006FC00
4F8000000DF500
1FC000006FD000
0CF40003FF3000
05FE868EF60000
00BFFFFF600000
0019EEA2000000
ENDCHAR
STARTCHAR obreve
ENCODING 335
SWIDTH 266 0
DWIDTH 10 0
BBX 10 27 0 0
BITMAP
0200000065
1F900005FA
0AF8005FF5
01CFDCFF90
001CFFF800
0000573000
0000000000
0018C80000
009FFFA000
00DFDDF600
02FB007E10
05F4001F70
09F0000EA0
0BD0000CD0
0EC0000CE0
1FA0000CE0
3FA0000DE0
4FA0000EE0
5FA0001FD0
5FA0004FB0
4FA0007F80
3FA000CF40
2FA002FE00
1FC00AF700
0FF5AFD000
0BFFFD2000
03DD810000
ENDCHAR
STARTCHAR Ohungarumlaut
ENCODING 336
SWIDTH 382 0
DWIDTH 14 0
BBX 15 32 0 0
BITMAP
0000000001000000
000000003E801400
00000003EF71CF10
0000001EFC2DFC00
0000008FC1BFE200
0000004912FD2000
0000000000510000
0000000230000000
000002BFFD500000
00002EFFFFF60000
0000CFD526FF3000
0006FB10009FA000
000DF100003FD000
005FB000000EF100
00BF6000000CF200
01FF1000000BF400
04FC0000000BF400
08F80000000BF400
0BF40000000CF300
0EF10000000DF200
1FC00000001FF000
3FA00000003FD000
4F700000007FA000
6F60000000AF7000
7F60000001EF2000
6F70000006FC0000
4F8000000DF50000
1FC000006FD00000
0CF40003FF300000
05FE868EF6000000
00BFFFFF60000000
0019EEA200000000
ENDCHAR
STARTCHAR ohungarumlaut
ENCODING 337
SWIDTH 266 0
DWIDTH 10 0
BBX 10 28 0 0
BITMAP
0000110000
0002DA0050
002DFA1BF3
00CFD2BFE1
06FD29FE30
03910FE300
0000042000
0000000000
0018C80000
009FFFA000
00DFDDF600
02FB007E10
05F4001F70
09F0000EA0
0BD0000CD0
0EC0000CE0
1FA0000CE0
3FA0000DE0
4FA0000EE0
5FA0001FD0
5FA0004FB0
4FA0007F80
3FA000CF40
2FA002FE00
1FC00AF700
0FF5AFD000
0BFFFD2000
03DD810000
ENDCHAR
STARTCHAR OE
ENCODING 338
SWIDTH 732 0
DWIDTH 26 0
BBX 26 27 0 -1
BITMAP
00000000000100000000269600
00000002303E8000027CFF8100
000002BFFEBFE003AFFF810000
00002EFFFFFFF4AFFF81000000
0000CFD526FFFFFF8100000000
0006FB10009FFF810000000000
000DF100003FF3000000000000
005FB000000EF2000000000000
00BF6000000CF3000000000000
01FF1000000BF4000000043000
04FC0000000BF50000018F6000
08F80000000BF600006EF70000
0BF40000000CF7004CFC300000
0EF10000000DF82BFD50000000
1FC00000001FFDFE7000000000
3FA00000003FFFC20000000000
4F700000007FFF200000000000
6F60000000AFFF100000000164
7F60000001EFFF100000004DF9
6F70000006FEFF10000019FE50
4F8000000DF7FF100003DFA100
1FC000006FD3FF10018FE50000
0CF40003FF42FF105DFA100000
05FE868EF702FF9CFE50000000
00BFFFFF6002FFFF9100000000
0019EEA20001EEA20000000000
00000000000001000000000000
ENDCHAR
STARTCHAR oe
ENCODING 339
SWIDTH 628 0
DWIDTH 23 0
BBX 23 20 0 0
BITMAP
0018C8000000015640000000
009FFFA000007FFFFC300000
00DFDDF60007FFC8CFE20000
02FB007E102FFA000BF90000
05F4001F709FC0001DFA0000
09F0000EA2FF3003DFB10000
0BD0000CC8FA029FE7000000
0EC0000CEEFBAFFB20000000
1FA0000CFFFFFC4000000000
3FA0000DFFFE600000000000
4FA0000EFFE1000000002C60
5FA0001FFFB000000000CF70
5FA0004FEF9000000008FE10
4FA0006FAF800000004FF600
3FA000BF7F80000002EF8000
2FA002FE2F8000001DF90000
1FC00AF80DA00003DF800000
0FF5AFD108F7349FE5000000
0BFFFD2001DFFFFA20000000
03DD81000016972000000000
ENDCHAR
STARTCHAR Racute
ENCODING 340
SWIDTH 503 0
DWIDTH 18 0
BBX 17 34 1 0
BITMAP
0000000002D7000000
000000002DF8000000
00000001DFD1000000
00000007FD20000000
00000005A100000000
463000000000000000
9FB000016897400000
9FB004BFFFFFFE9100
9FB2BFFD9656AFFD10
9FFFE920000005FF30
9FFB1000000004FD00
9FC0000000001DE300
9F9000000003DE4000
9F800000007FC20000
9F7000003CF8000000
9F500029FC30000000
8F4018EF7000000000
8F47EFB20000000000
8FEFE6000000000000
8FFC20000000000000
8FE300000000000000
8FFF92000000000000
8FEFFF920000000000
8F15CFFF9200000000
8F1004CFFE81000000
8F100004CFFE810000
8F10000004BFFE8200
8F1000000003AFFF90
8F1000000000029FB0
8F1000000000000210
8F1000000000000000
8F1000000000000000
8F1000000000000000
480000000000000000
ENDCHAR
STARTCHAR racute
ENCODING 341
SWIDTH 396 0
DWIDTH 14 0
BBX 13 26 1 0
BITMAP
00000009D00000
000000AFE00000
000008FF400000
00002FF5000000
00001B40000000
00000000000000
00000000000000
00000000243200
B800005DFFFF40
FD0007FFFDCA20
DF003FFA100000
BF109FB0000000
8F30EF40000000
6F52FE00000000
4F75FB00000000
1F96F900000000
0EB7F700000000
0CD8F600000000
09F8F400000000
07FCF400000000
05FFF300000000
02FFF200000000
00FFF100000000
00DFE000000000
00BFC000000000
004C8000000000
ENDCHAR
STARTCHAR Rcommaaccent
ENCODING 342
SWIDTH 503 0
DWIDTH 18 0
BBX 17 41 1 -12
BITMAP
463000000000000000
9FB000016897400000
9FB004BFFFFFFE9100
9FB2BFFD9656AFFD10
9FFFE920000005FF30
9FFB1000000004FD00
9FC0000000001DE300
9F9000000003DE4000
9F800000007FC20000
9F7000003CF8000000
9F500029FC30000000
8F4018EF7000000000
8F47EFB20000000000
8FEFE6000000000000
8FFC20000000000000
8FE300000000000000
8FFF92000000000000
8FEFFF920000000000
8F15CFFF9200000000
8F1004CFFE81000000
8F100004CFFE810000
8F10000004BFFE8200
8F1000000003AFFF90
8F1000000000029FB0
8F1000000000000210
8F1000000000000000
8F1000000000000000
8F1000000000000000
480000000000000000
000000000000000000
000000000000000000
000000000000000000
000000066000000000
0000005FE100000000
0000006FF300000000
0000002FF200000000
0000002FF000000000
0000002FC000000000
0000002F8000000000
0000003F4000000000
000000271000000000
ENDCHAR
STARTCHAR rcommaaccent
ENCODING 343
SWIDTH 396 0
DWIDTH 14 0
BBX 13 31 1 -12
BITMAP
00000000243200
B800005DFFFF40
FD0007FFFDCA20
DF003FFA100000
BF109FB0000000
8F30EF40000000
6F52FE00000000
4F75FB00000000
1F96F900000000
0EB7F700000000
0CD8F600000000
09F8F400000000
07FCF400000000
05FFF300000000
02FFF200000000
00FFF100000000
00DFE000000000
00BFC000000000
004C8000000000
00000000000000
00000000000000
00000000000000
00000570000000
00003FF2000000
00004FF5000000
00000EF4000000
00000FF2000000
00000FE0000000
00000FA0000000
00001F70000000
00001710000000
ENDCHAR
STARTCHAR Rcaron
ENCODING 344
SWIDTH 503 0
DWIDTH 18 0
BBX 17 37 1 0
BITMAP
002C30000000031000
0009D10000007FA000
0001DC000008F71000
00003F90009E500000
000006F61BD3000000
000000AFEC10000000
0000001A9000000000
000000000000000000
463000000000000000
9FB000016897400000
9FB004BFFFFFFE9100
9FB2BFFD9656AFFD10
9FFFE920000005FF30
9FFB1000000004FD00
9FC0000000001DE300
9F9000000003DE4000
9F800000007FC20000
9F7000003CF8000000
9F500029FC30000000
8F4018EF7000000000
8F47EFB20000000000
8FEFE6000000000000
8FFC20000000000000
8FE300000000000000
8FFF92000000000000
8FEFFF920000000000
8F15CFFF9200000000
8F1004CFFE81000000
8F100004CFFE810000
8F10000004BFFE8200
8F1000000003AFFF90
8F1000000000029FB0
8F1000000000000210
8F1000000000000000
8F1000000000000000
8F1000000000000000
480000000000000000
ENDCHAR
STARTCHAR rcaron
ENCODING 345
SWIDTH 396 0
DWIDTH 14 0
BBX 13 29 1 0
BITMAP
88000000001300
3F70000002DF10
07F400003EC200
00BE2004EA1000
001DC15F800000
0004FEE5000000
00006C30000000
00000000000000
00000000000000
00000000000000
00000000243200
B800005DFFFF40
FD0007FFFDCA20
DF003FFA100000
BF109FB0000000
8F30EF40000000
6F52FE00000000
4F75FB00000000
1F96F900000000
0EB7F700000000
0CD8F600000000
09F8F400000000
07FCF400000000
05FFF300000000
02FFF200000000
00FFF100000000
00DFE000000000
00BFC000000000
004C8000000000
ENDCHAR
STARTCHAR Sacute
ENCODING 346
SWIDTH 541 0
DWIDTH 19 0
BBX 19 32 0 0
BITMAP
00000000005E30000000
0000000005FF30000000
000000004FF900000000
00000000CFA000000000
00000000880000000000
00000000000012000000
0000000005AEFFB00000
00000005DFCDFFB00000
000001AFA20188100000
00003DF6000000000000
0003EE40000000000000
002EF300000000000000
00CF6000000000000000
07F90000000000000000
1EE10000000000000000
5F900000000000000000
8F500000000000000000
8F500000000000000000
5F900000000000000000
0CF60000000000000000
02CFC630000000000000
0005BFFFDBA876410000
000001369BDEFFFFC400
0000000000001359EF40
00000000000000008F80
0000000000000004EF50
00000000000003AFF600
000000000015BFFB2000
000000016AEFFA300000
000017CFFFD710000000
0000BFFC730000000000
00002310000000000000
ENDCHAR
STARTCHAR sacute
ENCODING 347
SWIDTH 366 0
DWIDTH 13 0
BBX 13 27 0 -1
BITMAP
00000003E50000
0000004EF60000
000002EFB00000
00000AFB100000
00000690000000
00000000000000
00000000000000
00000000120000
0000029DFFB000
00008FEABF8000
000AFA10010000
008FB000000000
03FE1000000000
09F60000000000
0EF10000000000
1FC00000000000
1FB00015AEE700
0EFB9BEFFFFF50
08FFFFC7449FA0
00587200004FA0
0000000001CF40
000000001CFA00
00000003DFC100
0000005EFC1000
00001AFFB10000
0003EFF9000000
0002CA30000000
ENDCHAR
STARTCHAR Scircumflex
ENCODING 348
SWIDTH 541 0
DWIDTH 19 0
BBX 19 37 0 0
BITMAP
00000000073000000000
000000007FD200000000
00000001EEFC10000000
00000008F44FA0000000
0000002FB006F8000000
0000009F30009F600000
000003F900000CF40000
00000BE1000002EE7000
00004F700000004FB000
0000AD00000000031000
00001100000012000000
0000000005AEFFB00000
00000005DFCDFFB00000
000001AFA20188100000
00003DF6000000000000
0003EE40000000000000
002EF300000000000000
00CF6000000000000000
07F90000000000000000
1EE10000000000000000
5F900000000000000000
8F500000000000000000
8F500000000000000000
5F900000000000000000
0CF60000000000000000
02CFC630000000000000
0005BFFFDBA876410000
000001369BDEFFFFC400
0000000000001359EF40
00000000000000008F80
0000000000000004EF50
00000000000003AFF600
000000000015BFFB2000
000000016AEFFA300000
000017CFFFD710000000
0000BFFC730000000000
00002310000000000000
ENDCHAR
STARTCHAR scircumflex
ENCODING 349
SWIDTH 366 0
DWIDTH 13 0
BBX 14 30 0 -1
BITMAP
00000370000000
00001DF8000000
00007FEF600000
0001EC0AF40000
0008F401CE3000
002FB0002ED100
009F200004FC10
02F80000007FD2
0AE10000000AF4
1F600000000140
01000000120000
0000029DFFB000
00008FEABF8000
000AFA10010000
008FB000000000
03FE1000000000
09F60000000000
0EF10000000000
1FC00000000000
1FB00015AEE700
0EFB9BEFFFFF50
08FFFFC7449FA0
00587200004FA0
0000000001CF40
000000001CFA00
00000003DFC100
0000005EFC1000
00001AFFB10000
0003EFF9000000
0002CA30000000
ENDCHAR
STARTCHAR Scedilla
ENCODING 350
SWIDTH 541 0
DWIDTH 19 0
BBX 20 37 0 -10
BITMAP
00000000000012000000
0000000005AEFFB00000
00000005DFCDFFB00000
000001AFA20188100000
00003DF6000000000000
0003EE40000000000000
002EF300000000000000
00CF6000000000000000
07F90000000000000000
1EE10000000000000000
5F900000000000000000
8F500000000000000000
8F500000000000000000
5F900000000000000000
0CF60000000000000000
02CFC630000000000000
0005BFFFDBA876410000
000001369BDEFFFFC400
0000000000001359EF40
00000000000000008F80
0000000000000004EF50
00000000000003AFF600
000000000015BFFB2000
000000016AEFFA300000
000017CFFFD791000000
0000BFFC7302F5000000
000023100005F7000000
000000000007F5000000
000000000006FD400000
000000000003FFFB3000
0000000000009FFFF910
000000000000015CFFD1
00000000000000007FF7
00000000000000002FFB
0000000000000159EFFA
000000000004DFFFFFA2
000000000002CCB96100
ENDCHAR
STARTCHAR scedilla
ENCODING 351
SWIDTH 366 0
DWIDTH 13 0
BBX 14 31 0 -12
BITMAP
00000000120000
0000029DFFB000
00008FEABF8000
000AFA10010000
008FB000000000
03FE1000000000
09F60000000000
0EF10000000000
1FC00000000000
1FB00015AEE700
0EFB9BEFFFFF50
08FFFFC7449FA0
00587200004FA0
0000000001CF40
000000001CFA00
00000003DFC100
0000005EFC1000
00001AFFB10000
0003EFF9000000
0002CFF0000000
00000DE0000000
00000DE4000000
00000BFFA20000
000005FFFF8100
00000048DFFD30
0000000006EFD0
00000000007FF3
0000000016DFF5
0000059CFFFFC1
00000AFFFDA500
00000132100000
ENDCHAR
STARTCHAR Scaron
ENCODING 352
SWIDTH 541 0
DWIDTH 19 0
BBX 19 33 0 0
BITMAP
0002C300000000310000
0000AD10000007F90000
00001DB000009F710000
000003F9000AE5000000
0000007F61BD30000000
0000000AFEC100000000
00000001A90012000000
0000000005AEFFB00000
00000005DFCDFFB00000
000001AFA20188100000
00003DF6000000000000
0003EE40000000000000
002EF300000000000000
00CF6000000000000000
07F90000000000000000
1EE10000000000000000
5F900000000000000000
8F500000000000000000
8F500000000000000000
5F900000000000000000
0CF60000000000000000
02CFC630000000000000
0005BFFFDBA876410000
000001369BDEFFFFC400
0000000000001359EF40
00000000000000008F80
0000000000000004EF50
00000000000003AFF600
000000000015BFFB2000
000000016AEFFA300000
000017CFFFD710000000
0000BFFC730000000000
00002310000000000000
ENDCHAR
STARTCHAR scaron
ENCODING 353
SWIDTH 366 0
DWIDTH 13 0
BBX 13 28 0 -1
BITMAP
3C200000000310
0BD10000008F80
01DA000009F600
004F8001AE4000
0008F51BD20000
0000BFEB100000
00002B80000000
00000000000000
00000000120000
0000029DFFB000
00008FEABF8000
000AFA10010000
008FB000000000
03FE1000000000
09F60000000000
0EF10000000000
1FC00000000000
1FB00015AEE700
0EFB9BEFFFFF50
08FFFFC7449FA0
00587200004FA0
0000000001CF40
000000001CFA00
00000003DFC100
0000005EFC1000
00001AFFB10000
0003EFF9000000
0002CA30000000
ENDCHAR
STARTCHAR Tcommaaccent
ENCODING 354
SWIDTH 595 0
DWIDTH 21 0
BBX 25 38 0 -12
BITMAP
00000000000660000000013460
00000000001FF7579ACDFFFF90
000001468ADFFFFFFFFEC96200
18ACEFFFFFFFFB653210000000
8FFFEB85210AF7000000000000
154200000008F7000000000000
000000000006F7000000000000
000000000004F8000000000000
000000000003F9000000000000
000000000001FB000000000000
000000000000FD000000000000
000000000000DE000000000000
000000000000CF100000000000
000000000000BF300000000000
0000000000009F500000000000
0000000000008F700000000000
0000000000007F900000000000
0000000000005FB00000000000
0000000000003FD00000000000
0000000000002FF00000000000
0000000000000FF20000000000
0000000000000DF40000000000
0000000000000BF50000000000
00000000000009F50000000000
00000000000006F60000000000
00000000000002F70000000000
00000000000000000000000000
00000000000000000000000000
00000000000000000000000000
00000000000000282000000000
00000000000000CF8000000000
00000000000000DFB000000000
000000000000009FA000000000
000000000000009F8000000000
000000000000009F5000000000
000000000000009F2000000000
00000000000000AD0000000000
00000000000000640000000000
ENDCHAR
STARTCHAR tcommaaccent
ENCODING 355
SWIDTH 268 0
DWIDTH 10 0
BBX 12 40 -2 -12
BITMAP
000034100000
0000AF500000
0000AF400000
0000BF300000
0000BF200000
0000BF100000
0000CF000000
0000CF000001
0000CF126AEB
0000DFDFFFF9
002AFFFFE820
18FFFFC60000
3FFFFE000000
0DB5FF000000
0001FF000000
0000FF100000
0000EF200000
0000DF200000
0000CF300000
0000BF300000
0000BF400000
0000AF500000
00009F500000
00008F600000
00007F700000
00006F700000
00005F800000
00004F800000
00001A400000
000000000000
000000000000
000001740000
000007FD0000
000008FF0000
000004FF0000
000004FD0000
000004F90000
000005F60000
000005F20000
000004600000
ENDCHAR
STARTCHAR Tcaron
ENCODING 356
SWIDTH 595 0
DWIDTH 21 0
BBX 25 36 0 0
BITMAP
00000001C40000000031000000
000000008E20000006FB000000
000000000CC100007F81000000
0000000002EA0008F600000000
00000000005F70AE4000000000
000000000009FED20000000000
000000000000AA100000000000
00000000000000000000000000
00000000000000000000000000
00000000000000000000000000
00000000000660000000013460
00000000001FF7579ACDFFFF90
000001468ADFFFFFFFFEC96200
18ACEFFFFFFFFB653210000000
8FFFEB85210AF7000000000000
154200000008F7000000000000
000000000006F7000000000000
000000000004F8000000000000
000000000003F9000000000000
000000000001FB000000000000
000000000000FD000000000000
000000000000DE000000000000
000000000000CF100000000000
000000000000BF300000000000
0000000000009F500000000000
0000000000008F700000000000
0000000000007F900000000000
0000000000005FB00000000000
0000000000003FD00000000000
0000000000002FF00000000000
0000000000000FF20000000000
0000000000000DF40000000000
0000000000000BF50000000000
00000000000009F50000000000
00000000000006F60000000000
00000000000002F70000000000
ENDCHAR
STARTCHAR Tbar
ENCODING 358
SWIDTH 595 0
DWIDTH 21 0
BBX 25 26 0 0
BITMAP
00000000000660000000013460
00000000001FF7579ACDFFFF90
000001468ADFFFFFFFFEC96200
18ACEFFFFFFFFB653210000000
8FFFEB85210AF7000000000000
154200000008F7000000000000
000000000006F7000000000000
000000000004F8000000000000
000000000026FCACDE80000000
000001BCEFFFFFFFFFA0000000
000001ABA987FD321000000000
000000000000DE000000000000
000000000000CF100000000000
000000000000BF300000000000
0000000000009F500000000000
0000000000008F700000000000
0000000000007F900000000000
0000000000005FB00000000000
0000000000003FD00000000000
0000000000002FF00000000000
0000000000000FF20000000000
0000000000000DF40000000000
0000000000000BF50000000000
00000000000009F50000000000
00000000000006F60000000000
00000000000002F70000000000
ENDCHAR
STARTCHAR Utilde
ENCODING 360
SWIDTH 450 0
DWIDTH 16 0
BBX 15 36 1 -5
BITMAP
00179A7200000100
02DFFFFD0001DF40
0CFA02EF5009FF30
1FF1007FC16FF900
1E70001CFFFF9000
00000002BFE60000
0000000001000000
0000000000000000
0000000000003200
350000000000EC00
DF5000000003FF10
DF5000000005FF10
DF5000000008FF00
CF500000000AFF00
CF500000000DFE00
CF500000000FFD00
BF500000003FFC00
AF500000005FFC00
AF500000008FFB00
AF50000000BFFA00
9F50000000EFFA00
9F50000002FEF900
8F50000006FAFA00
8F5000000BF3FA00
7F5000001FC0EB00
5F5000007F60CD00
3F800001ED00BE00
0EE1000AF5009F10
0AFC43AF80008F20
02EFFFF800006F40
0017972000005F50
0000000000003F60
0000000000002F70
0000000000000F70
0000000000000E40
0000000000000100
ENDCHAR
STARTCHAR utilde
ENCODING 361
SWIDTH 387 0
DWIDTH 14 0
BBX 14 27 0 -1
BITMAP
0059A830000010
1BFFFFF3000AF7
8FC10CF8006FF6
DF4003FE33EFC0
BB00009FFFFB10
00000009FF8000
00000000000000
00000000000000
04500000013100
0CF0000005FA00
0BF0000005FA00
0BF1000005FA00
0BF1000005F900
0BF2000006F900
0BF3000007F900
0AF4000008F900
09F5000009F800
09F600000BF800
08F600002FF900
07F700008FFA00
05F80001EFFB00
03FA0009FFFC00
00FD004FF8DE00
00BF24EFB0AF20
004FFFFC108F60
000AFF90005FA0
00004300000970
ENDCHAR
STARTCHAR Umacron
ENCODING 362
SWIDTH 450 0
DWIDTH 16 0
BBX 15 32 1 -5
BITMAP
00000024689AB500
19ABDFFFFFFFF800
4DDCBA9876432100
0000000000000000
0000000000003200
350000000000EC00
DF5000000003FF10
DF5000000005FF10
DF5000000008FF00
CF500000000AFF00
CF500000000DFE00
CF500000000FFD00
BF500000003FFC00
AF500000005FFC00
AF500000008FFB00
AF50000000BFFA00
9F50000000EFFA00
9F50000002FEF900
8F50000006FAFA00
8F5000000BF3FA00
7F5000001FC0EB00
5F5000007F60CD00
3F800001ED00BE00
0EE1000AF5009F10
0AFC43AF80008F20
02EFFFF800006F40
0017972000005F50
0000000000003F60
0000000000002F70
0000000000000F70
0000000000000E40
0000000000000100
ENDCHAR
STARTCHAR umacron
ENCODING 363
SWIDTH 387 0
DWIDTH 14 0
BBX 14 28 0 -1
BITMAP
00000024689AB4
29ABDFFFFFFFF7
5DDCBA98754321
00000000000000
00000000000000
00000000000000
00000000000000
00000000000000
00000000000000
04500000013100
0CF0000005FA00
0BF0000005FA00
0BF1000005FA00
0BF1000005F900
0BF2000006F900
0BF3000007F900
0AF4000008F900
09F5000009F800
09F600000BF800
08F600002FF900
07F700008FFA00
05F80001EFFB00
03FA0009FFFC00
00FD004FF8DE00
00BF24EFB0AF20
004FFFFC108F60
000AFF90005FA0
00004300000970
ENDCHAR
STARTCHAR Ubreve
ENCODING 364
SWIDTH 450 0
DWIDTH 16 0
BBX 15 32 1 -5
BITMAP
0001100000470000
000CC00003FD0000
0007FA103DF80000
0000AFEBFFC00000
00000AFFFA103200
350000474000EC00
DF5000000003FF10
DF5000000005FF10
DF5000000008FF00
CF500000000AFF00
CF500000000DFE00
CF500000000FFD00
BF500000003FFC00
AF500000005FFC00
AF500000008FFB00
AF50000000BFFA00
9F50000000EFFA00
9F50000002FEF900
8F50000006FAFA00
8F5000000BF3FA00
7F5000001FC0EB00
5F5000007F60CD00
3F800001ED00BE00
0EE1000AF5009F10
0AFC43AF80008F20
02EFFFF800006F40
0017972000005F50
0000000000003F60
0000000000002F70
0000000000000F70
0000000000000E40
0000000000000100
ENDCHAR
STARTCHAR ubreve
ENCODING 365
SWIDTH 387 0
DWIDTH 14 0
BBX 12 28 1 -1
BITMAP
001100000560
00EB00004FC0
008F9003EF70
000BFDCFFB00
0001BFFFA000
000005730000
000000000000
000000000000
000000000000
450000001310
CF0000005FA0
BF0000005FA0
BF1000005FA0
BF1000005F90
BF2000006F90
BF3000007F90
AF4000008F90
9F5000009F80
9F600000BF80
8F600002FF90
7F700008FFA0
5F80001EFFB0
3FA0009FFFC0
0FD004FF8DE0
0BF24EFB0AF2
04FFFFC108F6
00AFF90005FA
000430000097
ENDCHAR
STARTCHAR Uring
ENCODING 366
SWIDTH 450 0
DWIDTH 16 0
BBX 15 35 1 -5
BITMAP
0000014420000000
0002BFFFFC200000
001EFA66CFB00000
005FB0001EE00000
003FB0002EF00000
000DFB77DF900000
0002ACCCA5000000
0000000000003200
350000000000EC00
DF5000000003FF10
DF5000000005FF10
DF5000000008FF00
CF500000000AFF00
CF500000000DFE00
CF500000000FFD00
BF500000003FFC00
AF500000005FFC00
AF500000008FFB00
AF50000000BFFA00
9F50000000EFFA00
9F50000002FEF900
8F50000006FAFA00
8F5000000BF3FA00
7F5000001FC0EB00
5F5000007F60CD00
3F800001ED00BE00
0EE1000AF5009F10
0AFC43AF80008F20
02EFFFF800006F40
0017972000005F50
0000000000003F60
0000000000002F70
0000000000000F70
0000000000000E40
0000000000000100
ENDCHAR
STARTCHAR uring
ENCODING 367
SWIDTH 387 0
DWIDTH 14 0
BBX 12 26 1 -1
BITMAP
000013430000
001AFFFFD400
00CFC66BFD00
03FD0000CF20
00FD1001DF20
00BFC77CFB00
0019CCCA6000
450000001310
CF0000005FA0
BF0000005FA0
BF1000005FA0
BF1000005F90
BF2000006F90
BF3000007F90
AF4000008F90
9F5000009F80
9F600000BF80
8F600002FF90
7F700008FFA0
5F80001EFFB0
3FA0009FFFC0
0FD004FF8DE0
0BF24EFB0AF2
04FFFFC108F6
00AFF90005FA
000430000097
ENDCHAR
STARTCHAR Uhungarumlaut
ENCODING 368
SWIDTH 450 0
DWIDTH 16 0
BBX 15 36 1 -5
BITMAP
0000001000000000
000002D901400000
00002EF81CF20000
0001DFC2CFD00000
0007FC1AFE200000
0003911FE3000000
0000000520000000
0000000000000000
0000000000003200
350000000000EC00
DF5000000003FF10
DF5000000005FF10
DF5000000008FF00
CF500000000AFF00
CF500000000DFE00
CF500000000FFD00
BF500000003FFC00
AF500000005FFC00
AF500000008FFB00
AF50000000BFFA00
9F50000000EFFA00
9F50000002FEF900
8F50000006FAFA00
8F5000000BF3FA00
7F5000001FC0EB00
5F5000007F60CD00
3F800001ED00BE00
0EE1000AF5009F10
0AFC43AF80008F20
02EFFFF800006F40
0017972000005F50
0000000000003F60
0000000000002F70
0000000000000F70
0000000000000E40
0000000000000100
ENDCHAR
STARTCHAR uhungarumlaut
ENCODING 369
SWIDTH 387 0
DWIDTH 14 0
BBX 12 26 1 -1
BITMAP
000011000000
0001CB005000
001CFB0AF400
00BFE2AFE200
04FD27FF4000
02920DE40000
000004300000
450000001310
CF0000005FA0
BF0000005FA0
BF1000005FA0
BF1000005F90
BF2000006F90
BF3000007F90
AF4000008F90
9F5000009F80
9F600000BF80
8F600002FF90
7F700008FFA0
5F80001EFFB0
3FA0009FFFC0
0FD004FF8DE0
0BF24EFB0AF2
04FFFFC108F6
00AFF90005FA
000430000097
ENDCHAR
STARTCHAR Uogonek
ENCODING 370
SWIDTH 450 0
DWIDTH 16 0
BBX 18 33 1 -10
BITMAP
000000000000320000
350000000000EC0000
DF5000000003FF1000
DF5000000005FF1000
DF5000000008FF0000
CF500000000AFF0000
CF500000000DFE0000
CF500000000FFD0000
BF500000003FFC0000
AF500000005FFC0000
AF500000008FFB0000
AF50000000BFFA0000
9F50000000EFFA0000
9F50000002FEF90000
8F50000006FAFA0000
8F5000000BF3FA0000
7F5000001FC0EB0000
5F5000007F60CD0000
3F800001ED00BE0000
0EE1000AF5009F1000
0AFC43AF80008F2000
02EFFFF800007F4000
0017972000005F5000
0000000000008F6000
00000000001BFF7000
00000000009FBF7000
0000000002FE1E4000
0000000007F8010000
0000000009F4000000
0000000009F4000032
0000000005FC338DFA
0000000000BFFFFFE4
000000000018CDC820
ENDCHAR
STARTCHAR uogonek
ENCODING 371
SWIDTH 387 0
DWIDTH 14 0
BBX 15 27 1 -9
BITMAP
4500000013100000
CF0000005FA00000
BF0000005FA00000
BF1000005FA00000
BF1000005F900000
BF2000006F900000
BF3000007F900000
AF4000008F900000
9F5000009F800000
9F600000BF800000
8F600002FF900000
7F700008FFA00000
5F80001EFFB00000
3FA0009FFFC00000
0FD004FF8DE00000
0BF24EFB0AF20000
04FFFFC109F60000
00AFF9004EFA0000
00043004FEA70000
0000000DF5000000
0000005FB0000000
0000008F60000000
0000009F40000000
0000007F70015A70
0000001EFAAEFFA0
00000005EFFFF910
0000000015641000
ENDCHAR
STARTCHAR Wcircumflex
ENCODING 372
SWIDTH 878 0
DWIDTH 32 0
BBX 31 39 0 -1
BITMAP
00000000000000550000000000000000
00000000000003FF4000000000000000
0000000000000BFEE300000000000000
0000000000004F81DD10000000000000
000000000000CE103EC1000000000000
000000000005F60005FA000000000000
00000000000DD000008F800000000000
00000000007F4000000BFB0000000000
0000000001EB00000001DE0000000000
0000000006F200000000220000000000
00000000001000000000000000000000
00000000000000000000000000003800
00000000000000000000000000009F30
0000000000000000000000000000DF10
0000000000000000000000000002FC00
0020000000000002820000000005F800
0AE100000000000AFC0000000009F400
4FF600000000000DFF300000000DF100
0BFB00000000001FFF800000001FC000
03FF10000000006FBFD00000005F8000
00CF5000000000BE3FF20000009F4000
007FA000000001F90DF6000000DF1000
002FE000000005F508FB000001FC0000
000CF40000000AF103FF100005F80000
0008F90000000EB000DF500009F40000
0004FE0000004F60007FA0000CF10000
0001FF3000009F20001FE1001FC00000
0000BF800000EC00000AF5005F800000
00008FD00003F7000003FB008F400000
00004FF30008F3000000CF20CF100000
00001FF7000DD00000005F91FC000000
00000CFC003F900000000CF7F8000000
000008FF209F4000000005FFF5000000
000003FF70EE0000000000CFF3000000
000000DFC4FB00000000004FE0000000
0000008FFCF800000000000A70000000
0000001FFFF300000000000000000000
00000008FF9000000000000000000000
00000001650000000000000000000000
ENDCHAR
STARTCHAR wcircumflex
ENCODING 373
SWIDTH 566 0
DWIDTH 20 0
BBX 19 34 1 0
BITMAP
00000002700000000000
0000000CF90000000000
0000006FEF7000000000
000000DD19F500000000
000007F500BF30000000
00001EC0001DE2000000
00008F300003FD100000
0001EA0000006FD30000
0009E200000009F50000
000F8000000000400000
00010000000000000000
00000000000000000000
00000000000000000000
00000000000000000000
00000000000000000000
00000003600000013000
B800000DF5000003F600
EF10002FFD100003FA00
9F70003FFF800003FB00
3FD0005F9DF20003FA00
0CF4007F85FA0003FA00
07FA008F80BF4003FA00
01FF10AF702FD003FB00
00AF60BF6008F703FB00
005FC0DF5001DE13FC00
000EF3EF40005F93FD00
0008FAFF30000BF6FD00
0003FFFF200003FEFE00
0000CFFF1000009FFE00
00007FFF0000001EFF00
00001FFE00000006FF10
00000AFD000000009E10
000005FC000000000000
00000099000000000000
ENDCHAR
STARTCHAR Ycircumflex
ENCODING 374
SWIDTH 483 0
DWIDTH 17 0
BBX 17 39 0 0
BITMAP
000000055000000000
0000003FF400000000
000000BFEE30000000
000004F81DD1000000
00000CE103EC100000
00005F60005FA00000
0000DD000008F80000
0007F4000000BFB000
001EB00000001DE000
006F20000000022000
000100000000000000
000000000000000B50
000000000000001F90
000000000000005F50
000000000000009F10
00000000000000EB00
7B000000000003F700
4F900000000008F300
0CF6000000000DD000
03FE300000003F9000
008FD10000009F5000
000CFA000000EF1000
0002EF800005FB0000
00004FF6000AF60000
000006FF501FF10000
0000007FF67FA00000
00000009FFFF400000
00000000AFFE000000
000000000FF8000000
000000000FF3000000
000000003FD0000000
000000007F80000000
00000000CF30000000
00000002FD00000000
00000007F800000000
0000000CF300000000
0000001FD000000000
0000003F9000000000
0000002E4000000000
ENDCHAR
STARTCHAR ycircumflex
ENCODING 375
SWIDTH 363 0
DWIDTH 13 0
BBX 13 48 0 -14
BITMAP
00000630000000
00007FE2000000
0001EEED100000
0008F53FB00000
001EC006F90000
009F30009F7000
02F900000BF500
0AE2000001DF80
3F700000003FB0
9D000000000310
01000000000000
00000000000000
00000000000000
00000000000000
00000000000000
00000000002A20
00000000004F50
05200000005F50
2FE10000006F50
1EF80000007F50
06FF2000008F40
00CFA000009F40
003FF40000AF40
0008FC0000BF30
0001DF6000CF30
00004FE200CF30
00000AFB00DF20
000001EF70EF20
0000006FF6FF10
0000000CFFFF10
00000003FFFF00
000000008FFE00
000000001DFD00
0000000004FC00
0000000001FB00
0000000003FA00
0000000004F900
0000000005F800
0000000006F700
0000000007F500
0000000009F400
000000000AF300
000000000BF200
000000000CF100
000000000DE000
000000000ED000
000000001FC000
00000000175000
ENDCHAR
STARTCHAR Ydieresis
ENCODING 376
SWIDTH 483 0
DWIDTH 17 0
BBX 17 28 0 0
BITMAP
000000000000000B50
000005C8009C401F90
00000CFA03FF505F50
000003610054009F10
00000000000000EB00
7B000000000003F700
4F900000000008F300
0CF6000000000DD000
03FE300000003F9000
008FD10000009F5000
000CFA000000EF1000
0002EF800005FB0000
00004FF6000AF60000
000006FF501FF10000
0000007FF67FA00000
00000009FFFF400000
00000000AFFE000000
000000000FF8000000
000000000FF3000000
000000003FD0000000
000000007F80000000
00000000CF30000000
00000002FD00000000
00000007F800000000
0000000CF300000000
0000001FD000000000
0000003F9000000000
0000002E4000000000
ENDCHAR
STARTCHAR Zacute
ENCODING 377
SWIDTH 670 0
DWIDTH 24 0
BBX 24 33 0 0
BITMAP
000000000002D70000000000
00000000002EF70000000000
0000000001DFC10000000000
0000000008FC200000000000
0000000005A1000000000000
000000000000000000000000
000000000000000000000000
000000000000000000000000
058888888888877777760000
09FFFFFFFFFFFFFFFFFE0000
0010000001122456BFFB0000
0000000000000001DFD10000
000000000000000BFE300000
000000000000008FF5000000
00000000000004FF80000000
0000000000002EFB00000000
000000000000CFD100000000
000000000009FE3000000000
00000000006FF50000000000
0000000003FF800000000000
000000001DFB000000000000
00000000BFD1000000000000
00000008FE30000000000000
0000005FF500000000000000
000002EF8000000000000000
00001CFB0000000000000000
0000AFD10000000000000000
0006FE300000000000000000
003FF5000000000000000000
01DF90000000000000000010
0BFFAAAAAAAAAAAAABCCEFF3
2FFFFFFFFFFFFFFFFFFFFFF3
0CFEDCBAAA99988877654310
ENDCHAR
STARTCHAR zacute
ENCODING 378
SWIDTH 618 0
DWIDTH 22 0
BBX 22 27 1 -1
BITMAP
00000000000AC000000000
0000000000AFD000000000
0000000009FF4000000000
000000003FF50000000000
000000001B400000000000
0000000000000000000000
0000000000000000000000
0000000000000000000000
00000000049EE200000000
00000027DFFFF400000000
00016BFFFAAFF200000000
68BFFFC710BFC000000000
CFFD830003FF6000000000
162000000AFE0000000000
000000002FF60000000000
00000000AFB00000000000
00000002FF300000000000
00000009F8000000000000
0000001FE1000000000000
0000007F70000000000000
000000DE10000000000000
000005FA00000000258BD6
00000AF7000158BEFFFFFF
00000EF97ADFFFFFFFCA73
00003FFFFFFFEB85300000
00005FFDA7410000000000
0000231000000000000000
ENDCHAR
STARTCHAR Zdotaccent
ENCODING 379
SWIDTH 670 0
DWIDTH 24 0
BBX 24 29 0 0
BITMAP
00000000001BD30000000000
00000000004FF20000000000
000000000004300000000000
000000000000000000000000
058888888888877777760000
09FFFFFFFFFFFFFFFFFE0000
0010000001122456BFFB0000
0000000000000001DFD10000
000000000000000BFE300000
000000000000008FF5000000
00000000000004FF80000000
0000000000002EFB00000000
000000000000CFD100000000
000000000009FE3000000000
00000000006FF50000000000
0000000003FF800000000000
000000001DFB000000000000
00000000BFD1000000000000
00000008FE30000000000000
0000005FF500000000000000
000002EF8000000000000000
00001CFB0000000000000000
0000AFD10000000000000000
0006FE300000000000000000
003FF5000000000000000000
01DF90000000000000000010
0BFFAAAAAAAAAAAAABCCEFF3
2FFFFFFFFFFFFFFFFFFFFFF3
0CFEDCBAAA99988877654310
ENDCHAR
STARTCHAR zdotaccent
ENCODING 380
SWIDTH 618 0
DWIDTH 22 0
BBX 22 23 1 -1
BITMAP
0000000009E50000000000
000000001FF50000000000
0000000003300000000000
0000000000000000000000
00000000049EE200000000
00000027DFFFF400000000
00016BFFFAAFF200000000
68BFFFC710BFC000000000
CFFD830003FF6000000000
162000000AFE0000000000
000000002FF60000000000
00000000AFB00000000000
00000002FF300000000000
00000009F8000000000000
0000001FE1000000000000
0000007F70000000000000
000000DE10000000000000
000005FA00000000258BD6
00000AF7000158BEFFFFFF
00000EF97ADFFFFFFFCA73
00003FFFFFFFEB85300000
00005FFDA7410000000000
0000231000000000000000
ENDCHAR
STARTCHAR Zcaron
ENCODING 381
SWIDTH 670 0
DWIDTH 24 0
BBX 24 34 0 0
BITMAP
0000001C4000000003100000
00000009E20000006FA00000
00000000CC000008F8100000
000000002EA0009F50000000
0000000006F70AE300000000
0000000000AFEC2000000000
00000000001AA10000000000
000000000000000000000000
000000000000000000000000
058888888888877777760000
09FFFFFFFFFFFFFFFFFE0000
0010000001122456BFFB0000
0000000000000001DFD10000
000000000000000BFE300000
000000000000008FF5000000
00000000000004FF80000000
0000000000002EFB00000000
000000000000CFD100000000
000000000009FE3000000000
00000000006FF50000000000
0000000003FF800000000000
000000001DFB000000000000
00000000BFD1000000000000
00000008FE30000000000000
0000005FF500000000000000
000002EF8000000000000000
00001CFB0000000000000000
0000AFD10000000000000000
0006FE300000000000000000
003FF5000000000000000000
01DF90000000000000000010
0BFFAAAAAAAAAAAAABCCEFF3
2FFFFFFFFFFFFFFFFFFFFFF3
0CFEDCBAAA99988877654310
ENDCHAR
STARTCHAR zcaron
ENCODING 382
SWIDTH 618 0
DWIDTH 22 0
BBX 22 27 1 -1
BITMAP
0009800000000130000000
0003F60000002DF1000000
00007F400003EC20000000
00000BE2004EA100000000
000001EC05F80000000000
0000004FEE500000000000
00000006C3000000000000
0000000000000000000000
00000000049EE200000000
00000027DFFFF400000000
00016BFFFAAFF200000000
68BFFFC710BFC000000000
CFFD830003FF6000000000
162000000AFE0000000000
000000002FF60000000000
00000000AFB00000000000
00000002FF300000000000
00000009F8000000000000
0000001FE1000000000000
0000007F70000000000000
000000DE10000000000000
000005FA00000000258BD6
00000AF7000158BEFFFFFF
00000EF97ADFFFFFFFCA73
00003FFFFFFFEB85300000
00005FFDA7410000000000
0000231000000000000000
ENDCHAR
STARTCHAR florin
ENCODING 402
SWIDTH 345 0
DWIDTH 12 0
BBX 14 43 -1 -10
BITMAP
00000001000000
0000009FE60000
000003FFFF5000
000009FE9FC000
00000DF809F100
00001FF402F300
00003FF2005000
00005FF0000000
00007FD0000000
00007FB0000000
00008FA0000000
00009F90000000
0000AF80000000
0000AF70000000
0000AF60000481
0000AF5017DFF3
00009F79EFFF90
00009FFFFB7200
0008FFB5100000
01CFFF50000000
02C85F60000000
00003F70000000
00003F80000000
00002F90000000
00002FA0000000
00002FB0000000
00002FC0000000
00002FD0000000
00001FE0000000
00001FF0000000
00001FF2000000
00001FF3000000
00001FF4000000
00001FF5000000
00001FF6000000
00000FF6000000
00000FF7000000
00000FF7000000
00000EF6000000
00222EF5000000
AFFFFFE1000000
28DFFE50000000
00013100000000
ENDCHAR
STARTCHAR AEacute
ENCODING 508
SWIDTH 708 0
DWIDTH 26 0
BBX 24 34 1 0
BITMAP
0000000001C9000000000000
000000001CFA000000000000
00000000CFE2000000000000
00000006FE30000000000000
00000003B200000000000000
000000000000000000000000
000000000000000000000000
005F40000000000000003400
008FD0000870000015AFF700
009FF6003FF20029EFF92000
00BFFC000EF53AFFF9200000
00DFFF300BFDFFF920000000
00FE5F8009FFF92000000000
01FD0BD008FB200000000000
03FC05F406F7000000000000
05FA01E904F7000000000000
06F900AE03F8000000001000
08F7006F52F90000001BB000
09F6001FA1FA000017EA1000
0BF4000CF1FB0017ED500000
0DF30008F6EC17EF81000000
0EF20005FDEEEFB200000000
1FF10001FFFFE50000000000
2FF00009FFFF700000000000
4FF015DFFFFF600000000001
5FFDFFC78FFF6000000006DF
6FFE72000EFF60000002BFD4
8FC1000009FF6000005EF810
9F40000005FF60001AFD4000
AF10000001FF6005EF910000
CF00000000DF86CFD4000000
DD00000000DFFFF910000000
FC00000000DFFB3000000000
110000000001200000000000
ENDCHAR
STARTCHAR aeacute
ENCODING 509
SWIDTH 705 0
DWIDTH 25 0
BBX 25 26 0 0
BITMAP
00000000000003E50000000000
0000000000003EF60000000000
000000000002EFC00000000000
000000000009FC100000000000
000000000006A1000000000000
00000000000000001200000000
000000026610002BFFF9100000
0000007FFFD003EFFDFFD10000
000006FFFFF30CFD201CF90000
00004FFA2FF26FE3000BFC0000
0000DFB00FF1DF70008FE40000
0007FE202FF6FD004CFC300000
001EF7005FFCFA5BFE70000000
007FD0009FFFFFFF9100000000
00DF7001EFFFFFB30000000000
05FE1008FFFFF5000000000740
0BF7002EFFFFD0000000008FA0
1FF200AFA6FFB000000004FF50
5FA003FF20EFA00000001DFA00
AF500CF800CF90000000BFD100
DE007FE100AF90000009FD1000
EC03FF50008FA000008FC20000
DE4DFA00007FF4004CFA100000
AFFFD100005FFFEFFE60000000
4FFD2000003F7ADC7100000000
04610000000710000000000000
ENDCHAR
STARTCHAR Oslashacute
ENCODING 510
SWIDTH 382 0
DWIDTH 14 0
BBX 14 35 0 -3
BITMAP
000000002D6000
00000003EF7000
0000001EFC1000
0000009FC10000
0000005A100000
00000000000000
00000000002200
0000000232FA00
000002BFFFF500
00002EFFFFF600
0000CFD52FFF20
0006FB104FDFA0
000DF1009F4FD0
005FB000EB0EF1
00BF6003F70CF2
01FF1008F20BF4
04FC000CC00BF4
08F8002F800BF4
0BF4007F300CF3
0EF100BD000DF2
1FC001F9001FF0
3FA005F4003FD0
4F700AE0007FA0
6F600EA000AF70
7F604F5001EF20
6F709F1006FC00
4F90DB000DF500
1FC3F6006FD000
0CFBF203FF3000
05FFE68EF60000
00BFFFFF600000
006FEEA2000000
00BD0000000000
00E80000000000
00B40000000000
ENDCHAR
STARTCHAR oslashacute
ENCODING 511
SWIDTH 266 0
DWIDTH 10 0
BBX 11 30 -1 -3
BITMAP
0000002D7000
000002DF8000
00001DFD1000
00007FD20000
00005A100000
000000000000
000000002E70
00018C807F30
0009FFFADD00
000DFDDFF700
002FB00AF200
005F400EF600
009F004FFA00
00BD00AEDD00
00EC01EACE00
01FA05F4CE00
03FA0BE0DE00
04FA1F80EE00
05FA6F31FD00
05FACD04FB00
04FCF707F800
03FFF20CF400
02FFB02FE000
01FF60AF7000
00FF6AFD0000
00EFFFD20000
05FED8100000
0AE000000000
1E9000000000
0C3000000000
ENDCHAR
STARTCHAR Scommaaccent
ENCODING 536
SWIDTH 541 0
DWIDTH 19 0
BBX 19 39 0 -12
BITMAP
00000000000012000000
0000000005AEFFB00000
00000005DFCDFFB00000
000001AFA20188100000
00003DF6000000000000
0003EE40000000000000
002EF300000000000000
00CF6000000000000000
07F90000000000000000
1EE10000000000000000
5F900000000000000000
8F500000000000000000
8F500000000000000000
5F900000000000000000
0CF60000000000000000
02CFC630000000000000
0005BFFFDBA876410000
000001369BDEFFFFC400
0000000000001359EF40
00000000000000008F80
0000000000000004EF50
00000000000003AFF600
000000000015BFFB2000
000000016AEFFA300000
000017CFFFD710000000
0000BFFC730000000000
00002310000000000000
00000000000000000000
00000000000000000000
00000000000000000000
00000000282000000000
00000000AFA000000000
00000000CFC000000000
000000007FC000000000
000000007FA000000000
000000007F6000000000
000000008F3000000000
000000008E0000000000
00000000540000000000
ENDCHAR
STARTCHAR scommaaccent
ENCODING 537
SWIDTH 366 0
DWIDTH 13 0
BBX 13 31 0 -12
BITMAP
00000000120000
0000029DFFB000
00008FEABF8000
000AFA10010000
008FB000000000
03FE1000000000
09F60000000000
0EF10000000000
1FC00000000000
1FB00015AEE700
0EFB9BEFFFFF50
08FFFFC7449FA0
00587200004FA0
0000000001CF40
000000001CFA00
00000003DFC100
0000005EFC1000
00001AFFB10000
0003EFF9000000
0002CA30000000
00000000000000
00000000000000
00000282000000
00000BF9000000
00000CFB000000
000008FB000000
000008F9000000
000008F5000000
000009F2000000
000009D0000000
00000640000000
ENDCHAR
STARTCHAR circumflex
ENCODING 710
SWIDTH 390 0
DWIDTH 14 0
BBX 13 11 1 23
BITMAP
00002710000000
0000CFA0000000
0005FEF8000000
000DE18F600000
006F600BF40000
01EC0001DE3000
07F400003ED100
1EA0000005FD40
8F200000008F60
E8000000000400
10000000000000
ENDCHAR
STARTCHAR caron
ENCODING 711
SWIDTH 390 0
DWIDTH 14 0
BBX 12 7 2 22
BITMAP
B50000000022
7F30000005FC
0BD100006F91
01DB0007F700
004F908E5000
0007FED30000
00009B100000
ENDCHAR
STARTCHAR breve
ENCODING 728
SWIDTH 390 0
DWIDTH 14 0
BBX 10 6 2 21
BITMAP
0100000281
8F20001DF2
3FD201BFD0
06FFBEFE20
006FFFD200
0002750000
ENDCHAR
STARTCHAR dotaccent
ENCODING 729
SWIDTH 128 0
DWIDTH 5 0
BBX 4 3 0 19
BITMAP
1BE3
3FF3
0430
ENDCHAR
STARTCHAR ring
ENCODING 730
SWIDTH 266 0
DWIDTH 10 0
BBX 9 7 0 18
BITMAP
0001442000
02BFFFFC20
2EFA66CFB0
6FB0001EE0
3FB0002FE0
0DFB77DF80
02ACCCA500
ENDCHAR
STARTCHAR ogonek
ENCODING 731
SWIDTH 366 0
DWIDTH 13 0
BBX 9 10 3 -9
BITMAP
0007700000
01CFB00000
09FA100000
2FE1000000
6F80000000
8F50000000
7F50000430
3FD448EFC0
09FFFFFE40
006BCB7100
ENDCHAR
STARTCHAR tilde
ENCODING 732
SWIDTH 458 0
DWIDTH 17 0
BBX 14 7 1 19
BITMAP
0049A950000011
08FFEFF60006FB
4FF308FC002EFA
9F8001EF61CFE2
7D10005FFFFE30
00000006EFB200
00000000010000
ENDCHAR
STARTCHAR hungarumlaut
ENCODING 733
SWIDTH 239 0
DWIDTH 9 0
BBX 9 7 0 16
BITMAP
0001100000
002DA00500
02DF91BF30
1CFD2BFD10
6FD29FE300
3910FE3000
0000420000
ENDCHAR
STARTCHAR Wgrave
ENCODING 7808
SWIDTH 878 0
DWIDTH 32 0
BBX 31 36 0 -1
BITMAP
00000000000000430000000000000000
00000000000000BE2000000000000000
000000000000008FD100000000000000
000000000000001DF800000000000000
0000000000000002EE00000000000000
00000000000000003700000000000000
00000000000000000000000000000000
00000000000000000000000000000000
00000000000000000000000000003800
00000000000000000000000000009F30
0000000000000000000000000000DF10
0000000000000000000000000002FC00
0020000000000002820000000005F800
0AE100000000000AFC0000000009F400
4FF600000000000DFF300000000DF100
0BFB00000000001FFF800000001FC000
03FF10000000006FBFD00000005F8000
00CF5000000000BE3FF20000009F4000
007FA000000001F90DF6000000DF1000
002FE000000005F508FB000001FC0000
000CF40000000AF103FF100005F80000
0008F90000000EB000DF500009F40000
0004FE0000004F60007FA0000CF10000
0001FF3000009F20001FE1001FC00000
0000BF800000EC00000AF5005F800000
00008FD00003F7000003FB008F400000
00004FF30008F3000000CF20CF100000
00001FF7000DD00000005F91FC000000
00000CFC003F900000000CF7F8000000
000008FF209F4000000005FFF5000000
000003FF70EE0000000000CFF3000000
000000DFC4FB00000000004FE0000000
0000008FFCF800000000000A70000000
0000001FFFF300000000000000000000
00000008FF9000000000000000000000
00000001650000000000000000000000
ENDCHAR
STARTCHAR wgrave
ENCODING 7809
SWIDTH 566 0
DWIDTH 20 0
BBX 19 27 1 0
BITMAP
00000017000000000000
0000005F800000000000
0000002FF50000000000
00000007FE1000000000
000000009F6000000000
00000000082000000000
00000000000000000000
00000000000000000000
00000003600000013000
B800000DF5000003F600
EF10002FFD100003FA00
9F70003FFF800003FB00
3FD0005F9DF20003FA00
0CF4007F85FA0003FA00
07FA008F80BF4003FA00
01FF10AF702FD003FB00
00AF60BF6008F703FB00
005FC0DF5001DE13FC00
000EF3EF40005F93FD00
0008FAFF30000BF6FD00
0003FFFF200003FEFE00
0000CFFF1000009FFE00
00007FFF0000001EFF00
00001FFE00000006FF10
00000AFD000000009E10
000005FC000000000000
00000099000000000000
ENDCHAR
STARTCHAR Wacute
ENCODING 7810
SWIDTH 878 0
DWIDTH 32 0
BBX 31 34 0 -1
BITMAP
000000000000000BB000000000000000
00000000000000BFC000000000000000
0000000000000AFE3000000000000000
0000000000004FE40000000000000000
0000000000002B300000000000000000
00000000000000000000000000000000
00000000000000000000000000003800
00000000000000000000000000009F30
0000000000000000000000000000DF10
0000000000000000000000000002FC00
0020000000000002820000000005F800
0AE100000000000AFC0000000009F400
4FF600000000000DFF300000000DF100
0BFB00000000001FFF800000001FC000
03FF10000000006FBFD00000005F8000
00CF5000000000BE3FF20000009F4000
007FA000000001F90DF6000000DF1000
002FE000000005F508FB000001FC0000
000CF40000000AF103FF100005F80000
0008F90000000EB000DF500009F40000
0004FE0000004F60007FA0000CF10000
0001FF3000009F20001FE1001FC00000
0000BF800000EC00000AF5005F800000
00008FD00003F7000003FB008F400000
00004FF30008F3000000CF20CF100000
00001FF7000DD00000005F91FC000000
00000CFC003F900000000CF7F8000000
000008FF209F4000000005FFF5000000
000003FF70EE0000000000CFF3000000
000000DFC4FB00000000004FE0000000
0000008FFCF800000000000A70000000
0000001FFFF300000000000000000000
00000008FF9000000000000000000000
00000001650000000000000000000000
ENDCHAR
STARTCHAR wacute
ENCODING 7811
SWIDTH 566 0
DWIDTH 20 0
BBX 19 26 1 0
BITMAP
00000000008E00000000
0000000009FE00000000
000000007FF500000000
00000001FF6000000000
00000001B50000000000
00000000000000000000
00000000000000000000
00000003600000013000
B800000DF5000003F600
EF10002FFD100003FA00
9F70003FFF800003FB00
3FD0005F9DF20003FA00
0CF4007F85FA0003FA00
07FA008F80BF4003FA00
01FF10AF702FD003FB00
00AF60BF6008F703FB00
005FC0DF5001DE13FC00
000EF3EF40005F93FD00
0008FAFF30000BF6FD00
0003FFFF200003FEFE00
0000CFFF1000009FFE00
00007FFF0000001EFF00
00001FFE00000006FF10
00000AFD000000009E10
000005FC000000000000
00000099000000000000
ENDCHAR
STARTCHAR Wdieresis
ENCODING 7812
SWIDTH 878 0
DWIDTH 32 0
BBX 31 31 0 -1
BITMAP
0000000000002BC105C8000000000000
0000000000007FE10CFA000000000000
00000000000016300361000000000000
00000000000000000000000000003800
00000000000000000000000000009F30
0000000000000000000000000000DF10
0000000000000000000000000002FC00
0020000000000002820000000005F800
0AE100000000000AFC0000000009F400
4FF600000000000DFF300000000DF100
0BFB00000000001FFF800000001FC000
03FF10000000006FBFD00000005F8000
00CF5000000000BE3FF20000009F4000
007FA000000001F90DF6000000DF1000
002FE000000005F508FB000001FC0000
000CF40000000AF103FF100005F80000
0008F90000000EB000DF500009F40000
0004FE0000004F60007FA0000CF10000
0001FF3000009F20001FE1001FC00000
0000BF800000EC00000AF5005F800000
00008FD00003F7000003FB008F400000
00004FF30008F3000000CF20CF100000
00001FF7000DD00000005F91FC000000
00000CFC003F900000000CF7F8000000
000008FF209F4000000005FFF5000000
000003FF70EE0000000000CFF3000000
000000DFC4FB00000000004FE0000000
0000008FFCF800000000000A70000000
0000001FFFF300000000000000000000
00000008FF9000000000000000000000
00000001650000000000000000000000
ENDCHAR
STARTCHAR wdieresis
ENCODING 7813
SWIDTH 566 0
DWIDTH 20 0
BBX 19 27 1 0
BITMAP
000001AC204CA0000000
000005FF20AFC0000000
00000064002620000000
00000000000000000000
00000000000000000000
00000000000000000000
00000000000000000000
00000000000000000000
00000003600000013000
B800000DF5000003F600
EF10002FFD100003FA00
9F70003FFF800003FB00
3FD0005F9DF20003FA00
0CF4007F85FA0003FA00
07FA008F80BF4003FA00
01FF10AF702FD003FB00
00AF60BF6008F703FB00
005FC0DF5001DE13FC00
000EF3EF40005F93FD00
0008FAFF30000BF6FD00
0003FFFF200003FEFE00
0000CFFF1000009FFE00
00007FFF0000001EFF00
00001FFE00000006FF10
00000AFD000000009E10
000005FC000000000000
00000099000000000000
ENDCHAR
STARTCHAR Ygrave
ENCODING 7922
SWIDTH 483 0
DWIDTH 17 0
BBX 17 36 0 0
BITMAP
000000170000000000
0000004F8000000000
0000002FF500000000
00000006FE10000000
000000009F60000000
000000000820000000
000000000000000000
000000000000000000
000000000000000B50
000000000000001F90
000000000000005F50
000000000000009F10
00000000000000EB00
7B000000000003F700
4F900000000008F300
0CF6000000000DD000
03FE300000003F9000
008FD10000009F5000
000CFA000000EF1000
0002EF800005FB0000
00004FF6000AF60000
000006FF501FF10000
0000007FF67FA00000
00000009FFFF400000
00000000AFFE000000
000000000FF8000000
000000000FF3000000
000000003FD0000000
000000007F80000000
00000000CF30000000
00000002FD00000000
00000007F800000000
0000000CF300000000
0000001FD000000000
0000003F9000000000
0000002E4000000000
ENDCHAR
STARTCHAR ygrave
ENCODING 7923
SWIDTH 363 0
DWIDTH 13 0
BBX 13 41 0 -14
BITMAP
00006100000000
0000FC10000000
0000CFA0000000
00003EF5000000
000005FA000000
00000065000000
00000000000000
00000000000000
00000000002A20
00000000004F50
05200000005F50
2FE10000006F50
1EF80000007F50
06FF2000008F40
00CFA000009F40
003FF40000AF40
0008FC0000BF30
0001DF6000CF30
00004FE200CF30
00000AFB00DF20
000001EF70EF20
0000006FF6FF10
0000000CFFFF10
00000003FFFF00
000000008FFE00
000000001DFD00
0000000004FC00
0000000001FB00
0000000003FA00
0000000004F900
0000000005F800
0000000006F700
0000000007F500
0000000009F400
000000000AF300
000000000BF200
000000000CF100
000000000DE000
000000000ED000
000000001FC000
00000000175000
ENDCHAR
STARTCHAR endash
ENCODING 8211
SWIDTH 399 0
DWIDTH 14 0
BBX 14 6 0 6
BITMAP
000000000048A4
000000028DFFF8
000005BFFFFB62
0359EFFE951000
6FFFD840000000
15520000000000
ENDCHAR
STARTCHAR emdash
ENCODING 8212
SWIDTH 549 0
DWIDTH 20 0
BBX 18 5 0 6
BITMAP
00000000000258BDFB
000000147BEFFFFFFB
0247ADFFFFFDA85300
6FFFFDA85300000000
155300000000000000
ENDCHAR
STARTCHAR quoteleft
ENCODING 8216
SWIDTH 155 0
DWIDTH 6 0
BBX 3 11 1 12
BITMAP
5600
CF30
BF70
AF80
8F90
6F90
4F80
2F70
1F70
0E70
0550
ENDCHAR
STARTCHAR quoteright
ENCODING 8217
SWIDTH 155 0
DWIDTH 6 0
BBX 3 11 1 12
BITMAP
5600
CF30
BF70
AF80
8F90
6F90
4F80
2F70
1F70
0E70
0550
ENDCHAR
STARTCHAR quotesinglbase
ENCODING 8218
SWIDTH 155 0
DWIDTH 6 0
BBX 3 11 1 -1
BITMAP
4E40
7FA0
5FD0
4FE0
2FE0
0FD0
0DD0
0CC0
0AC0
06C0
0030
ENDCHAR
STARTCHAR quotedblleft
ENCODING 8220
SWIDTH 212 0
DWIDTH 8 0
BBX 6 11 1 18
BITMAP
530000
FB01D2
DC01F5
CD01F5
AE01F5
9F01F5
8F11F5
6F21F5
5F21F5
3F3094
0D1000
ENDCHAR
STARTCHAR quotedblright
ENCODING 8221
SWIDTH 212 0
DWIDTH 8 0
BBX 6 11 1 18
BITMAP
530000
FB01D2
DC01F5
CD01F5
AE01F5
9F01F5
8F11F5
6F21F5
5F21F5
3F3094
0D1000
ENDCHAR
STARTCHAR quotedblbase
ENCODING 8222
SWIDTH 212 0
DWIDTH 8 0
BBX 6 12 1 -1
BITMAP
210000
EC00A2
CD00E6
BE00E7
9F00E7
8F20E7
7F20E7
5F30E7
3F30E7
1F40B7
0D3001
010000
ENDCHAR
STARTCHAR dagger
ENCODING 8224
SWIDTH 268 0
DWIDTH 10 0
BBX 12 29 -2 -1
BITMAP
000034100000
0000AF500000
0000AF400000
0000BF300000
0000BF200000
0000BF100000
0000CF000000
0000CF000001
0000CF126AEB
0000DFDFFFF9
002AFFFFE820
18FFFFC60000
3FFFFE000000
0DB5FF000000
0001FF000000
0000FF100000
0000EF200000
0000DF200000
0000CF300000
0000BF300000
0000BF400000
0000AF500000
00009F500000
00008F600000
00007F700000
00006F700000
00005F800000
00004F800000
00001A400000
ENDCHAR
STARTCHAR daggerdbl
ENCODING 8225
SWIDTH 326 0
DWIDTH 12 0
BBX 12 29 0 -1
BITMAP
000043000000
0000EF200000
0000EF100000
0000EF000000
0000EE000000
0000FD000000
0000FC000000
0000FC000011
0001FC027BF7
0001FEDFFFE6
003CFFFFD610
2AFFFFB40000
6FFFFB000000
2E97FC001584
0004FD6BFFFB
0019FFFFEB73
1AFFFE840000
3FD9FD000000
1302FE000000
0001FE000000
0000FF000000
0000EF000000
0000DF100000
0000CF200000
0000BF200000
0000AF300000
00009F400000
00008F400000
00003B200000
ENDCHAR
STARTCHAR bullet
ENCODING 8226
SWIDTH 189 0
DWIDTH 7 0
BBX 5 6 1 8
BITMAP
000100
06EF70
5FFFC0
9FFFB0
5FFF40
09A600
ENDCHAR
STARTCHAR ellipsis
ENCODING 8230
SWIDTH 387 0
DWIDTH 14 0
BBX 12 3 1 0
BITMAP
131001300032
DF804FF308FD
DE403FC108F8
ENDCHAR
STARTCHAR guilsinglleft
ENCODING 8249
SWIDTH 409 0
DWIDTH 15 0
BBX 14 19 1 4
BITMAP
000000000002C3
00000000002CF4
0000000003EFA0
000000005FFC10
00000008FFB100
000001AFF90000
00002CFE600000
0003EFB2000000
005FF700000000
08FE4000000000
4FF40000000000
1DFC3000000000
02CFF810000000
0019FFD5000000
00004DFFB20000
0000007EFFA500
00000002AFFF90
0000000004DF50
00000000001300
ENDCHAR
STARTCHAR guilsinglright
ENCODING 8250
SWIDTH 450 0
DWIDTH 16 0
BBX 13 20 1 4
BITMAP
08400000000000
3FFA2000000000
0AFFF810000000
003BFFD5000000
00005CFFC30000
0000006DFF9100
000000007EFE60
00000000018FF0
00000000000EE0
00000000005F80
0000000004ED10
000000005EE300
00000008FF4000
000001BFE40000
00004DFE300000
0006FFD3000000
009FFB10000000
09FF8000000000
3FE40000000000
3A100000000000
ENDCHAR
STARTCHAR fraction
ENCODING 8260
SWIDTH 306 0
DWIDTH 11 0
BBX 10 29 0 -3
BITMAP
0000000012
00000000CD
00000002F9
00000006F4
0000000BE0
0000001FA0
0000005F50
000000AF10
000000EB00
000004F600
000009F200
00000DC000
00003F7000
00007F3000
0000CD0000
0001F80000
0006F40000
000BE00000
001E900000
005F500000
009F100000
00EB000000
03F6000000
08F1000000
0DC0000000
2F70000000
7F20000000
BD00000000
8800000000
ENDCHAR
STARTCHAR Euro
ENCODING 8364
SWIDTH 589 0
DWIDTH 21 0
BBX 21 28 0 -1
BITMAP
0000000000002310000000
00000000002BFFE5000000
0000000001DFC9EF200000
000000000BF7004E700000
000000006F900004500000
00000000EE100000000000
00000006F7000000000000
0000000CF1000000000000
0000002FA0000000000000
0000007F50000000000000
000000BF10000000000000
000001FC00245200000000
002469FEDFFFA100000000
0CFFFFFFEB620000000000
07CB9EF200000000000000
00000ED000000000000000
00001FA00148BD80000000
00003F96AEFFFB10000000
00039FFFCA852000000000
5DFFFF9100000000000000
5EB67F6000000000005920
00005F700000000001EF30
00003FA0000000001BFC00
00000ED000000003CFE200
000008F9100015AFFD3000
000001DFECCDFFFE810000
0000002AEFFFFC72000000
0000000003542000000000
ENDCHAR
STARTCHAR trademark
ENCODING 8482
SWIDTH 1278 0
DWIDTH 46 0
BBX 45 29 0 -1
BITMAP
0000000000000000000000274000000000000000440000
00000000000000000000007FF900000000000002FD0000
00000000000660000000017FFF80000000000007FE0000
00000000001FF7579ACDFFFFFFF400000000000BFF0000
000001468ADFFFFFFFFECA7EC8FC00000000001FEF2000
18ACEFFFFFFFFB643210000CC0BF60000000006F8F3000
8FFFEB85210AF7000000000AC03FD000000000BB5F4000
154200000008F70000000009D00AF600000001F74F5000
000000000006F70000000008E003FD00000006F32F6000
000000000004F80000000006F000AF6000000AD01F7000
000000000003F90000000005F2002FD000001F900F8000
000000000001FB0000000005F3000AF600005F400EA000
000000000000FD0000000005F50002FD0000AE000CB000
000000000000DE0000000004F60000AF6000EA000BC000
000000000000CF1000000004F800003FD005F5000AD000
000000000000BF3000000003F900000AF60AE00008F000
0000000000009F5000000003FB000003FE2F900007F200
0000000000008F7000000003FD000000AFEF400006F400
0000000000007F9000000003FE0000003FFC000004F500
0000000000005FB000000002FF1000000AF4000003F700
0000000000003FD000000002FF2000000240000002F900
0000000000002FF000000002FF4000000000000000FB00
0000000000000FF200000002FF5000000000000000EE00
0000000000000DF400000001FF6000000000000000DF20
0000000000000BF500000001FF7000000000000000BF50
00000000000009F500000000FF8000000000000000AF90
00000000000006F600000000DF80000000000000009FC0
00000000000002F700000000AF60000000000000007A40
0000000000000000000000000100000000000000000000
ENDCHAR
STARTCHAR minus
ENCODING 8722
SWIDTH 358 0
DWIDTH 13 0
BBX 12 3 1 9
BITMAP
000024689A90
4DEFFFFFFFF1
4A9887654320
ENDCHAR
STARTCHAR commaaccent
ENCODING 63171
SWIDTH 450 0
DWIDTH 16 0
BBX 3 9 6 -12
BITMAP
2820
BF90
CFC0
8FB0
8F90
8F60
8F20
9D00
6400
ENDCHAR
STARTCHAR fi
ENCODING 64257
SWIDTH 409 0
DWIDTH 15 0
BBX 13 34 0 -1
BITMAP
00000010000000
000009FE600000
00003FFFF50000
00009FE9FC0000
0000DF809F1000
0001FF402F3000
0003FF20053600
0005FF0000AF20
0007FD00003810
0007FB00000000
0008FA00000000
0009F900000000
000AF800000530
000AF700000FC0
000AF600005FC0
000AF5017DFFC0
0009F68EFFFFC0
0009FFFFFB8FC0
008FFC74103FC0
1CFFF500003FC0
2C86F600003FC0
0004F700003FC0
0004F900003FC0
0003FA00002FC0
0003FC00002FC0
0002FE00001FC0
0001FF00001FC0
0000FF20000FC0
0000EF30000FC0
0000DF30000FC0
0000CF30000EC0
0000BF30000EC0
00008E10000EC0
00000000000330
ENDCHAR
STARTCHAR fl
ENCODING 64258
SWIDTH 416 0
DWIDTH 15 0
BBX 14 34 0 -1
BITMAP
00000010000000
000009FE600000
00003FFFF50000
00009FE9FC4C20
0000DF809F7F50
0001FF402F6F60
0003FF20051F80
0005FF00000F90
0007FD00000DA0
0007FB00000CC0
0008FA00000BD0
0009F900000AE0
000AF8000009E0
000AF7000008F0
000AF600004BF1
000AF5017DFFF2
0009F68EFFFBF3
0009FFFFFB45F3
008FFC741005F4
1CFFF5000004F4
2C86F6000004F5
0004F7000004F5
0004F9000003F6
0003FA000003F6
0003FC000003F7
0002FE000003F7
0001FF000004F8
0000FF200004F8
0000EF300005F9
0000DF300006F9
0000CF300007FA
0000BF300009FA
00008E100005F9
00000000000010
ENDCHAR
STARTCHAR .notdef
ENCODING -1
SWIDTH 450 0
DWIDTH 16 0
BBX 1 1 0 0
BITMAP
00
ENDCHAR
STARTCHAR .null
ENCODING -1
SWIDTH 0 0
DWIDTH 0 0
BBX 1 1 0 0
BITMAP
00
ENDCHAR
STARTCHAR nonmarkingreturn
ENCODING -1
SWIDTH 450 0
DWIDTH 16 0
BBX 1 1 0 0
BITMAP
00
ENDCHAR
ENDFONT
